<?xml version="1.0" encoding="UTF-8"?>
<svg id="Layer_2" data-name="Layer 2" xmlns="http://www.w3.org/2000/svg" viewBox="0 0 674.54 883.83">
  <defs>
    <style>
      .cls-1 {
        fill: none;
      }

      .cls-1, .cls-2, .cls-3, .cls-4, .cls-5, .cls-6, .cls-7 {
        stroke-width: 0px;
      }

      .cls-2 {
        fill: #1c0f16;
      }

      .cls-2, .cls-3, .cls-4, .cls-5, .cls-6 {
        fill-rule: evenodd;
      }

      .cls-3 {
        fill: #2785c7;
      }

      .cls-4 {
        fill: #399946;
      }

      .cls-5 {
        fill: #fddc51;
      }

      .cls-6 {
        fill: #fdebd8;
      }

      .cls-7 {
        fill: #010101;
      }
    </style>
  </defs>
  <g id="Layer_1-2" data-name="Layer 1">
    <g id="Layer_1-3" data-name="Layer 1">
      <g>
        <path class="cls-7" d="m64.87,738.26c-3.41-22.19-7.25-45.22-9.39-86.61-1.28-27.3-3.41-95.14,5.55-142.5,8.11-42.24,24.75-66.56,40.96-90.02l8.11,5.55c-16.21,23.47-31.57,46.08-39.25,86.18-8.96,46.5-6.83,113.49-5.55,140.36,2.13,40.53,5.55,63.57,9.39,85.33l-9.81,1.71Z"/>
        <path class="cls-7" d="m30.32,750.63l-9.81-.85c2.99-30.29,5.97-61.44,11.95-80.21,5.97-18.77,15.79-27.73,29.86-26.88,12.8.43,26.02,8.96,36.69,23.47,10.67,14.51,19.2,35.84,27.3,56.32l-8.96,3.84h0c-8.11-20.05-16.21-40.96-26.02-54.18-8.53-11.52-19.63-18.77-29.01-19.2-6.4-.43-14.08,1.71-20.05,20.05-6.4,17.49-9.39,48.21-11.95,77.65Z"/>
      </g>
      <path class="cls-1" d="m432.21,128.17c8.53-2.56,25.6-2.99,43.52-11.52,17.92-8.96,36.69-26.02,52.05-41.81,15.36-15.79,26.88-30.29,34.13-34.98,6.83-4.69,8.96.43,10.24,14.08,1.28,13.65,1.28,36.26-5.97,61.44-7.25,25.6-21.76,53.76-42.66,74.23-20.91,20.05-48.21,32-62.29,38.4q-13.65,5.97-15.79,0c-2.13-5.97-6.83-18.35-11.09-33.7-4.27-15.36-7.68-34.56-9.39-46.5-1.71-12.37-1.71-17.07,7.25-19.63Z"/>
      <g>
        <path class="cls-5" d="m432.21,128.17c8.53-2.56,25.6-2.99,43.52-11.52,17.92-8.96,36.69-26.02,52.05-41.81,15.36-15.79,26.88-30.29,34.13-34.98,6.83-4.69,8.96.43,10.24,14.08,1.28,13.65,1.28,36.26-5.97,61.44-7.25,25.6-21.76,53.76-42.66,74.23-20.91,20.05-48.21,32-62.29,38.4q-13.65,5.97-15.79,0c-2.13-5.97-6.83-18.35-11.09-33.7-4.27-15.36-7.68-34.56-9.39-46.5-1.71-12.37-1.71-17.07,7.25-19.63Z"/>
        <path class="cls-5" d="m139.54,123.47c-8.53-2.56-25.6-3.41-43.52-12.8-17.92-9.39-36.26-26.88-51.2-43.09-14.93-16.21-26.45-31.14-33.28-35.84-6.83-4.69-9.39,0-10.67,13.65-1.28,13.65-2.13,36.26,4.69,61.44,6.83,25.6,20.48,54.18,40.96,75.09,20.48,20.48,47.78,33.28,61.01,39.68q13.65,6.4,15.79.43c2.56-5.97,7.25-17.92,11.52-33.7,4.27-15.36,8.53-34.13,10.67-46.08,2.99-11.52,2.56-16.21-5.97-18.77Z"/>
      </g>
      <g>
        <path class="cls-4" d="m219.74,608.14c.43,23.04-.43,70.4,5.55,114.34,5.55,43.94,17.92,84.47,26.02,110.5,8.11,25.6,11.95,36.26-1.28,43.09-13.23,6.4-43.94,8.96-62.72,7.25-18.77-1.71-25.6-7.68-23.47-14.51,2.13-6.83,13.23-14.51,28.16-19.2,14.93-4.69,34.13-5.97,42.24-10.24,8.11-4.27,5.97-11.09-1.28-32.85-7.25-22.19-19.2-59.3-24.32-93.86-5.12-34.56-2.99-66.56-2.13-86.18.85-19.63.43-26.88,2.13-31.57,1.71-4.69,4.69-6.4,7.25-7.68,1.71-1.71,3.41-2.56,3.84,20.91Z"/>
        <path class="cls-4" d="m364.8,609.84c2.99,23.04,11.09,69.54,12.37,113.91,1.28,44.37-4.69,86.61-8.53,113.06-3.84,26.45-5.97,37.54,8.11,42.24,14.08,4.27,44.8,2.13,62.72-2.56,17.92-4.69,23.89-11.52,20.91-17.92-3.41-6.4-15.36-12.37-31.14-14.51-15.36-2.13-34.56-.85-43.09-3.41-8.96-2.99-7.25-9.81-3.84-32.85,3.84-23.04,9.81-61.86,9.81-96.85-.43-34.98-7.25-66.13-11.09-85.75-3.84-19.2-4.69-26.45-6.83-30.72-2.13-4.27-5.97-5.55-8.53-6.4-2.13-.43-3.84-.85-.85,21.76Z"/>
        <path class="cls-4" d="m475.73,116.22c9.81,14.08,19.63,28.16,23.89,43.09,4.27,14.93,3.41,31.14,4.27,39.25.85,8.11-4.27,8.11,2.56,4.27,8.53-4.69,20.91-17.49,29.86-28.58-1.28-5.55-2.56-11.09-7.25-21.76-4.27-10.67-11.95-26.02-17.92-34.98-5.55-8.96-9.39-11.52-13.65-14.08-6.83,4.69-14.51,8.96-21.76,12.8Z"/>
        <path class="cls-4" d="m96.02,110.68c-8.11,13.23-15.79,26.88-20.48,41.81-4.69,14.93-5.97,31.57-10.24,40.1-3.84,8.96-1.71,4.27-10.67-.43-6.83-3.84-15.79-12.8-20.48-24.75,1.28-5.55,2.99-11.09,7.68-21.76,4.69-10.24,12.37-25.6,18.77-35.41,6.4-9.81,11.09-13.23,15.79-17.07,6.83,5.97,13.23,11.52,19.63,17.49Z"/>
      </g>
      <path class="cls-1" d="m139.54,123.47c-8.53-2.56-25.6-3.41-43.52-12.8-17.92-9.39-36.26-26.88-51.2-43.09-14.93-16.21-26.45-31.14-33.28-35.84-6.83-4.69-9.39,0-10.67,13.65-1.28,13.65-2.13,36.26,4.69,61.44,6.83,25.6,20.48,54.18,40.96,75.09,20.48,20.48,47.78,33.28,61.01,39.68q13.65,6.4,15.79.43c2.56-5.97,7.25-17.92,11.52-33.7,4.27-15.36,8.53-34.13,10.67-46.08,2.99-11.52,2.56-16.21-5.97-18.77Z"/>
      <path class="cls-3" d="m101.56,563.34c-9.81-57.6-22.19-161.7-12.8-259.82,9.81-97.7,41.81-189.43,87.89-244.89C222.73,3.16,283.31-15.61,338.35,13.83c54.61,29.44,103.67,106.66,125,215.03,20.91,108.37,14.51,247.45,6.83,319.13-7.68,71.68-15.79,75.94-23.89,77.65-8.11,1.71-16.64,0-26.02-4.69-9.81-4.69-20.91-13.23-32.42-12.8-11.52.43-23.89,9.81-34.56,17.07-10.67,7.25-20.05,12.8-36.69,9.81-17.07-2.99-41.81-14.08-57.17-23.47-15.36-9.39-21.76-17.07-37.97-11.09-15.79,6.4-41.81,26.45-59.3,36.26-17.49,9.39-27.3,8.11-35.41,1.71-8.96-6.4-15.36-17.49-25.17-75.09Z"/>
      <path class="cls-7" d="m594.76,306.08c-5.12,0-10.24-.43-15.36-.43l.43-9.81c16.21.85,31.14,1.71,43.94-6.4,9.81-6.4,20.05-18.77,31.14-38.4,6.83-11.95,8.53-16.64,10.24-22.19l9.39,3.41c-2.13,5.55-3.84,11.09-11.09,23.47-11.95,20.91-23.04,34.56-34.13,41.81-10.67,6.83-22.61,8.53-34.56,8.53Z"/>
      <path class="cls-7" d="m576.41,304.8c-6.83-11.95-13.65-23.89-13.23-42.66.43-17.92,8.53-41.81,16.21-65.28l9.39,2.99c-7.68,22.61-15.36,46.08-15.79,62.29-.43,15.79,5.55,26.45,11.95,37.54l-8.53,5.12Z"/>
      <path class="cls-6" d="m272.65,272.8c54.18,0,98.13-43.94,98.13-98.13s-43.94-98.13-98.13-98.13-98.13,43.94-98.13,98.13c0,53.76,43.94,98.13,98.13,98.13Z"/>
      <g>
        <path class="cls-7" d="m189.03,433.64l-3.41-8.11c7.25-2.99,13.65-5.55,22.19-14.08,8.96-9.39,19.2-24.75,21.76-39.68,2.13-13.65-2.56-29.86-12.37-44.8-8.53-13.23-19.63-22.19-31.57-32l5.55-6.4-2.56,3.41,2.56-3.41c11.52,9.81,23.89,19.63,32.85,33.7,6.4,9.81,16.64,29.01,13.65,50.77-2.99,21.76-19.2,39.68-23.89,44.37-9.39,9.81-17.49,13.23-24.74,16.21Z"/>
        <path class="cls-7" d="m356.27,427.67c-7.68-2.99-15.36-5.97-25.17-16.21-4.69-5.12-20.91-22.61-23.89-44.37-2.99-21.76,7.25-40.96,13.65-50.77,9.39-14.08,21.33-24.32,32.85-33.7l5.55,6.4h0c-11.52,9.81-22.61,18.77-31.57,32-9.81,14.93-14.08,31.14-12.37,44.8,2.13,15.36,12.8,30.72,21.76,39.68,8.53,8.96,15.36,11.52,22.19,14.08l-2.99,8.11Z"/>
        <path class="cls-7" d="m279.05,369.22h-1.28c-3.41-.43-5.97-2.56-8.53-4.69-1.71-1.28-2.99-2.56-5.12-3.84-5.55-3.41-12.8-5.55-16.64-4.69-3.84.85-6.4,4.69-9.39,9.39l-7.25-4.69c3.41-5.55,7.25-11.52,14.93-12.8,7.25-1.28,16.64,2.13,22.61,5.97,2.56,1.28,4.27,2.99,5.97,4.27,1.71,1.28,3.41,2.56,4.27,2.99.85,0,3.41-.43,8.53-4.69.85-.43,1.71-1.28,2.13-1.71,3.41-2.99,6.83-5.55,10.24-5.55,3.84,0,5.97,2.99,7.68,5.12.43.43.85.85,1.28,1.28.43.85,1.28.85,2.99.85l-1.28,8.53c-2.13-.43-5.55-.85-8.11-3.84-.43-.85-1.28-1.28-1.71-2.13-.43-.43-.85-.85-.85-1.28-.85.43-2.99,2.13-4.27,3.41-.85.85-1.71,1.28-2.13,2.13-4.27,2.56-9.39,5.97-14.08,5.97Z"/>
        <path class="cls-7" d="m446.71,425.11l-4.27-8.96c24.75-11.95,50.77-23.89,74.66-45.22,28.58-25.17,52.9-61.01,64.42-80.21,17.49-28.58,29.86-55.04,41.81-80.63l8.96,4.27c-11.95,26.02-24.32,52.48-42.24,81.49-11.95,19.63-36.69,56.32-66.56,82.34-24.75,22.61-51.2,34.98-76.79,46.93Z"/>
        <path class="cls-2" d="m247.05,219.47c34.98,0,64-28.58,64-64s-28.58-64-64-64-64,28.58-64,64,29.01,64,64,64Z"/>
      </g>
    </g>
  </g>
</svg>