<?xml version="1.0" encoding="UTF-8"?>
<svg id="Layer_2" data-name="Layer 2" xmlns="http://www.w3.org/2000/svg" viewBox="0 0 957.95 898.95">
  <defs>
    <style>
      .cls-1, .cls-2 {
        fill: none;
      }

      .cls-1, .cls-3, .cls-4, .cls-5, .cls-6 {
        stroke-width: 0px;
      }

      .cls-2 {
        stroke: #010101;
        stroke-miterlimit: 2.61;
        stroke-width: 2.3px;
      }

      .cls-3 {
        fill: #57ab86;
      }

      .cls-3, .cls-4, .cls-5, .cls-6 {
        fill-rule: evenodd;
      }

      .cls-4 {
        fill: #fdebd8;
      }

      .cls-5 {
        fill: #7e98a6;
      }

      .cls-6 {
        fill: #83cdf2;
      }
    </style>
  </defs>
  <g id="Layer_1-2" data-name="Layer 1">
    <g id="Layer_1-3" data-name="Layer 1">
      <path class="cls-5" d="m669.74,102.55c6.77-5.08,20.73-10.58,33.85-22.42,13.12-11.85,26.23-30.46,34.69-40.19,8.04-9.73,11.85-11.42,18.19-.85,6.35,10.58,16.5,33,16.08,59.23-.85,26.65-12.27,57.54-27.5,77.42-15.23,19.88-34.69,28.77-45.27,31.73-10.58,2.54-11.85-.85-16.5-16.92-4.65-16.08-11.85-44.85-16.08-61.77-3.81-16.92-4.23-21.58,2.54-26.23Z"/>
      <path class="cls-6" d="m698.51,92.39c4.65,5.08,14.38,14.38,22,28.35,7.62,13.54,13.54,31.73,16.08,43.58,2.12,11.85.85,17.77,2.12,18.19,1.27.42,5.08-4.65,9.31-11,4.65-6.35,9.73-13.54,11.85-19.46,2.12-5.92,1.27-10.58-3.38-19.04-4.65-8.88-12.27-21.58-20.73-30.88-8.46-9.31-17.35-15.23-22-19.04-4.65-3.38-5.5-4.65-8.04-3.81-2.54.85-6.35,3.81-8.46,5.5-3.38,1.69-3.38,2.54,1.27,7.62Z"/>
      <path class="cls-5" d="m348.2,83.51c-5.92-5.92-18.62-13.96-29.62-27.92-11-13.96-20.73-34.27-27.08-45.69-6.35-11.42-9.31-13.12-17.77-4.23-8.46,8.88-22,29.19-26.23,55.85-3.81,26.23,2.12,58.81,13.54,80.81,11.85,22.42,29.19,34.69,38.92,38.92,9.73,4.65,11.85,1.27,19.04-13.96,7.19-15.23,19.46-42.31,26.65-57.96,7.19-15.23,8.46-19.88,2.54-25.81Z"/>
      <path class="cls-6" d="m321.97,68.7c-5.5,4.23-16.5,11.85-26.65,23.69-10.15,12.27-19.04,28.77-23.27,40.19-4.23,11.42-3.81,17.35-5.08,17.77-1.27.42-4.23-5.5-7.62-12.27-3.38-6.77-7.19-15.23-8.04-21.15-.85-6.35.85-10.58,6.77-18.19,5.92-7.62,16.08-19.04,25.81-27.08,10.15-7.62,19.88-12.27,25.38-14.81,5.5-2.54,6.35-3.38,8.46-2.12,2.12,1.27,5.5,4.65,7.62,7.19,1.69,1.69,2.12,2.54-3.38,6.77Z"/>
      <path class="cls-6" d="m298.7,262.05c.85-31.73,5.08-90.54,25.38-139.19,20.31-48.65,57.12-87.58,110.42-103.65,53.31-16.08,123.54-9.73,167.96,12.27,44.42,22,63.46,60.08,76.58,105.77,13.54,45.69,21.15,99.42,23.69,129.46,2.54,29.62.42,35.54-39.77,43.58-40.19,8.04-118.04,18.62-184.89,17.77-66.42-.85-121.85-12.69-150.19-21.15-28.35-7.62-30.46-12.69-29.19-44.85Z"/>
      <path class="cls-4" d="m401.09,296.74c-.42-8.46,0-24.12,2.12-33,2.12-8.88,6.35-11,17.77-11.85,11.42-.85,30.46,0,40.19,1.69,10.15,1.69,11,4.23,11,13.54s-1.27,25.38-2.54,41.46h-66.85c-.42-1.69-1.27-2.96-1.69-11.85Z"/>
      <path class="cls-4" d="m548.74,298.01c-2.12-9.73-4.65-30.04-4.65-39.77.42-9.73,3.81-9.31,13.54-10.15,9.73-.85,25.38-2.54,33.85-3.38s8.88-.85,10.58,9.73c1.69,10.58,4.23,31.73,5.5,41.88.85,10.15.42,9.31-8.88,9.31s-26.65,1.27-44.42,2.12c-1.69,0-3.38,0-5.5-9.73Z"/>
      <path class="cls-6" d="m250.47,340.74c-13.54,55.42-35.12,162.46-47.81,261.46-12.69,99-17.35,191.23-16.08,237.35,1.69,46.12,8.88,46.12,37.65,47.38,28.77,1.27,79.12,3.81,104.5,5.08,25.38,1.27,26.65,1.27,33.42-28.77,6.77-30.04,19.88-90.12,30.88-121.85,11-31.73,19.88-35.12,56.27-35.96,36.38-.42,99.85,2.12,132,3.81,32.15,1.69,33.42,2.54,35.96,33.85,2.54,31.31,6.35,93.08,11,123.12,4.65,30.46,10.15,29.19,38.92,30.04,28.77.85,80.39,3.38,107.04,2.54,26.65-.42,27.92-3.81,21.58-101.54-6.77-97.73-21.58-289.39-34.27-391.77-12.69-102.39-23.27-115.5-35.12-117.19-12.27-1.69-26.23,7.62-79.12,17.35-52.88,9.73-144.69,19.46-213.23,14.81-68.54-4.65-112.96-24.12-138.35-31.73-25.38-7.62-31.31-3.38-45.27,52.04Z"/>
      <path class="cls-1" d="m250.47,340.74c-13.54,55.42-35.12,162.46-47.81,261.46-12.69,99-17.35,191.23-16.08,237.35,1.69,46.12,8.88,46.12,37.65,47.38,28.77,1.27,79.12,3.81,104.5,5.08,25.38,1.27,26.65,1.27,33.42-28.77,6.77-30.04,19.88-90.12,30.88-121.85,11-31.73,19.88-35.12,56.27-35.96,36.38-.42,99.85,2.12,132,3.81,32.15,1.69,33.42,2.54,35.96,33.85,2.54,31.31,6.35,93.08,11,123.12,4.65,30.46,10.15,29.19,38.92,30.04,28.77.85,80.39,3.38,107.04,2.54,26.65-.42,27.92-3.81,21.58-101.54-6.77-97.73-21.58-289.39-34.27-391.77-12.69-102.39-23.27-115.5-35.12-117.19-12.27-1.69-26.23,7.62-79.12,17.35-52.88,9.73-144.69,19.46-213.23,14.81-68.54-4.65-112.96-24.12-138.35-31.73-25.38-7.62-31.31-3.38-45.27,52.04Z"/>
      <path class="cls-6" d="m763.67,394.05c13.54,2.96,42.31,23.69,66.85,54.58,24.54,30.88,44.85,72.35,66,112.54,21.15,40.62,43.15,80.39,53.31,103.23,10.15,22.85,8.88,28.77,6.35,32.15-2.54,3.38-5.92,3.81-13.12-1.69-6.77-5.08-17.35-16.08-26.65-23.69-9.31-7.62-17.77-11.42-22-8.04-3.81,3.38-3.38,14.38-4.23,29.62-.85,15.23-2.54,34.69-10.58,50.35-7.62,16.08-21.15,28.35-30.46,9.73-9.31-18.19-14.81-67.69-25.38-113.39-10.58-46.12-26.65-88.85-38.08-113.81-11.42-24.96-18.19-32.15-22-39.77-3.81-7.62-4.65-14.81-5.5-25.81-1.27-11.42-2.54-26.23-4.23-40.62-2.12-14.38-3.81-28.35,9.73-25.38Z"/>
      <path class="cls-6" d="m217.89,413.93c-21.15,5.92-60.92,22-100.27,56.69-39.35,34.69-78.27,88-98.15,122.69-20.31,34.69-21.58,51.19-17.77,60.5,3.81,9.31,13.54,11.85,19.88,6.77,6.35-5.08,9.73-18.19,18.19-29.62,8.04-11.85,21.15-22,28.77-24.54,7.62-2.12,10.15,3.81,11,24.12.85,20.31.42,55,1.69,77,1.27,22,4.23,30.88,9.31,32.58,5.08,1.69,11.85-3.81,19.46-15.23,7.62-11.85,16.08-29.62,28.35-59.23,12.27-29.62,27.92-71.5,43.15-97.73,14.81-26.23,28.77-37.23,36.38-47.38,7.62-9.73,9.31-19.04,12.27-35.96,3.38-16.92,8.04-41.88,9.73-56.69,1.69-14.81-.85-19.88-22-13.96Z"/>
      <g>
        <path class="cls-3" d="m797.93,458.36c-3.38,2.54-6.35,9.73-5.08,16.92,1.27,7.19,6.77,13.54,11.85,16.92,5.08,3.38,10.15,3.81,14.81,1.69,4.65-2.12,9.31-7.19,9.31-11.85.42-4.65-3.81-9.31-7.62-12.69-3.81-3.38-8.04-5.92-11.85-8.46-4.23-2.54-8.04-5.08-11.42-2.54Z"/>
        <path class="cls-3" d="m836.86,497.28c2.96.42,9.31,2.54,12.69,4.65,3.38,2.12,3.81,3.81,1.69,5.08-2.12,1.27-6.35,1.69-9.31.42-2.96-1.27-4.65-3.81-5.92-6.35-1.27-2.12-2.12-4.23.85-3.81Z"/>
        <path class="cls-3" d="m798.36,421.13c-.42,3.81-.42,11.42,2.12,16.5,2.54,5.08,7.62,8.04,11.85,9.31,4.23.85,7.19,0,8.88-1.27,1.69-1.27,2.54-2.54,1.27-5.08-1.27-2.54-4.65-7.19-8.46-11.42-4.23-4.23-8.88-8.04-11.85-9.73-2.54-2.12-3.38-2.12-3.81,1.69Z"/>
        <path class="cls-3" d="m290.24,721.09c-4.23-2.96-10.58-5.08-17.77-3.38-7.19,1.69-15.65,7.19-19.04,13.54-3.38,6.35-2.12,13.12,1.69,17.77,3.81,4.65,10.58,6.77,18.19,7.19,7.62.42,16.5-1.27,20.73-5.5,4.23-4.23,3.81-11,2.96-16.92-.85-5.08-2.54-9.31-6.77-12.69Z"/>
        <path class="cls-3" d="m323.24,763.82c-3.81-.42-11.42,2.54-13.54,5.08-2.12,2.54,1.69,4.65,5.5,5.08,3.81.42,8.46-.42,10.58-2.96,2.12-2.54,1.69-6.77-2.54-7.19Z"/>
        <path class="cls-3" d="m280.51,782.86c-5.92-.85-14.81-.42-19.46,2.12-5.08,2.54-5.92,7.62-2.96,13.96,2.96,6.35,9.73,13.54,16.08,12.27,6.35-1.27,11.85-11.85,13.12-18.19,1.27-6.35-1.27-9.31-6.77-10.15Z"/>
        <path class="cls-3" d="m313.09,798.51c-5.08,1.69-9.31,5.92-5.92,8.04,3.38,2.54,13.54,3.38,19.04,1.69,5.08-1.69,5.08-6.35,2.12-8.88-3.38-2.12-9.73-2.54-15.23-.85Z"/>
        <path class="cls-3" d="m368.09,811.2c-4.65.42-13.12,2.54-18.19,6.77-5.08,4.23-6.35,10.58-4.65,17.77,1.69,6.77,6.77,14.38,10.15,18.62,3.38,4.23,5.5,5.5,7.62,2.96,1.69-2.54,3.38-9.31,4.65-14.81,1.27-5.5,2.54-10.58,3.38-14.81,1.27-4.65,2.12-8.88,2.54-11.42.42-2.54.85-2.96.42-3.81-.42-1.27-1.27-2.12-5.92-1.27Z"/>
        <path class="cls-3" d="m298.7,838.28c-3.38-.85-9.73,1.69-11.42,4.65-1.69,2.96,2.12,6.35,5.5,7.62,3.38.85,6.77-.42,8.46-3.38,1.69-2.96.85-7.62-2.54-8.88Z"/>
        <path class="cls-3" d="m187.85,431.28c-1.69,5.5.85,12.69,5.5,17.77,4.65,5.08,11.85,6.77,17.35,2.96,5.5-3.81,10.15-13.12,12.69-20.73,2.12-7.62,2.54-13.54.42-16.08-2.12-2.54-6.77-2.54-11-1.27-4.23,1.27-8.04,3.38-12.69,5.92-5.08,2.96-10.58,6.35-12.27,11.42Z"/>
        <path class="cls-3" d="m181.93,463.01c-6.35,0-14.81,2.54-18.62,8.88-3.81,6.35-2.54,16.08,0,22.42,2.54,6.35,7.19,9.31,13.96,8.88,6.77-.42,15.65-4.65,18.19-9.31,2.54-4.65-.85-10.15-1.69-14.81-.85-4.65,1.27-8.04,0-11-.85-2.54-5.5-5.08-11.85-5.08Z"/>
        <path class="cls-3" d="m221.28,498.13c-2.96-2.12-8.88-2.54-13.12,1.27-4.23,3.81-6.77,11.85-6.77,16.08,0,4.65,2.54,5.5,5.08,5.5s5.5-.42,8.88-2.96c2.96-2.54,6.35-6.35,8.04-10.58,1.27-3.81.85-7.19-2.12-9.31Z"/>
        <path class="cls-3" d="m787.36,696.55c-2.54.42-6.35.85-11.42,5.92s-11.42,14.38-13.54,25.81c-2.12,11.42.42,24.96,5.08,34.69,4.65,9.73,11.85,16.5,16.5,19.46,5.08,2.96,8.04,2.96,8.88-5.92.85-8.88-.42-25.81-.42-38.5-.42-13.12.42-22,.85-28.35.42-6.35.42-9.73-.42-11.42-.85-2.12-2.54-2.12-5.5-1.69Z"/>
        <path class="cls-3" d="m702.32,758.74c-5.92,3.38-12.27,10.58-12.69,18.19-.42,7.62,5.92,15.65,12.27,18.19,6.77,2.54,13.96.42,18.19-5.08,4.23-5.08,5.08-13.12,4.65-19.04-.85-5.92-3.38-9.73-7.19-12.27-3.81-2.54-9.31-3.38-15.23,0Z"/>
        <path class="cls-3" d="m783.13,804.01c-5.5-2.12-15.23-5.92-23.69-3.81-8.46,2.12-15.23,9.31-16.08,16.08-.42,6.77,5.5,12.69,13.12,17.77,7.62,5.08,16.5,9.73,22,8.46,5.5-1.27,8.04-8.04,9.73-14.81,1.69-6.77,2.12-13.12,1.69-16.92-.42-3.81-1.27-4.65-6.77-6.77Z"/>
        <path class="cls-3" d="m271.2,287.86c2.12-1.27,5.08-2.96,18.62-.42,13.54,2.54,37.65,8.46,68.96,11.85,31.73,3.81,71.08,4.65,112.12,5.08,41.46,0,85.04-.42,123.12-2.54,38.08-1.69,70.23-4.65,90.54-7.62,20.31-2.96,27.92-5.08,33.42-6.35,5.92-.85,9.31-.85,12.27.85,2.54,1.27,4.65,3.81,4.65,5.08s-1.27,1.69-4.65,2.54c-3.38.85-8.46,2.12-31.73,5.5-23.27,3.38-63.88,9.31-119.31,12.27-55.42,3.38-125.65,4.23-177.27,1.69-51.62-2.54-84.62-9.31-103.65-13.54-19.04-4.23-24.12-6.77-27.08-8.04-2.96-1.27-3.38-2.12-3.38-2.96.85-.42,1.69-1.69,3.38-3.38Z"/>
      </g>
      <path class="cls-4" d="m422.24,215.09c25.81,0,46.96-21.15,46.96-46.96s-21.15-46.96-46.96-46.96-46.96,21.15-46.96,46.96c0,25.81,21.15,46.96,46.96,46.96Z"/>
      <path class="cls-2" d="m402.78,185.05c0-9.73-.42-19.88,3.81-25.81,4.23-5.92,13.12-8.04,19.88-7.19,6.77.85,11.85,4.23,13.96,9.73,2.54,5.92,2.54,13.54,2.54,21.58"/>
      <path class="cls-4" d="m581.32,208.32c25.81,0,46.96-21.15,46.96-46.96s-21.15-46.96-46.96-46.96-46.96,21.15-46.96,46.96,21.15,46.96,46.96,46.96Z"/>
      <path class="cls-2" d="m562.28,178.28c0-9.73-.42-19.88,3.81-25.81,4.23-5.92,13.12-8.04,19.88-7.19,6.77.85,11.85,4.23,13.96,9.73,2.54,5.92,2.54,13.54,2.54,21.58"/>
      <path class="cls-4" d="m361.32,788.36c-11.42-30.04-33.85-93.5-35.96-160.77-2.12-66.85,16.5-137.5,63.46-169.65,47.38-32.15,123.12-25.38,174.31-8.88,51.19,16.92,77.42,44.42,90.54,81.65,13.12,37.23,12.27,84.62,6.35,128.62-5.92,44-17.35,84.62-24.12,108.73-6.77,24.12-8.46,31.31-10.15,33-1.69,1.69-2.96-1.69-4.23-13.12-1.27-11.42-2.96-30.88-3.38-41.88-.85-11-.42-13.54-.85-18.62-.42-5.08-1.27-12.69-17.77-16.08-16.5-2.96-48.65-1.69-82.08-2.54-33.42-.85-68.54-4.23-88-2.12-19.46,2.12-23.27,8.88-28.35,23.69-5.08,14.81-11.42,38.08-16.08,52.88-4.65,15.23-7.62,22-9.73,27.08-2.12,4.65-2.54,8.04-13.96-22Z"/>
    </g>
  </g>
</svg>