<?xml version="1.0" encoding="UTF-8"?>
<svg id="Layer_2" data-name="Layer 2" xmlns="http://www.w3.org/2000/svg" viewBox="0 0 834.97 716.05">
  <defs>
    <style>
      .cls-1 {
        fill: none;
      }

      .cls-1, .cls-2, .cls-3, .cls-4, .cls-5, .cls-6 {
        stroke-width: 0px;
      }

      .cls-2 {
        fill: #1c0f16;
      }

      .cls-2, .cls-3, .cls-4, .cls-5, .cls-6 {
        fill-rule: evenodd;
      }

      .cls-3 {
        fill: #3a6d87;
      }

      .cls-4 {
        fill: #eaa3c7;
      }

      .cls-5 {
        fill: #fdebd8;
      }

      .cls-6 {
        fill: #31a1b2;
      }
    </style>
  </defs>
  <g id="Layer_1-2" data-name="Layer 1">
    <g id="Layer_1-3" data-name="Layer 1">
      <path class="cls-4" d="m640.34,99.82c32.79-21.12,97.18-61.43,137.29-83.18,40.11-21.75,56.21-24.38,52.4,5.44-3.81,29.82-27.67,92.51-42.23,129.76-14.56,37.24-19.55,49.61-23.2,54.42-4.07,4.66-6.8,1.77-12.52-4.58-5.72-6.35-13.75-15.43-24.59-24.6-10.84-9.16-23.96-17.27-39.46-25.3-15.51-8.03-33.45-14.59-45.96-19.17-12.52-4.58-19.34-6.6-24.65-7.59-5.31-1-9.37-1.53-9.9-2.67-1.82-.19-.38-1.56,32.83-22.52Z"/>
      <g>
        <path class="cls-5" d="m772.39,23.23c2.73,2.89,4.92,9.84,8.97,15.57,4.47,5.89,11.1,9.73,18.92,11.64,7.81,1.91,17.03,3.86,20.45,2.27,2.7-.91,1.29-.95.75,3.11-.96,3.91-2.22,13.85-6.25,17.1-4.03,3.26-10.82-.17-17.49-2.61-6.68-2.44-14.3-6.17-21-12.41-6.71-6.24-12.65-14.56-15.3-20.25s-2.15-8.35-1.12-9.87c.61-1.67,1.75-2.2,3.61-3.41,2.58-1.89,5.74-4.05,8.46-1.16Z"/>
        <path class="cls-5" d="m731.17,49.31c2.49,6.11,1.09,6.07,8.93,16.98,8.41,10.64,21.94,18.9,34.04,23.32,12.52,4.58,23.86,5.88,29.48,6.05,5.62.16,5.09-.98,3.87,2.36-1.22,3.34-3.28,11.57-5.19,14.18-1.9,2.62-2.54.49-11.19-1.73-8.65-2.22-24.58-5.2-37.32-11.75-12.74-6.55-21.56-17.34-27.47-27.07-5.9-9.73-8.05-18.08-7.44-19.75.76-2.09,4.45-3.1,5.89-4.47,1.44-1.36,4.07-4.66,6.41,1.87Z"/>
        <path class="cls-5" d="m697.7,69.71c5.3,6.19,5.1,13.22,14.76,24.31,9.24,10.95,20.12,18.71,33.69,25.56,13.16,6.7,28.71,13.33,37.47,16.53,8.76,3.2,8.23,2.06,8.19,3.47-.04,1.4-1,5.31-2.33,7.66-.92,2.5-.43,5.05-6.99,3.59-6.56-1.45-19.61-7.17-33.03-14.44-13.42-7.27-26.65-16.36-37.23-24.96-10.16-8.44-17.66-16.39-23.18-24.55-5.68-7.75-6.44-5.67-7.57-10.34-1.13-4.67,2.4-5.27,4.41-6.9,2.28-1.06,8.28-4.54,11.8.06Z"/>
        <path class="cls-5" d="m662.93,96.25c6.82,7.22,10.68,14.78,22.84,26.79,12.43,12.58,25.39,21.11,37.83,28.49,12.59,6.97,25.06,12.95,33.67,16.57,9.03,3.77,14.87,5.91,17.48,7.81,3.19,1.64,1.78,1.6.87,4.1s-1.91,7.81-4.91,9.56c-2.43,1.48-5.5.83-16.99-5.27-11.49-6.09-31.24-18.04-46.97-28.05-15.58-10.42-26.99-19.32-36-28.3-9.02-8.97-15.91-18.58-20.49-25.46-5-7.03-2.42-3.72-3.9-6.15-.95-1.29,5.17-3.79,6.61-5.15,2.7-.91,3.15-2.16,9.97,5.06Z"/>
      </g>
      <path class="cls-3" d="m201.6,164.09c1.7,4.41.96,15.49-3.8,24.62-4.76,9.14-13.27,16.9-22.96,21.4-9.68,4.5-20.12,5.89-26.46,6.41-6.34.52-8.01-.09-7.94,2.3.07,2.39,1.58,8.62.13,15.18-1.45,6.56-5.87,13.46-12.21,19.18-6.35,5.72-14.89,9.69-17.67,13.4-3.04,3.14-.16,5.62,3.47,11.2,4.2,5.32,9.58,13.91,11.27,23.51,1.69,9.6-1.7,20.19-5.7,27.24-4.41,6.9-9.85,10.12-14.71,13.07-4.86,2.95-9,5.22-14.19.01-4.77-5.06-10.44-18.01-12.93-29.32-2.49-11.31-1.63-21.41.51-32.45s6.3-23.71,18.13-39.25c11.83-15.54,31.33-33.95,48.43-47.09,16.95-12.72,31.49-20.17,40.76-24.83,10.29-6.17,14.59-8.86,15.87-4.6Z"/>
      <g>
        <path class="cls-6" d="m199.29,166.55c-21.77,14.27-56.15,37.17-77.07,60.74-20.91,23.57-28.92,48.07-28.65,68.03.27,19.96,8.52,36.22,27.13,48.7,19.03,12.63,48.84,21.64,76.93,17.25,28.09-4.39,55.14-21.46,89.47-57.15,34.33-35.69,76.05-89.02,124.35-126.7,47.88-37.83,102.19-59.6,157.03-60.83,54.84-1.24,111.05,18.37,154.82,55.18,43.77,36.81,75.52,90.98,88.29,145.31,12.77,54.33,7.14,108.55-20.32,169.45-27.46,60.9-76.5,129.05-137.75,172.4-60.83,43.5-133.88,62.2-219.56,55.95-85.68-6.25-183.84-37.88-258.68-84.15-74.84-46.27-126.35-107.19-152.5-170.2C-3.38,397.51-4.33,332.85,6.53,282.43c10.86-50.42,33.81-86.01,67.55-111.04,34.01-24.46,79.23-38.2,108.68-41.14,29.45-2.95,43.29,4.48,45.22,10.85,2.91,6.27-6.66,11.75-28.7,25.45Z"/>
        <path class="cls-6" d="m656.18,634.83c8.73-.59,21.44,2.16,35.06,2.41,13.47.67,27.86-1.17,36.93-4,9.07-2.83,13.98-7.19,21.13-16.4,7.15-9.21,17.12-23.54,25.29-29.07,7.75-5.68,13.7-2.56,15.93,2.99,2.65,5.7,2.14,13.55-.72,20.07-2.86,6.52-7.5,11.45-8.94,12.81-1.86,1.21-.22-1.97,6.19-5.3,6-3.48,17.09-7.94,26.09-7.96,8.99-.02,17.19,3.44,20.25,9.29,3.06,5.85,1.72,13.4-4.36,19.69-6.5,6.14-17.59,10.6-25.52,12.9-7.78,1.88-11.84,1.35-10.59,1.8,1.4.04,8.12,1.08,13.57,6.85,5.19,5.21,9.12,15.16,6.83,21.42-1.87,6.41-10.26,9.96-19.37,9-9.26-.55-19.8-5.35-29.47-11.25-9.67-5.9-19.03-12.63-27.94-15.42-9.33-2.94-18.21-1.93-31.08.93-12.87,2.86-28.74,7.47-45.02,6.72-16.28-.75-32.4-7.11-39.6-10.69-7.2-3.58-4.77-5.06-1.05-7.48,3.72-2.42,9.31-6.06,12.46-8.21,3.15-2.16,4.45-3.1,7.6-5.26,3-1.74,7.6-5.26,16.33-5.85Z"/>
        <path class="cls-6" d="m329.76,276.67c-1.92-11.58-10.23-30.23-14.95-47.08-4.87-16.44-6.29-30.67-5.59-40.35.7-9.68,4.09-15.06,11.24-24.27,7.57-9.06,19.32-21.79,23.09-30.81,3.77-9.03-.58-13.93-6.31-15.08-5.73-1.15-13.66,1.15-19.82,5.05-5.74,4.05-9.69,9.7-10.46,11.78-.61,1.67,1.56-.38,4-7.05,2.44-6.68,3.9-18.44,2.06-27.62-1.84-9.19-7.41-15.95-13.82-17.82-6.41-1.87-13.66,1.15-18.38,8.89-4.72,7.73-6.75,19.76-6.84,27.77-.09,8.01,1.35,11.84.82,10.7-.53-1.14-3.29-7.82-9.35-11.93-6.48-4.26-16.42-5.53-22.43-2.05-6,3.48-7.23,12.02-4.82,20.94,2.83,9.07,9.61,17.7,17.37,26.21,7.77,8.51,16.41,15.93,20.95,24.21,4.54,8.28,5.97,17.32,6.44,30.26,1.04,12.68,1.54,29.41,5.73,45.13,4.19,15.72,12.05,30.42,16.37,36.73,4.32,6.31,5.08,4.22,7.24,2.18,2.17-2.05,6.42-3.33,10.45-6.59,4.86-2.95,8.93-7.61,7.02-19.19Z"/>
      </g>
      <path class="cls-1" d="m640.34,99.82c32.79-21.12,97.18-61.43,137.29-83.18,40.11-21.75,56.21-24.38,52.4,5.44-3.81,29.82-27.67,92.51-42.23,129.76-14.56,37.24-19.55,49.61-23.2,54.42-4.07,4.66-6.8,1.77-12.52-4.58-5.72-6.35-13.75-15.43-24.59-24.6-10.84-9.16-23.96-17.27-39.46-25.3-15.51-8.03-33.45-14.59-45.96-19.17-12.52-4.58-19.34-6.6-24.65-7.59-5.31-1-9.37-1.53-9.9-2.67-1.82-.19-.38-1.56,32.83-22.52Z"/>
      <path class="cls-4" d="m420.5,415.31c3.62-8.61,9.37-23.06,17.93-32.23,8.55-9.17,19.64-13.63,33.87-9.85,14.22,3.78,31.32,15.23,42.01,24.81,10.69,9.58,15.53,17.03,24.89,23.76,9.36,6.73,23.81,12.49,38.34,15.43,14.53,2.95,29.41,3.65,38.85,7.58,9.44,3.92,13.45,11.07,13.4,22.87-.48,11.65-5.44,27.81-15.36,40.73-9.93,12.92-25.24,22.46-46.15,26.64-20.92,4.18-48.43,3.11-74.56-6.92-26.13-10.03-50.77-28.02-64.02-46.1-13.25-18.09-14.44-35.55-14.57-45.53.13-9.41,1.61-12.18,5.39-21.21Z"/>
      <g>
        <path class="cls-5" d="m501.22,388.54c-10.89,22.03-22.35,44.33-25.11,57.03-3.17,12.56,2.21,15.94,9.42,19.52,7.2,3.58,17.06,7.66,23.74,10.1,6.68,2.44,10.17,3.24,14.04.4,3.88-2.84,7.87-9.89,11.91-18.35,4.04-8.46,8.42-19.15,9.57-24.88,1.15-5.73-1.2-7.06-5.45-10.98-4.4-3.5-10.27-9.43-14.51-13.35-4.24-3.92-6.29-6.08-10-8.86-3.56-3.19-8.38-6.85-13.61-10.65Z"/>
        <path class="cls-5" d="m590.24,440c-4.47,18.7-8.79,36.99-13.55,46.12-4.76,9.14-9.24,8.45-15.23,6.73-6.15-1.3-13.66-4.05-19.08-6.03s-7.77-3.31-8.38-6.85c-.6-3.53.28-9.83,3.64-19.01,2.94-9.33,8.08-22.11,11.2-28.06,2.4-5.27,3.23-4.97,5.85-3.06,2.77,1.48,7.66,2.33,12.67,4.16,4.59,1.68,7.24,2.18,11.15,3.13,5.01,1.83,8.91,2.79,11.72,2.87Z"/>
      </g>
      <path class="cls-1" d="m420.5,415.31c3.62-8.61,9.37-23.06,17.93-32.23,8.55-9.17,19.64-13.63,33.87-9.85,14.22,3.78,31.32,15.23,42.01,24.81,10.69,9.58,15.53,17.03,24.89,23.76,9.36,6.73,23.81,12.49,38.34,15.43,14.53,2.95,29.41,3.65,38.85,7.58,9.44,3.92,13.45,11.07,13.4,22.87-.48,11.65-5.44,27.81-15.36,40.73-9.93,12.92-25.24,22.46-46.15,26.64-20.92,4.18-48.43,3.11-74.56-6.92-26.13-10.03-50.77-28.02-64.02-46.1-13.25-18.09-14.44-35.55-14.57-45.53.13-9.41,1.61-12.18,5.39-21.21Z"/>
      <g>
        <path class="cls-3" d="m193.39,557.88c11.88-2.75,33.32-.59,49.13,6.61,16.23,7.35,26.42,19.59,28.79,29.92,1.8,10.59-4.62,19.12-15.63,20.77-11.01,1.65-26.44-3.99-40.28-11.42-13.84-7.42-26.08-16.63-30.89-25.48-4.8-8.85-2.74-17.08,8.88-20.4Z"/>
        <path class="cls-3" d="m131.34,536.15c8,5.29,16.07,12.97,18.79,21.06,2.72,8.09-.48,16.85-9.14,19.83-8.66,2.98-23.34.45-33.2-3.62-9.86-4.08-15.73-10.01-19.48-16.58-3.59-6.99-5.48-14.77-1.67-20,3.8-5.23,12.73-7.64,21.3-7.82,8.16-.33,15.82,2,23.4,7.14Z"/>
        <path class="cls-3" d="m187.15,633.17c3.31-2.58,14.2-5.21,24.45-4.78,10.25.43,19.01,3.64,26.81,10.75,7.81,7.11,14.81,17.71,16.05,23.37,1.81,5.39-2.14,5.84-9.38,3.67-7.24-2.18-17.37-6.82-26.51-11.58-9.14-4.76-17.59-8.8-23.81-12.49-6.63-3.84-10.92-6.36-7.61-8.93Z"/>
        <path class="cls-3" d="m345.1,633.2c-14.88-.71-28.17,7.2-31.64,15.39-3.31,7.77,3.2,15.83,16.85,19.88,13.24,3.89,32.9,4.46,44.36,1.55,11.47-2.9,14.48-9.84,7.96-17.9-6.51-8.06-22.66-18.22-37.54-18.92Z"/>
        <path class="cls-3" d="m314.35,593.11c-6.49.94-10.75,7.42-7.5,11.45,3.1,4.45,13.99,7.01,20.64,5.65,6.49-.94,8.59-5.37,5.48-9.82-3.67-4.18-11.98-8.63-18.62-7.28Z"/>
        <path class="cls-3" d="m79.77,487.03c8.49,7.83,19.98,13.92,29.08,14.89,9.11.96,14.84-3.09,12.35-9.2-2.49-6.11-12.96-13.72-24.6-19.4-11.22-5.52-23.21-8.96-26.67-5.97-3.46,2.99,1.35,11.84,9.83,19.67Z"/>
        <path class="cls-3" d="m444.42,678.49c-9.33-2.94-22.54-3.04-31.2-.05-8.51,2.57-12.04,8.37-10.19,12.35,1.85,3.99,9.36,6.73,17.48,7.81,8.27.66,17.99-.05,25.05-1.25,7.06-1.2,12.3-2.6,12.27-6.39.54-4.06-4.08-9.53-13.41-12.47Z"/>
        <path class="cls-3" d="m575.37,145.59c-5.09.98-11.92,4.15-12.73,7.64-.8,3.49,3.75,6.57,9.85,9.28,6.11,2.7,14.18,5.19,19.69,4.36,5.5-.83,8.7-4.39,7.68-8.07-1.02-3.68-6.4-7.07-11.1-9.73-4.7-2.66-8.3-4.45-13.39-3.48Z"/>
        <path class="cls-3" d="m538.49,162.38c-3.31,2.58-7.37,7.24-6.51,11.34.87,4.1,6.4,7.07,11.45,7.5,5.05.43,9.19-1.84,9.31-6.06s-3.51-9.8-6.24-12.69c-2.73-2.89-4.7-2.66-8.01-.09Z"/>
        <path class="cls-3" d="m675.79,142.57c-9.44-3.92-19.2-1.82-23.04,4.82-3.84,6.63-1.25,18.94,6.78,28.02,8.45,9.24,22.74,15.41,33.37,17.4,10.62,1.99,18.41.11,19.55-5.62,1-5.31-4.64-14.47-11.84-23.25-6.78-8.63-15.23-17.86-24.82-21.37Z"/>
        <path class="cls-3" d="m680.29,220.83c-8.65-2.22-14.76.28-13.22,5.1,1.7,4.41,11.63,10.87,20.28,13.09,8.65,2.22,16.01.18,14.47-4.64-1.7-4.41-12.88-11.33-21.53-13.55Z"/>
        <path class="cls-3" d="m747.74,260.15c-6.56-1.45-17.57.2-18.94,3.95-1.79,3.6,6.06,9.31,12.47,11.18,6.56,1.45,12.52-.62,13.9-4.38,1.94-4.02-.44-9.15-7.42-10.75Z"/>
        <path class="cls-3" d="m748.7,207.06c-6.27,2.91-17.74,11.01-18.89,16.74-1.3,6.15,7.99,10.49,15.23,12.66,7.24,2.18,13.28,2.49,17.68.79,4.67-1.13,8.13-4.12,8.36-7.35.23-3.23-2.19-6.95-4.61-10.67-2.84-3.88-5.68-7.75-7.99-10.49-2.31-2.74-3.52-4.6-9.79-1.69Z"/>
      </g>
      <path class="cls-2" d="m413.52,295.94c3.16-7.36,10.13-19.94,19.48-27.41,9.35-7.46,20.66-9.95,31.28-7.95,10.05,2.26,18.85,9.25,19.62,21.36,1.19,12.26-5.06,29.36-9.1,37.82-4.19,8.87-5.75,9.25-7.57,9.06-1.82-.19-3.91-.96-2.57-8.51,1.34-7.55,6.53-21.73,7.91-30.69,1.53-9.37-1.15-13.66-4.45-16.29-3.3-2.62-6.94-3.01-11.3-2.71-4.36.3-9.19,1.84-13.9,4.38-4.71,2.53-9.31,6.06-13.68,11.55-4.37,5.5-8.37,12.55-11.3,16.68-2.78,3.71-3.92,4.24-5.02,3.37-1.52-1.03-2.58-3.31.59-10.66Z"/>
      <path class="cls-2" d="m636.75,386.53c1.91-7.81,7.21-21.01,15.61-29.76,8.4-8.75,19.34-12.79,29.85-11.79,10.09.85,19.76,6.75,22.51,18.63,2.75,11.88-.85,29.49-3.78,38.82-2.94,9.33-4.08,9.86-6.05,10.08-1.97.22-4.06-.54-3.71-7.98.35-7.44,3.87-22.23,3.58-31.8-.29-9.56-3.13-13.44-6.58-15.65-3.45-2.21-7.24-2.18-11.76-1.46-4.1.87-8.66,2.98-13.1,6.09s-8.36,7.35-12.47,13.41c-3.54,5.8-6.85,13.57-8.95,18.01s-3.23,4.97-4.33,4.09c-1.52-1.03-2.73-2.89-.82-10.7Z"/>
    </g>
  </g>
</svg>