<?xml version="1.0" encoding="UTF-8"?>
<svg id="Layer_2" data-name="Layer 2" xmlns="http://www.w3.org/2000/svg" viewBox="0 0 884.74 796.45">
  <defs>
    <style>
      .cls-1 {
        fill: none;
        stroke: #1c0f16;
        stroke-miterlimit: 2.61;
        stroke-width: 2.3px;
      }

      .cls-2 {
        fill: #1c0f16;
      }

      .cls-2, .cls-3, .cls-4, .cls-5, .cls-6 {
        fill-rule: evenodd;
        stroke-width: 0px;
      }

      .cls-3 {
        fill: #add7e5;
      }

      .cls-4 {
        fill: #b092c3;
      }

      .cls-5 {
        fill: #fdebd8;
      }

      .cls-6 {
        fill: #8cbaca;
      }
    </style>
  </defs>
  <g id="Layer_1-2" data-name="Layer 1">
    <g id="Layer_1-3" data-name="Layer 1">
      <g>
        <path class="cls-4" d="m696.23,482.5c52.1-17.71,104.54-35.19,132.32-44.09,27.78-8.9,30.9-9.22,36.35,18.65,5.67,27.54,13.67,83.28,17.45,111.48,3.78,28.2,3.55,28.54-4.02,26.83-7.57-1.7-22.26-5.78-33.8-15.97-11.54-10.19-19.15-26.93-23.35-35.08-4.2-8.15-4.42-7.82-7.02-.36-2.6,7.45-7.56,22.02-14.05,28.79-6.49,6.77-13.73,5.29-22.16-2.33-8.43-7.61-17.73-21.13-23.39-26.39-5.43-5.59-6.56-2.48-10.59.62-4.02,3.1-10.73,7.31-16.52,7.28-5.68.53-10.35-2.61-15.01-7.2-4.66-4.59-9.64-10.85-12.29-16.99-2.65-6.14-2.62-11.93-2.49-17.17.13-5.24-.51-10.03-.83-14.6.47-5.01-.07-9.25-.61-13.48Z"/>
        <path class="cls-4" d="m200.64,167.84c-3.21-54.94-6.43-109.87-8.64-138.96-2.21-29.09-3.09-32.1-30.97-26.65-27.65,5.11-82.3,18.69-109.85,25.81-27.55,7.12-27.77,7.45-23.34,13.82,4.43,6.37,13.73,18.44,27.52,25.3,13.78,6.86,32.16,7.61,41.29,8.43,9.13.82,8.91,1.15,2.98,6.36-5.93,5.21-17.56,15.3-21.38,23.86-3.83,8.56.27,14.71,10.5,19.65,10.23,4.95,26.25,8.47,33.26,11.73,7,3.26,4.77,5.15,3.41,10.04-1.36,4.9-2.73,12.69-.86,17.82,1.65,5.47,6.31,8.61,12.32,11.19,6,2.59,13.68,4.85,20.37,4.99,6.68.14,12.04-2.06,16.84-4.16,5.13-1.87,9.48-3.3,13.83-4.73,4.24-1.99,8.59-3.42,12.72-4.51Z"/>
        <path class="cls-6" d="m61.57,378.78c-8.29,10.88-20.29,29.43-31.99,54-11.69,24.57-23.08,55.16-27.51,73.96-4.43,18.81-1.56,26.06,6.59,21.86,8.15-4.2,20.7-19.96,39.51-42.16,18.26-22.09,42.22-50.5,55.1-66.04,12.55-15.76,14.23-18.99,10.46-23.46-3.77-4.47-12.77-10.53-19.2-16.79-6.43-6.27-10.2-12.19-14.53-13.66-4.9-1.36-9.81,1.63-18.44,12.29Z"/>
        <path class="cls-6" d="m147.6,423.61c-8.29,10.88-20.29,29.43-31.99,54-11.69,24.57-23.08,55.16-27.51,73.96-4.43,18.81-1.56,26.06,6.59,21.86,8.15-4.2,20.7-19.96,39.51-42.16s42.22-50.5,55.1-66.04c12.55-15.76,14.23-18.99,10.46-23.46-3.77-4.47-12.77-10.53-19.2-16.79-6.43-6.27-10.2-12.19-14.53-13.66-4.9-1.36-10.14,1.4-18.44,12.29Z"/>
        <path class="cls-6" d="m511.42,684.45c-6.96,11.78-19.63,29.88-37.99,49.97-18.36,20.08-42.41,42.15-58.16,53.33-15.76,11.18-23.56,11.26-22.74,2.13.82-9.13,10.7-26.69,24.18-52.48,13.59-25.23,30.89-58.13,40.44-75.91,9.88-17.56,12.23-20.33,17.79-18.53,5.56,1.81,14.56,7.86,22.79,11.46,8.23,3.6,15.13,4.86,18.12,8.32,3.1,4.02,2.52,9.93-4.44,21.7Z"/>
        <path class="cls-6" d="m437.5,621.62c-6.96,11.78-19.63,29.88-37.99,49.97-18.36,20.08-42.41,42.15-58.16,53.33-15.76,11.18-23.56,11.26-22.74,2.13.82-9.13,10.7-26.69,24.18-52.48,13.48-25.79,30.89-58.13,40.44-75.91,9.88-17.56,12.23-20.33,17.79-18.53,5.56,1.81,14.56,7.86,22.79,11.46,8.23,3.6,15.13,4.86,18.12,8.32,3.1,4.02,2.52,9.93-4.44,21.7Z"/>
        <path class="cls-3" d="m26.25,279.48c22.77-34.55,72.57-86.24,146.32-113.1,73.76-26.86,171.69-29.21,264.44,7.06,92.53,36.61,179.54,111.64,226.11,187.04,46.79,75.07,53.04,149.96,41.16,216.53-12.21,66.34-42.55,124.36-61.27,151.46-18.72,27.1-24.95,23.4-89.84-13.99-64.9-37.38-188.25-107.33-288.11-174.05-100.08-66.39-176.79-128.67-217.06-168.84-40.49-39.84-44.53-57.57-21.77-92.12Z"/>
        <path class="cls-5" d="m163.39,329.65c17.97-7.27,35.71-14.21,46.97-15.84,10.93-1.85,15.37,1.63,13.43,12.42-1.94,10.8-10.37,28.36-15.76,36.36-5.38,8-7.49,6.09-12.37,1.84-4.88-4.25-12.21-10.64-17.98-16.46-5.77-5.82-9.97-12.52-14.29-18.33Z"/>
        <path class="cls-5" d="m467.49,539.65c7.39-9.55,23.18-26.52,33.47-36.06,10.29-9.54,15.09-11.63,19.53-8.16,4.44,3.47,7.63,12.4,6.67,28.21-1.29,15.59-7.07,37.85-12.13,47.52-5.06,9.67-9.16,6.42-15.49,2.16-6.56-3.93-15.67-9.09-22.45-12.69-6.78-3.59-11-5.95-13.67-7.75-2.55-2.68-3.43-4.25,4.07-13.24Z"/>
        <path class="cls-4" d="m437.15,166.76c7.49-6.09,20.79-16.51,38.76-23.78,17.97-7.27,40.15-10.74,58.52-7.1s33.02,14.96,44.01,25.26c10.76,10.63,17.96,20.8,21.46,34.3,3.28,13.83,3.1,30.65,2.05,41.56-1.38,10.69-3.41,15.14-2.86,16.48.78,1.01,4.68-1.2,13.59,1.4,8.9,2.6,23.35,9.91,32.78,18.19,9.43,8.29,13.62,17.88,15.92,28.14,2.29,10.26,2.03,20.73,3.67,26.2,1.65,5.47,4.32,5.81,10.77,9.18,6.45,3.37,16.33,10.99,20.52,20.59,4.19,9.6,2.13,21.29-.13,30.41-2.27,9.13-4.41,15.91-6.43,18.91s-4.13,2.54-11.11-6.51c-6.98-9.05-18.82-26.71-36.44-48.73-17.62-22.02-40.67-48.19-69.08-73.61-28.41-25.41-62.17-50.07-86.94-65.78-24.77-15.71-41.01-23.24-49.12-27.73-8.11-4.49-8.55-6.72-8.32-8.5-.78-1.01.9-2.78,8.39-8.88Z"/>
        <path class="cls-1" d="m121.63,247.81c-.95,12.92-2.12,26.17,8.82,46.61,10.94,20.44,34.1,48.61,107.61,103.41,73.51,54.8,197.93,136.11,265.37,177.63,67.44,41.52,78.24,43.46,87.05,41.16,8.81-2.3,15.86-9.18,22.68-15.72"/>
        <g>
          <path class="cls-5" d="m255.51,306.44c28.99,19.51,68.57,11.78,88.09-17.22,19.51-28.99,11.22-68.46-17.44-87.75-28.66-19.29-68.57-11.78-88.09,17.22-19.51,28.99-11.55,68.24,17.44,87.75Z"/>
          <path class="cls-2" d="m263.55,276.51c16.66,11.21,39.19,6.52,50.18-9.81,10.99-16.33,6.52-39.19-9.81-50.18-16.33-10.99-39.19-6.52-50.18,9.81-10.99,16.33-6.86,38.96,9.81,50.18Z"/>
          <path class="cls-5" d="m397.91,401.31c28.99,19.51,68.57,11.78,88.09-17.22,19.51-28.99,11.78-68.57-17.22-88.09-28.99-19.51-68.57-11.78-88.09,17.22-19.51,28.99-11.78,68.57,17.22,88.09Z"/>
          <path class="cls-2" d="m412.94,378.99c16.66,11.21,39.19,6.52,50.18-9.81s6.52-39.19-9.81-50.18c-16.33-10.99-39.19-6.52-50.18,9.81-10.99,16.33-6.52,39.19,9.81,50.18Z"/>
          <path class="cls-5" d="m541.02,489.39c28.99,19.51,68.57,11.78,88.09-17.22,19.51-28.99,11.78-68.57-17.22-88.09-28.99-19.51-68.57-11.78-88.09,17.22-19.51,28.99-11.78,68.57,17.22,88.09Z"/>
          <path class="cls-2" d="m567.57,481.6c16.66,11.21,39.19,6.52,50.18-9.81,10.99-16.33,6.52-39.19-9.81-50.18-16.33-10.99-39.19-6.52-50.18,9.81-10.99,16.33-6.86,38.96,9.81,50.18Z"/>
        </g>
        <path class="cls-6" d="m670.78,672.11c-2.33-1.57-8.01-2.49-13.71.94-5.7,3.43-11.41,11.2-14,17.21-2.59,6-1.83,9.91-.28,13.37,1.54,3.46,3.76,5.92,5.43,7.04s3.34.79,6.36-2.98c2.69-4,7.07-11.22,9.77-16.67,2.92-5.78,4.83-9.34,6.29-12.23,1.46-2.89,2.47-5.11.14-6.68Z"/>
        <path class="cls-6" d="m614.69,684.23c-3.45-1.35-8.58.52-9.6,4.19-1.35,3.45,1.08,8.47,4.75,9.49s8.14-1.3,9.16-4.97c1.13-3.11-1.19-7.58-4.31-8.71Z"/>
        <path class="cls-6" d="m618.24,714.21c-2.89-1.46-6.68-1.59-8.58.52-1.68,1.78-.92,5.68,1.3,8.14,2.22,2.46,5.89,3.48,8.45,3.27,2.56-.21,3.68-1.88,3.47-4.44-.54-2.79-2.09-6.25-4.65-7.48Z"/>
        <path class="cls-6" d="m16.78,303.61c3.23.24,8.34,2.71,10.78,6.29,2.44,3.58,1.97,8.59.62,12.03-1.35,3.45-4.04,6-6.38,7.32-2.35,1.33-4.46.87-6.01-1.14-1.55-2.01-2.65-6.14-3.08-9.82-.43-3.68-.63-7.69-.29-10.36.57-3.01,1.36-4.9,4.36-4.33Z"/>
        <path class="cls-6" d="m50.76,329.38c-3.01-.57-6.68-.14-6.92,3.09-.24,3.23,3.19,8.93,6.08,11.84,2.88,2.91,5.11,2.47,6.34,1.36,1.23-1.11,1.13-3.11,1.25-5.45-.1-2.01.35-4.12-.87-5.91-.66-1.9-2.77-3.8-5.88-4.93Z"/>
        <path class="cls-6" d="m30.76,342.55c1.01-.78,3.68-.43,4.9,1.36,1.11,1.23.76,3.9-.24,4.68-1.01.78-2.79.54-4.01-1.24-1.44-1.45-1.88-3.68-.65-4.79Z"/>
        <path class="cls-6" d="m66.06,372.12c2.12-.99,5.58-1.09,8.36-.19,2.78.9,5.78,2.92,7.22,5.82,1.44,2.9,2.09,6.25,1.08,8.47s-3.8,2.77-7.03,2.53c-3.23-.24-6.79-2.15-9-4.61-2.44-2.13-3.99-5.59-4.09-7.59-.1-2.01,1.35-3.45,3.47-4.44Z"/>
        <path class="cls-6" d="m114.88,390.94c-2.67-.35-5.24-.13-6.36,1.53-.9,1.33.21,4.01,1.76,6.02,1.55,2.01,4.11,3.25,5.66,3.81,1.89.79,3.01.57,3.68-.43s.9-2.78,1.47-4.34c.34-1.22,1.35-2,.24-3.23-1.11-1.23-3.77-3.02-6.45-3.37Z"/>
        <path class="cls-6" d="m128.6,438.9c1.68-1.78,5.7-4.88,9.38-5.31,3.68-.43,6.12,1.7,7.89,4.82,1.99,2.79,2.65,6.14,2.86,8.7.21,2.56.21,4.01-1.8,4.11-1.67.33-5.01-.47-7.79-1.37-2.56-1.24-4.56-2.58-6.22-3.7s-2.77-2.35-3.77-3.02-1.88-2.24-.54-4.24Z"/>
      </g>
    </g>
  </g>
</svg>