<?xml version="1.0" encoding="UTF-8"?>
<svg id="Layer_2" data-name="Layer 2" xmlns="http://www.w3.org/2000/svg" viewBox="0 0 976.21 719.14">
  <defs>
    <style>
      .cls-1 {
        fill: none;
      }

      .cls-1, .cls-2, .cls-3, .cls-4, .cls-5, .cls-6, .cls-7, .cls-8 {
        stroke-width: 0px;
      }

      .cls-2, .cls-3, .cls-4, .cls-5, .cls-6 {
        fill-rule: evenodd;
      }

      .cls-2, .cls-7 {
        fill: #1c0f16;
      }

      .cls-3 {
        fill: #2785c7;
      }

      .cls-4 {
        fill: #cf3928;
      }

      .cls-5 {
        fill: #ea98b1;
      }

      .cls-6, .cls-8 {
        fill: #fdebd8;
      }
    </style>
  </defs>
  <g id="Layer_1-2" data-name="Layer 1">
    <g id="Layer_1-3" data-name="Layer 1">
      <g>
        <path class="cls-5" d="m502.46,223.59c-.4-19.56-1.2-53.9-.4-70.67.4-16.77,2-16.37,8.78-16.37s18.77,0,24.75-1.2c5.99-.8,5.99-2.4,5.19,15.97-.8,18.37-2,57.1-2.79,77.46-.8,20.36-1.2,22.36-2,24.75-10.78-.4-21.96-.4-32.74-.8-.4-4.79-.4-9.58-.8-29.15Z"/>
        <path class="cls-5" d="m687.32,220.4c-.4-19.56-1.2-53.9-.4-70.67.8-16.77,2-16.37,8.78-16.37s18.77,0,24.75-1.2c5.99-.8,5.99-2.4,5.19,15.97-.8,18.37-2,57.1-2.79,77.46-.8,20.36-1.2,22.36-2,24.75-10.78-.4-21.96-.4-32.74-.8-.4-4.79-.4-9.58-.8-29.15Z"/>
        <path class="cls-5" d="m308.01,228.78c-2-19.56-5.19-53.5-5.99-70.67-.8-16.77.8-16.37,7.59-16.77,6.79-.4,18.77-1.6,24.75-2.79,5.99-1.2,5.59-2.79,6.39,15.57.8,18.37,2.4,57.1,3.19,77.46.8,20.36.4,22.36,0,24.75-10.78.4-21.96,1.2-32.74,1.6-.8-4.79-1.2-9.58-3.19-29.15Z"/>
      </g>
      <g>
        <path class="cls-5" d="m232.15,461.16c-10.38-9.98-29.55-19.96-49.91-40.33-19.96-19.96-40.73-50.31-51.51-66.68-10.78-16.37-11.18-19.17-13.18-25.15-2-5.99-4.79-15.57-2.79-23.96,2.4-8.78,9.98-16.37,13.97-28.75,3.99-12.38,3.99-28.75.4-37.93-3.59-8.78-10.78-9.98-18.37-7.99-7.59,2-15.57,6.39-19.17,10.38-3.99,3.99-3.99,7.19-8.78,2-4.79-4.79-13.97-17.97-23.96-25.15-9.98-7.19-20.36-7.99-26.75-3.59-6.39,4.39-9.18,14.37-7.99,24.75,1.2,10.38,6.39,21.56,5.99,26.75-.4,5.59-6.79,5.59-13.97,7.59s-14.77,6.39-15.97,13.97c-1.2,7.99,3.99,19.17,9.98,25.15,5.99,5.99,13.58,6.39,21.56,6.39s16.77-.4,23.96-.4,12.38.4,19.17,8.78c6.79,7.99,15.17,23.56,27.55,45.12,12.38,21.56,28.35,48.31,44.72,67.88,16.37,19.56,33.14,31.54,51.51,42.32,18.37,10.78,37.93,19.96,46.32,21.56,8.38,1.2,4.79-5.59,2-13.97-2.4-7.99-4.39-18.37-14.77-28.75Z"/>
        <path class="cls-5" d="m821.88,384.5c7.99,6.39,23.96,10.78,37.53,23.96,13.58,13.18,24.36,35.14,31.14,53.9,6.79,18.77,9.58,34.34,6.39,45.52-3.19,10.78-11.98,17.17-15.57,23.96-3.59,6.79-1.2,13.97,3.19,17.57,4.39,3.19,11.18,2.79,15.97-.4,4.79-3.19,7.19-9.58,7.19-5.59-.4,3.99-3.19,17.97-.4,27.95,3.19,9.98,12.38,15.57,19.96,15.97,7.59.4,13.18-3.99,15.57-11.58,2-7.19.4-17.17,2.79-17.57,2-.4,7.99,8.38,13.97,10.78,6.39,2.4,13.18-2,15.57-8.38,2.4-6.39.4-15.57-4.39-23.96-4.79-8.38-11.98-16.77-17.17-21.16-5.19-3.99-8.38-3.99-13.18-14.77-4.79-10.78-11.58-31.94-19.17-50.71-7.59-18.77-15.97-35.14-29.55-50.71-13.97-15.97-33.14-31.54-47.11-42.32-13.97-10.78-22.76-17.17-27.15-15.57-3.99,1.6-3.59,10.78-3.19,19.96-.8,7.99-.4,16.37,7.59,23.16Z"/>
      </g>
      <g>
        <path class="cls-5" d="m451.75,557.39c.4,37.53.4,74.66.8,93.03.4,18.37.8,17.97-12.78,22.76-13.58,4.79-41.92,14.77-49.11,23.16-7.19,8.78,6.39,15.97,28.75,19.17s54.7,2.79,69.47,2c14.77-.8,12.78-2,10.78-28.35-2-26.35-3.19-77.86-5.99-103.81-2.79-25.95-6.39-25.95-9.98-27.55-3.59-1.6-7.19-4.79-12.78-5.19-5.59-.4-11.98,2.4-19.17,4.79Z"/>
        <path class="cls-5" d="m612.26,556.19c2.79,37.13,5.59,74.26,6.79,93.03,1.2,18.37.4,17.97,14.77,21.56,13.97,3.59,43.12,11.18,51.11,19.17,7.99,7.99-4.79,16.37-27.15,21.56-22.36,5.19-53.9,7.19-69.07,7.59-14.77.4-12.78-.8-13.18-27.15-.4-26.35-3.19-77.86-2.4-103.81.8-25.95,3.99-26.35,7.59-27.95,3.59-2,6.79-5.19,11.98-5.99,5.19-.8,12.38,0,19.56,2Z"/>
      </g>
      <path class="cls-3" d="m233.35,505.48c-13.18-50.31-27.15-138.55-17.17-189.65,9.98-51.11,43.92-65.08,144.94-72.67,101.02-7.19,269.51-7.99,360.14,0,90.63,7.99,103.01,23.96,107.8,77.86,4.79,53.9,1.6,144.94-15.97,193.65-17.57,48.71-49.11,55.1-142.14,59.09-93.03,3.99-246.75,5.59-329.8,0-82.65-5.19-94.63-17.97-107.8-68.28Z"/>
      <path class="cls-5" d="m255.31,386.1c3.99-14.77,11.98-33.54,37.93-43.52,25.95-9.98,70.27-10.78,107.8-7.19,37.13,3.59,67.48,11.98,93.03,15.97,25.15,3.99,45.52,3.19,74.66-6.39,29.15-9.58,67.48-28.35,104.21-35.14,36.73-6.79,72.27-1.6,95.83,16.37,23.56,17.97,35.54,48.71,33.94,77.86-2,29.15-17.57,56.7-68.67,81.45-51.11,24.75-137.75,46.71-217.2,45.52-79.46-1.2-152.12-25.95-195.24-47.51-43.12-21.96-57.1-40.73-63.88-56.3-6.79-15.17-6.39-26.35-2.4-41.13Z"/>
      <g>
        <path class="cls-4" d="m329.17,461.16c11.18-10.38,26.75-15.97,63.48-23.56,36.73-7.59,85.44-3.19,113.79.4,28.35,3.59,36.73,6.79,59.09,2.79,22.36-3.99,58.29-14.77,89.84-13.97,31.54.8,59.49,13.97,76.26,25.95,16.77,11.98,19.56,15.17,19.96,21.16.4,5.99-3.19,4.79-16.37,11.98-11.58,6.39-37.53,15.97-67.48,25.15-29.95,9.18-63.88,16.37-107.01,19.17-43.12,2.79-78.66.4-116.99-6.79-38.33-7.19-69.87-18.77-89.04-25.55-19.17-7.19-36.33-15.17-41.13-18.37-4.79-2.8,4.39-7.99,15.57-18.37Z"/>
        <path class="cls-6" d="m393.06,346.17c-1.2,9.58.8,27.15,8.38,36.33,7.59,9.58,22.36,10.38,34.34,9.98,12.38-.4,22.36-2,27.15-9.98,4.79-7.99,4.79-22.76,1.6-30.74s-9.98-9.18-20.76-11.18c-11.18-2-33.54-5.19-42.72-5.99s-6.79,2-7.99,11.58Z"/>
        <path class="cls-6" d="m512.44,360.14c-.8,7.59,1.6,23.16,3.19,31.14,1.6,7.99,2.79,8.38,11.98,9.18,9.58.4,27.15,1.2,35.93-1.2,8.78-2.4,8.78-7.59,8.38-17.17-.8-9.58-2-23.56-4.39-29.95-2.4-6.39-6.39-5.19-11.98-3.99-5.59,1.2-13.18,2.79-19.56,3.59-6.39.8-10.78,1.2-15.17,1.2s-7.59-.4-8.38,7.19Z"/>
        <path class="cls-6" d="m603.08,338.18c3.59,9.98,5.59,29.55,12.38,38.33,6.39,8.78,14.77,9.58,24.75,7.99,9.58-1.2,20.76-4.39,22.76-14.77,2.4-9.98-3.99-27.55-8.38-37.93-4.39-10.78-4.79-15.17-9.58-15.57-4.39-.4-13.18,3.19-20.76,6.79-7.59,3.19-23.96,6.79-21.16,15.17Z"/>
      </g>
      <path class="cls-1" d="m255.31,386.1c3.99-14.77,11.98-33.54,37.93-43.52,25.95-9.98,70.27-10.78,107.8-7.19,37.13,3.59,67.48,11.98,93.03,15.97,25.15,3.99,45.52,3.19,74.66-6.39,29.15-9.58,67.48-28.35,104.21-35.14,36.73-6.79,72.27-1.6,95.83,16.37,23.56,17.97,35.54,48.71,33.94,77.86-2,29.15-17.57,56.7-68.67,81.45-51.11,24.75-137.75,46.71-217.2,45.52-79.46-1.2-152.12-25.95-195.24-47.51-43.12-21.96-57.1-40.73-63.88-56.3-6.79-15.17-6.39-26.35-2.4-41.13Z"/>
      <path class="cls-6" d="m520.43,151.32c40.73,0,73.87-33.14,73.87-73.87S561.15,3.59,520.43,3.59s-73.87,33.14-73.87,73.87,33.14,73.87,73.87,73.87Z"/>
      <path class="cls-2" d="m522.42,118.18c25.15,0,45.52-20.36,45.52-45.52s-20.36-45.52-45.52-45.52-45.52,20.36-45.52,45.52,20.36,45.52,45.52,45.52Z"/>
      <path class="cls-6" d="m705.29,147.73c40.73,0,73.87-33.14,73.87-73.87S746.02,0,705.29,0s-73.87,33.14-73.87,73.87,33.14,73.87,73.87,73.87Z"/>
      <path class="cls-2" d="m707.29,114.99c25.15,0,45.52-20.36,45.52-45.52s-20.36-45.52-45.52-45.52-45.52,20.36-45.52,45.52,20.36,45.52,45.52,45.52Z"/>
      <circle class="cls-8" cx="315.2" cy="81.45" r="73.87"/>
      <circle class="cls-7" cx="316.4" cy="76.66" r="45.52"/>
    </g>
  </g>
</svg>