<?xml version="1.0" encoding="UTF-8"?>
<svg id="Layer_2" data-name="Layer 2" xmlns="http://www.w3.org/2000/svg" viewBox="0 0 841.33 648.07">
  <defs>
    <style>
      .cls-1 {
        fill: none;
      }

      .cls-1, .cls-2, .cls-3, .cls-4, .cls-5, .cls-6, .cls-7 {
        stroke-width: 0px;
      }

      .cls-2 {
        fill: #1c0f16;
      }

      .cls-2, .cls-3, .cls-4, .cls-5, .cls-6 {
        fill-rule: evenodd;
      }

      .cls-3 {
        fill: #b092c3;
      }

      .cls-4, .cls-7 {
        fill: #f0a1c3;
      }

      .cls-5 {
        fill: #fddc51;
      }

      .cls-6 {
        fill: #fdebd8;
      }
    </style>
  </defs>
  <g id="Layer_1-2" data-name="Layer 1">
    <g id="Layer_1-3" data-name="Layer 1">
      <path class="cls-3" d="m352.17,115.88c-14.7-8.34-31.38-25.02-53.62-45.28-22.24-20.26-49.65-43.69-83.4-50.44-33.76-6.75-74.27,3.18-105.25,46.47-31.38,43.29-53.22,119.55-71.09,212.88S7.43,483.26,2.27,540.05c-5.56,56.79-3.18,59.57,33.36,71.09,36.14,11.52,106.44,31.38,151.32,33.76,44.48,2.38,63.94-12.71,77.84-37.73,13.9-25.02,22.64-59.57,28.6-77.05,5.96-17.48,9.53-17.87,46.47-16.28,36.94,1.59,107.63,5.56,142.98,9.13,35.35,3.57,35.35,7.15,45.28,27.4,9.93,20.26,29.39,57.99,45.28,78.24,15.49,20.26,27.01,23.83,72.28,14.7,45.28-8.74,123.92-30.18,163.63-40.91,39.72-10.72,40.91-11.12,12.31-93.73-28.6-82.61-86.58-247.43-133.05-342.36-46.47-94.92-81.02-120.34-109.62-128.28-28.99-7.55-52.03,2.38-68.71,21.45-17.08,19.06-28.2,46.87-46.47,59.18-18.67,12.31-44.48,8.74-63.55,7.15-21.05-1.59-33.36-1.59-48.06-9.93Z"/>
      <path class="cls-1" d="m256.46,355.77c-1.19-14.3,4.77-13.5,54.41-7.15,50.04,6.75,143.77,19.46,191.83,25.82,48.06,6.35,49.65,6.35,40.91,22.24-8.74,15.89-28.6,47.66-65.13,62.35-36.54,14.7-90.16,12.71-126.7,4.77-36.54-7.55-56.79-21.05-71.09-42.5-14.3-21.45-23.04-51.23-24.23-65.53Z"/>
      <g>
        <path class="cls-5" d="m118.24,155.2c2.78-6.75,4.77-19.46,8.74-31.38,3.97-12.31,9.53-23.83,16.28-27.4,6.35-3.97,13.5,0,15.89,8.74,1.99,8.74-.79,22.64-5.16,34.95-4.37,12.31-10.72,22.24-10.72,25.42.4,3.18,7.15,0,18.67-.4,11.91-.4,28.6,2.78,38.52,6.35,9.93,3.97,13.5,8.74,11.52,12.31-1.99,3.97-9.13,6.75-21.45,7.55-12.31.79-30.18,0-40.11-.4-9.93-.4-11.91.4-11.91,8.74s1.99,24.62,1.59,37.33c-.4,12.31-2.78,21.05-7.15,23.83-4.37,2.78-10.72,0-15.49-8.74-4.77-8.74-8.34-23.04-9.93-33.76s-2.38-17.87-4.37-19.06c-1.99-1.19-5.16,4.37-13.5,9.53-8.34,5.16-21.84,10.72-33.76,12.71-11.91,1.99-22.64,1.19-28.99-1.99-6.35-3.18-8.74-8.34-4.77-13.11,3.97-4.77,14.7-9.13,27.8-12.71,13.11-3.57,28.2-6.35,34.55-8.74,6.35-1.99,3.18-3.57-3.57-8.74-7.15-5.16-17.87-14.3-26.21-24.23-8.34-9.93-13.5-20.26-14.3-27.4-.79-7.15,2.38-10.33,9.13-9.93s16.68,3.97,25.82,11.52c8.74,7.55,16.68,18.67,22.24,25.02,5.56,6.75,8.74,9.13,12.31,9.93,2.38,1.19,5.56.79,8.34-5.96Z"/>
        <path class="cls-5" d="m202.84,71.4c5.96-1.99,15.49-7.55,25.42-11.12,9.93-3.97,20.65-6.35,26.61-4.37,5.96,1.99,7.55,9.13,2.78,15.09-4.77,6.35-15.49,11.91-25.82,15.49-10.33,3.57-20.26,4.77-22.24,6.75-1.99,1.99,3.57,4.37,10.33,12.31,6.35,7.55,13.9,20.26,16.68,28.99,2.78,8.74,1.59,13.5-1.99,14.3-3.57.79-9.53-2.38-16.68-9.93-7.55-7.55-16.28-19.86-21.45-26.61-5.16-6.75-6.35-7.55-11.91-3.18-5.56,4.37-15.09,14.7-23.43,21.05-8.34,6.75-15.09,9.53-19.46,8.34-4.37-1.19-5.56-6.75-2.78-14.7,3.18-7.94,10.72-17.87,16.68-25.02,5.96-7.15,10.33-11.12,9.93-13.11-.4-1.59-5.56-1.19-13.5-3.97-7.94-2.78-18.67-8.74-26.61-15.49-7.94-6.75-13.11-14.3-14.3-20.26-1.59-5.96.79-10.33,5.96-10.33s13.9,4.77,23.43,11.12c9.53,6.75,19.46,15.09,24.23,17.87,4.77,2.78,4.37.4,3.97-7.15-.4-7.55-.4-19.46,1.59-30.18,1.99-10.72,5.96-19.86,10.33-24.23,3.97-4.37,7.94-3.97,11.52.4,3.57,4.37,6.35,13.11,6.35,23.04s-3.18,20.65-4.77,28.2c-1.59,7.15-1.19,10.72,0,13.5,1.19,3.18,3.18,4.77,9.13,3.18Z"/>
      </g>
      <g>
        <path class="cls-4" d="m256.46,355.77c-1.19-14.3,4.77-13.5,54.41-7.15,50.04,6.75,143.77,19.46,191.83,25.82,48.06,6.35,49.65,6.35,40.91,22.24-8.74,15.89-28.6,47.66-65.13,62.35-36.54,14.7-90.16,12.71-126.7,4.77-36.54-7.55-56.79-21.05-71.09-42.5-14.3-21.45-23.04-51.23-24.23-65.53Z"/>
        <g>
          <path class="cls-4" d="m119.83,195.71c7.15,0,13.11-5.96,13.11-13.11s-5.96-13.11-13.11-13.11-13.11,5.96-13.11,13.11c0,7.15,5.96,13.11,13.11,13.11Z"/>
          <circle class="cls-7" cx="185.36" cy="87.28" r="11.12"/>
          <path class="cls-4" d="m5.05,579.37c3.18-9.53,10.33-25.82,22.24-32.96,11.91-7.15,28.2-5.96,40.91-.79,12.71,5.16,21.84,13.5,27.01,24.62,5.16,10.72,5.96,23.83,7.55,26.61,1.59,2.78,3.18-4.37,10.33-9.93,7.15-5.96,19.06-9.93,28.2-10.33,9.53-.4,15.89,3.57,21.45,9.13,5.56,5.56,9.13,12.71,12.31,14.3,3.18,1.59,6.35-1.99,9.93-6.35,3.57-3.97,7.94-8.34,17.08-9.93,9.13-1.59,23.04,0,32.57,3.97,9.53,3.97,14.7,10.72,17.48,16.68,2.78,5.96,2.78,11.12-1.19,16.68-3.97,5.56-11.91,11.52-21.05,16.68-9.13,5.16-19.86,9.53-36.54,9.13-16.68-.4-39.72-5.16-69.5-12.71-29.79-7.55-66.33-17.48-87.38-24.23-21.05-6.75-26.61-10.33-30.18-13.9-2.78-3.57-3.97-7.15-1.19-16.68Z"/>
          <path class="cls-4" d="m585.71,632.19c1.99-9.53,9.13-25.42,20.65-35.35,11.91-9.93,28.2-13.5,40.51-11.52,12.31,1.99,21.05,10.33,25.82,11.52,4.37,1.19,5.16-4.37,9.93-11.12,4.77-6.75,14.7-14.3,22.64-15.89,7.94-1.59,14.3,3.18,18.67,7.55,4.37,4.37,7.55,8.34,9.93,5.16,2.38-3.18,5.16-13.11,11.12-21.45,6.35-8.34,16.28-15.09,30.18-17.48,13.9-2.38,31.77-.4,42.5,3.18,10.72,3.57,14.7,8.74,17.08,14.7,2.38,6.35,3.57,13.5,2.38,19.46-1.19,5.96-4.77,10.33-13.9,15.49-9.53,5.16-24.62,11.52-57.19,19.86-32.57,8.34-82.21,18.67-114.38,24.62-32.17,5.96-46.87,6.75-56,5.56-8.34-1.19-11.91-4.77-9.93-14.3Z"/>
          <ellipse class="cls-7" cx="188.04" cy="305.64" rx="59.18" ry="28.2" transform="translate(-3.45 2.15) rotate(-.65)"/>
          <ellipse class="cls-7" cx="612.77" cy="304.4" rx="59.18" ry="28.2" transform="translate(-17.14 37.27) rotate(-3.44)"/>
        </g>
      </g>
      <g>
        <g>
          <path class="cls-6" d="m280.68,353.38c-.79,7.55,0,23.04,3.97,31.38,3.57,8.34,10.33,9.13,30.98,13.11,20.26,3.97,54.41,11.12,72.68,11.91,17.87.79,19.86-5.16,21.45-13.9,1.59-9.13,2.78-21.05,2.38-27.8-.4-6.75-2.78-7.94-18.67-10.33-15.89-1.99-45.67-5.16-64.34-7.15-18.67-1.99-25.82-2.78-30.98-3.57s-8.34-1.19-11.12-1.19-5.56,0-6.35,7.55Z"/>
          <path class="cls-6" d="m415.32,371.65c-.4,8.34,1.19,25.42,6.75,33.76,5.56,8.34,15.09,8.34,32.57,9.13,17.48.79,42.1,1.99,52.43-4.37,10.33-6.35,5.96-20.26,1.59-34.55-29.39-3.97-58.78-7.94-75.06-9.93-15.09-1.99-17.87-2.38-18.27,5.96Z"/>
        </g>
        <path class="cls-6" d="m302.92,274.35c30.58,0,55.6-25.02,55.6-55.6s-25.02-55.6-55.6-55.6-55.6,25.02-55.6,55.6c.4,30.58,25.02,55.6,55.6,55.6Z"/>
        <path class="cls-6" d="m468.14,294.21c30.58,0,55.6-25.02,55.6-55.6s-25.02-55.6-55.6-55.6-55.6,25.02-55.6,55.6,25.02,55.6,55.6,55.6Z"/>
      </g>
      <g>
        <path class="cls-2" d="m314.05,269.98c19.86,0,36.14-16.28,36.14-36.14s-16.28-36.14-36.14-36.14-36.14,16.28-36.14,36.14,16.28,36.14,36.14,36.14Z"/>
        <path class="cls-2" d="m479.27,289.84c19.86,0,36.14-16.28,36.14-36.14s-16.28-36.14-36.14-36.14-36.14,16.28-36.14,36.14c0,19.86,16.28,36.14,36.14,36.14Z"/>
      </g>
    </g>
  </g>
</svg>