<?xml version="1.0" encoding="UTF-8"?>
<svg id="Layer_2" data-name="Layer 2" xmlns="http://www.w3.org/2000/svg" viewBox="0 0 988.2 767.99">
  <defs>
    <style>
      .cls-1 {
        fill: none;
        stroke: #010101;
        stroke-miterlimit: 2.61;
        stroke-width: 2.3px;
      }

      .cls-2 {
        fill: #1c0f16;
      }

      .cls-2, .cls-3, .cls-4, .cls-5, .cls-6 {
        fill-rule: evenodd;
        stroke-width: 0px;
      }

      .cls-3 {
        fill: #add7e5;
      }

      .cls-4 {
        fill: #ea98b1;
      }

      .cls-5 {
        fill: #fddc51;
      }

      .cls-6 {
        fill: #fdebd8;
      }
    </style>
  </defs>
  <g id="Layer_1-2" data-name="Layer 1">
    <g id="Layer_1-3" data-name="Layer 1">
      <path class="cls-5" d="m608.4,284.29c15.11-17.15,50.63-47.36,81.25-85.33,30.21-37.97,55.12-83.7,68.18-111.46,12.66-27.76,13.47-37.15,22.05-34.3,8.57,2.86,25.72,18.37,57.16,33.48,31.44,15.11,77.98,30.21,102.07,41.64,24.5,11.84,26.95,20.01,21.64,33.07-5.31,12.66-18.78,29.8-37.15,41.24-18.37,11.43-42.46,17.15-62.88,17.96-20.41.41-37.56-4.08-46.54-6.53-8.98-2.04-10.21-1.63-9.39,4.9.41,6.53,2.86,18.78-7.35,29.8-10.21,11.02-32.25,21.23-49.81,24.5-17.56,3.27-30.21.41-37.56,3.27-7.35,2.86-8.57,11.84-18.78,20.82-9.8,8.98-27.76,17.96-42.05,21.23-14.29,3.27-24.91.41-31.85-2.04-6.94-2.45-10.21-5.31-14.7-8.57-4.49-2.86-9.8-6.53,5.72-23.68Z"/>
      <path class="cls-5" d="m234.82,340.63c-13.06,16.33-35.11,51.04-40.01,80.02-4.49,28.99,8.57,53.08,20.01,64.1,11.43,11.02,21.23,9.8,27.76-14.29,6.53-24.09,10.21-70.63,11.84-98.4,1.63-27.76,1.22-35.93-1.22-41.24-2.04-4.9-5.72-6.53-18.37,9.8Z"/>
      <g>
        <path class="cls-4" d="m189.91,449.24c-4.08,9.39-12.66,30.21-8.57,40.01,3.67,9.8,19.6,8.17,28.58,6.53,8.98-1.63,11.02-3.27,10.62-5.72-.41-2.45-3.67-5.72-8.57-13.06-4.9-7.76-11.02-20.01-14.29-27.35-3.27-7.35-3.27-9.8-7.76-.41Z"/>
        <path class="cls-4" d="m216.45,489.66c-1.22,4.08-2.86,14.7-.41,23.27,2.45,8.57,8.57,15.51,12.25,18.37,4.08,2.86,5.72,2.04,8.17-3.67,2.45-5.72,5.72-16.33,6.12-25.31.41-8.98-1.63-15.92-4.49-17.96-3.27-2.04-7.35.82-10.62,2.45-3.27,1.63-5.31,2.04-6.94,1.63-1.22-.82-2.86-2.86-4.08,1.22Z"/>
      </g>
      <g>
        <path class="cls-4" d="m644.33,296.13c18.37-2.04,52.67-.82,71.45,7.35,18.78,8.17,21.23,23.68,13.06,44.5-8.17,20.82-26.54,46.54-37.56,61.65-11.02,15.11-14.7,18.78-16.33,20.82q-1.63,2.04,16.74-4.9c18.37-6.53,55.53-20.01,78.8-19.19,23.27.82,32.66,15.51,25.31,42.46-7.76,26.95-32.66,65.73-44.5,83.29-11.84,17.56-11.02,13.88-.82,1.22,10.21-12.66,29.4-34.7,44.5-42.46,15.11-7.76,26.13-2.04,37.15,13.88,11.02,16.33,21.64,42.87,26.13,51.85,4.9,8.98,3.67.41,5.72-17.56,2.04-17.96,7.35-45.73,12.66-58.79,4.9-13.06,9.8-11.43,20.82-3.27,11.02,8.17,27.76,22.86,37.97,23.27,10.21.41,13.47-13.88,18.37-22.86,4.9-8.98,11.84-12.66,17.56-6.53,5.72,6.12,9.8,22.05,10.62,33.89.82,11.84-2.04,19.19-4.49,20.82-2.45,1.22-4.49-3.27-14.29-4.08-9.8-.82-26.13,2.45-40.42,11.43-13.88,8.57-25.31,22.86-39.6,35.11-14.29,12.25-31.85,22.86-54.71,25.72-22.86,2.86-51.03-2.04-78.8-21.64-27.76-19.6-54.71-54.3-75.94-100.44-21.23-46.14-36.75-104.11-43.28-135.96-6.53-31.85-4.49-37.15,13.88-39.6Z"/>
        <path class="cls-4" d="m564.3,19.32c13.88-1.22,41.24-3.27,58.79,2.86,17.56,6.12,25.72,20.01,24.09,35.11-1.63,15.11-12.66,31.44-23.27,43.69-10.21,11.84-20.01,19.19-21.23,20.82-1.22,1.22,5.72-3.27,21.64-4.08,16.33-.82,41.64,2.45,53.48,14.7,11.84,12.66,9.39,34.3-.41,57.98-9.8,23.68-27.35,48.99-37.97,64.1-10.62,14.7-14.29,19.19-16.74,17.56-2.45-1.63-3.27-9.39-9.39-33.07-6.12-23.68-17.56-63.28-26.95-98.8-9.39-35.52-17.15-66.96-22.46-85.33-5.72-17.96-8.98-22.46-11.43-25.72-2.45-3.27-3.27-4.49-3.27-5.72,0-1.63,1.22-2.45,15.11-4.08Z"/>
      </g>
      <path class="cls-3" d="m313.21,148.33c4.9-36.34,18.78-90.64,28.58-118.4C351.59,2.17,357.31.54,389.97.13c32.25-.41,91.45,0,124.93,3.67,33.48,3.67,42.05,10.62,63.69,92.27,21.64,81.66,55.93,238.44,94.31,336.42,38.38,97.99,80.02,137.18,116.77,146.98,36.75,9.8,67.77-9.8,98.4-30.21,30.62-20.41,60.02-41.64,78.39-41.64s25.31,20.41,20.01,53.08c-5.31,32.25-22.86,76.35-53.89,111.05-31.03,34.7-75.12,59.2-187.4,69-112.28,9.8-292.33,5.31-384.19-7.76-91.86-13.06-94.72-34.3-104.52-63.28-9.39-28.99-25.31-65.73-26.13-139.22-.82-73.49,13.47-184.13,21.64-239.66,8.17-55.53,9.8-56.34,17.15-59.61,7.35-3.27,20.41-8.98,29.4-11.02,8.57-2.04,13.06-.41,13.06-8.98s-3.27-26.54,1.63-62.88Z"/>
      <path class="cls-6" d="m286.27,209.58c0-12.25,0-35.11.82-46.54.82-11.43,3.27-11.43,14.29-11.84,11.02-.41,31.44-.82,42.05-.82s12.66.41,13.47,10.21c.82,9.39.82,28.17,0,37.56-.82,9.39-2.45,10.21-13.06,13.47-10.62,3.27-30.21,8.98-41.24,11.84-11.02,2.86-13.88,2.04-15.11,1.22-1.22-1.22-1.22-2.86-1.22-15.11Z"/>
      <path class="cls-6" d="m381.4,157.32c12.25-1.22,36.34-1.63,50.22-1.63s17.56.41,19.19,8.17c1.63,7.76,2.04,22.46,1.63,30.62-.41,8.17-.82,8.98-15.11,9.8-14.29.82-42.46.82-56.34,1.22q-13.88,0-13.88-6.94c0-7.35.41-21.64.82-29.4.41-7.76,1.22-10.62,13.47-11.84Z"/>
      <path class="cls-1" d="m269.53,231.62c24.09-8.98,47.77-18.37,86.56-24.5,38.79-6.12,92.27-9.39,146.16-12.66"/>
      <path class="cls-2" d="m430.8,72.39c19.19-1.63,56.34-1.22,75.53-.41,19.19.82,20.82,2.04,21.64,4.08.41,2.04,0,5.31-19.19,6.53-19.19,1.22-57.57.82-77.16.41-19.6-.41-20.82-1.22-20.82-3.27,0-2.04,1.22-5.72,20.01-7.35Z"/>
      <path class="cls-2" d="m441,87.91c.41,6.94,0,20.41,7.76,27.76,7.76,7.35,23.27,8.98,33.89,7.76,10.62-1.22,15.11-4.9,18.37-12.25,3.67-7.35,5.72-17.96,4.9-24.09-.82-6.12-4.49-7.76-11.02-8.57-6.53-.82-15.92-1.22-24.91-1.22s-17.96.41-22.86.82c-5.31.41-6.94.82-6.94,1.63-.82.82.41,1.22.82,8.17Z"/>
      <g>
        <path class="cls-4" d="m503.06,472.92c6.53,7.35,21.23,20.82,31.44,25.31,10.21,4.49,15.92.41,19.19-7.76,2.86-8.17,2.86-19.6-.82-31.44-3.67-11.84-11.43-23.68-16.33-26.54-4.9-2.45-7.76,4.08-11.84,9.8-4.08,6.12-10.21,11.43-14.7,14.29-4.49,3.27-7.76,4.08-9.8,5.72-2.45,1.63-4.08,3.27,2.86,10.62Z"/>
        <path class="cls-4" d="m543.07,392.89c9.39,1.63,28.99,7.76,39.6,13.88,11.02,6.53,13.47,13.47,10.62,20.41-3.27,7.35-12.25,14.7-20.82,19.19-8.57,4.49-17.15,6.12-24.5,4.9-6.94-1.22-12.66-5.31-14.7-10.62-2.04-5.31-.82-11.43,0-18.78.82-7.35.82-16.33.82-22.05,0-5.72-.41-8.57,8.98-6.94Z"/>
        <path class="cls-4" d="m399.77,426.78c-5.72,10.21-18.78,31.03-21.64,44.91-2.86,13.88,4.08,20.82,15.51,20.01,11.43-.41,27.35-8.57,37.56-13.06,10.21-4.49,14.7-5.72,15.92-6.94,1.22-1.22-1.63-2.45-6.94-6.12-5.31-4.08-13.06-11.02-18.78-17.56-5.72-6.53-9.39-13.06-12.25-18.37-2.86-5.31-4.08-8.57-4.49-10.62-.41-2.45.82-2.45-4.9,7.76Z"/>
        <path class="cls-4" d="m441.82,474.14c.41,8.17,2.45,25.31,9.39,35.11,6.94,9.8,19.19,12.66,28.58,4.08,9.39-8.57,15.51-28.17,18.78-37.97,2.86-9.8,2.45-9.8-3.67-8.17-6.12,1.63-17.96,4.49-27.35,4.9-9.39.41-16.33-1.63-20.41-3.27-4.08-1.63-5.72-2.45-5.31,5.31Z"/>
        <path class="cls-4" d="m373.64,685.63c-15.51,7.35-46.14,27.35-81.66,39.19-35.52,11.84-75.94,15.51-98.4,17.56-22.46,2.04-26.54,2.04-35.93-2.04-9.39-4.08-24.5-11.84-37.56-14.7-13.47-2.45-24.91,0-29.4,7.35-4.08,7.35-1.22,18.78,11.84,26.13,13.06,7.35,35.93,9.8,50.63,8.57,14.7-1.22,20.82-5.72,45.32-11.02,24.09-5.31,66.14-11.02,100.85-22.46,34.7-11.43,62.47-27.76,76.35-38.79,13.88-11.02,13.47-16.74-2.04-9.8Z"/>
        <path class="cls-4" d="m271.57,623.16c-6.12-1.63-17.96-1.22-42.46-1.22s-62.06.82-90.64-.82c-28.58-1.22-48.18-4.49-66.55-11.02-18.37-6.53-35.11-15.92-47.77-20.01-12.66-4.08-20.41-2.45-23.27,4.9-2.45,7.35,0,20.82,10.21,28.58,10.21,7.76,27.76,9.8,46.54,9.39,19.19-.41,40.01-2.86,69.82-2.86s69.41,2.86,95.95,3.27c26.54.41,40.42-1.22,47.36-3.27,6.94-2.04,6.94-5.31.82-6.94Z"/>
        <path class="cls-4" d="m953.4,547.63c-5.72.82-10.62,6.12-10.62,10.62s4.49,8.17,10.21,7.76c5.72-.82,12.25-5.72,12.25-10.21.41-4.49-6.12-8.57-11.84-8.17Z"/>
        <path class="cls-4" d="m899.09,560.29c-6.53,4.49-12.25,10.62-9.8,14.7,2.45,4.08,13.06,4.9,21.64,2.04,8.17-2.45,14.29-8.98,15.92-13.88,1.22-4.9-2.04-8.17-7.35-8.57-5.72-.41-13.88,1.63-20.41,5.72Z"/>
        <path class="cls-4" d="m911.34,535.79c-.41,2.45,4.08,3.27,8.57,2.04,4.49-1.22,8.57-4.49,11.02-7.35,2.45-2.86,2.86-5.72.82-6.53-1.63-.82-5.72.41-10.21,2.86-4.9,2.45-9.8,6.53-10.21,8.98Z"/>
        <path class="cls-4" d="m857.04,585.19c-3.27.82-7.35,2.45-6.94,4.49s5.31,4.49,9.8,4.08c4.9-.41,9.39-3.67,10.62-5.72.82-2.04-1.63-3.27-4.49-3.67-2.86-.41-5.72-.41-8.98.82Z"/>
        <path class="cls-4" d="m881.95,610.51c-4.08,1.22-6.53,4.9-4.9,7.76,1.22,3.27,6.12,6.12,10.62,4.9,4.08-1.22,7.76-6.53,6.53-9.8-1.22-3.27-8.17-4.08-12.25-2.86Z"/>
        <path class="cls-4" d="m860.72,570.49c1.22,1.63,4.9,3.27,7.76,2.04,2.86-.82,4.9-4.49,4.9-6.53s-1.22-2.86-3.27-2.86-4.49,1.22-6.53,2.45c-2.04,1.22-4.08,3.27-2.86,4.9Z"/>
        <path class="cls-4" d="m797.43,606.01c2.86,2.86,10.62,5.31,16.33,4.49,5.72-.82,9.8-5.31,9.39-9.8-.41-4.49-4.9-8.57-10.21-10.21s-11.02,0-13.47,1.63-2.04,3.67-2.45,5.72c-.82,2.45-2.45,5.31.41,8.17Z"/>
        <path class="cls-4" d="m834.18,606.01c1.63-1.22,3.67-.41,4.9,1.22,1.22,1.63,1.22,4.08-.41,5.31-1.63,1.22-5.31,1.63-6.12,0-1.63-1.63,0-4.9,1.63-6.53Z"/>
      </g>
      <path class="cls-5" d="m388.74,372.07c4.49,17.96,15.11,54.3,30.21,75.53,15.51,21.23,35.52,27.76,54.3,27.76s35.52-6.53,46.14-16.33c10.21-10.21,13.88-24.09,14.7-42.05.82-17.96-1.22-40.42-3.67-56.34-2.45-15.92-4.9-25.31-6.94-29.4-2.04-4.08-4.08-3.27-5.72-2.86-1.63.82-2.86,1.22-24.5,5.31-21.64,4.08-63.28,12.25-84.92,16.33-21.64,4.08-23.68,4.08-19.6,22.05Z"/>
    </g>
  </g>
</svg>