<?xml version="1.0" encoding="UTF-8"?>
<svg id="Layer_2" data-name="Layer 2" xmlns="http://www.w3.org/2000/svg" viewBox="0 0 828.33 999.83">
  <defs>
    <style>
      .cls-1, .cls-2, .cls-3 {
        fill: none;
      }

      .cls-1, .cls-4, .cls-5, .cls-6, .cls-7, .cls-8, .cls-9 {
        stroke-width: 0px;
      }

      .cls-2 {
        stroke-width: 2.3px;
      }

      .cls-2, .cls-3 {
        stroke: #010101;
        stroke-miterlimit: 2.61;
      }

      .cls-4 {
        fill: #1c0f16;
      }

      .cls-4, .cls-5, .cls-6, .cls-7, .cls-8 {
        fill-rule: evenodd;
      }

      .cls-5 {
        fill: #57ab86;
      }

      .cls-6 {
        fill: #cf3928;
      }

      .cls-7 {
        fill: #fddc51;
      }

      .cls-8 {
        fill: #fdebd8;
      }

      .cls-3 {
        stroke-width: 2px;
      }

      .cls-9 {
        fill: #010101;
      }
    </style>
  </defs>
  <g id="Layer_1-2" data-name="Layer 1">
    <g id="Layer_1-3" data-name="Layer 1">
      <g>
        <path class="cls-9" d="m72.73,514.04l-11.15-1.45c1.94-17.94,4.36-36.37,6.3-47.52,1.94-11.64,3.39-15.52,5.33-19.88l10.18,4.36c-1.45,3.39-2.91,6.79-4.36,17.46-1.94,10.67-4.36,29.09-6.3,47.03Z"/>
        <path class="cls-9" d="m63.04,515.01h0c-14.55-2.42-29.58-4.85-40.25-5.82-10.18-.97-15.52,0-21.33.48l-1.45-11.15c6.3-.97,12.61-1.45,23.76-.48,10.67.97,26.18,3.39,40.73,5.82l-1.45,11.15Z"/>
        <path class="cls-9" d="m192.98,586.77c-20.85,0-41.7-4.85-60.61-13.58-30.06-14.55-55.76-40.25-72.25-59.64-17.46-20.37-25.7-34.91-33.94-49.46l9.7-5.82c8.24,14.55,16.49,28.12,32.97,47.52,16,18.43,40.73,43.64,68.85,57.22,25.21,12.12,54.31,15.52,82.43,10.18,24.73-5.33,46.06-17.46,62.55-36.37,16.49-18.91,29.09-45.09,41.22-70.31l10.18,4.85c-12.12,25.7-25.21,52.37-42.67,72.73-18.43,20.85-41.7,34.43-68.85,40.25-10.67,1.45-20.37,2.42-29.58,2.42Z"/>
      </g>
      <g>
        <path class="cls-5" d="m623.56,211.47c-33.46-3.88-94.07-9.21-144.98-.48-50.43,8.73-91.16,31.03-119.28,52.85-27.64,21.82-43.15,43.15-55.76,61.58-12.61,18.43-22.3,34.43-22.3,38.31s9.7-3.88,19.4-9.21c9.7-5.33,18.43-7.76,15.52-1.94-2.91,5.82-18.43,20.37-25.21,40.73-6.79,20.37-5.82,47.03-3.39,58.19,2.42,11.15,6.3,6.3,9.21-1.94,2.91-8.24,5.33-19.88,6.3-12.61.97,7.27.97,33.46,2.42,57.7,1.45,24.24,3.88,46.55,7.76,60.61,3.88,14.06,9.21,18.91,11.64,14.06,2.42-5.33,1.45-21.33,1.94-31.03.48-9.7,1.94-13.58,3.39-5.33,1.45,8.24,2.91,28.12,8.24,41.22,5.33,13.09,14.55,18.91,18.43,18.43,4.36-.48,3.39-7.76,10.18-6.3,6.79,1.45,21.33,11.64,31.03,13.09,9.7,1.45,14.55-6.3,19.4-10.18,4.85-3.88,9.21-4.36,20.37,0,11.15,4.36,28.61,13.58,51.4,18.91,23.27,5.33,51.88,7.27,61.1,6.79,9.21-.97-.97-4.36,2.42-3.88,3.39.48,19.88,4.36,38.31,8.24,18.43,3.39,39.28,6.79,48,4.85,9.21-1.94,6.79-8.24,1.94-13.09-4.85-4.85-12.61-8.24-8.24-8.24s20.85,3.39,32,8.24c11.15,4.85,17.46,10.67,23.76,9.7,6.3-.97,14.06-9.7,18.91-19.88,5.33-10.67,8.73-23.27,11.64-25.7,2.91-1.94,5.33,6.79,5.33,13.58s-2.42,11.64.48,9.7c2.91-1.94,10.67-11.15,16.49-21.82,5.33-10.67,8.73-22.3,10.67-23.76,1.94-1.45,2.42,7.27,4.85,13.09,1.94,5.82,5.33,8.73,11.15,2.42,5.82-6.3,13.58-22.79,19.4-41.7,5.82-18.43,9.7-39.28,11.64-54.79,1.94-15.52,1.94-25.21,4.85-27.15,2.91-1.94,8.73,4.36,13.09,7.76,4.36,3.39,7.27,4.85,5.33-9.7-1.94-14.55-9.21-43.64-14.55-60.61-5.33-16.97-9.21-21.82-4.36-18.43,4.85,3.39,17.94,14.55,22.79,15.03,4.85.48.97-10.18-8.73-25.7-9.7-15.52-24.73-35.4-50.43-58.19-25.7-22.79-61.58-48.49-82.92-62.55-21.34-14.06-27.15-16.97-60.61-20.85Z"/>
        <path class="cls-5" d="m396.15,201.29c2.91,8.24,9.7,23.76,13.58,31.03,3.88,7.27,4.36,5.82,6.3,4.85,1.94-1.45,5.82-2.91,7.27-3.88,1.94-.97,1.94-1.45-1.94-8.73-3.88-7.27-10.67-22.3-14.55-30.06-3.39-7.76-3.39-8.73-5.33-7.76-1.45.97-4.36,2.91-6.3,4.36-1.45.97-1.94,1.94.97,10.18Z"/>
        <path class="cls-5" d="m517.86,180.44c-.97,7.27-1.45,21.82-1.45,28.61s.97,6.3,2.91,5.82h6.79c1.45,0,1.94-.48,1.94-7.27,0-7.27,0-20.85.48-28.12,0-7.27.48-7.76-.97-7.76s-4.36.48-6.79.97c-.97.48-1.94.48-2.91,7.76Z"/>
      </g>
      <path class="cls-1" d="m631.81,881.1c10.18,21.82,32.49,66.91,45.09,90.19,12.12,23.27,14.55,25.21,21.82,26.67,7.27.97,19.88,1.45,33.94-1.45,14.06-2.91,29.09-9.7,37.82-17.94,8.73-8.73,11.15-18.91,10.67-26.18-.48-6.79-3.39-9.7-10.18-33.46-6.79-23.76-17.94-67.88-23.27-89.7-5.33-21.82-5.33-20.37-8.24-15.03-2.42,5.82-7.76,15.52-16,23.76-8.24,8.24-18.91,14.55-32.97,18.91-14.06,3.88-31.03,5.82-42.19,6.3-11.15.48-16.49.48-19.88-.97-3.39-1.45-6.79-2.42,3.39,18.91Z"/>
      <g>
        <path class="cls-8" d="m500.89,318.63c-.48-10.67.97-33.46,2.42-45.09,1.45-11.64,2.42-11.64,8.73-4.85,6.3,6.3,16.97,19.4,21.33,27.15,3.88,7.76,1.45,11.15-3.39,15.03-4.85,3.88-12.12,9.21-16,11.64-3.88,2.91-5.33,3.39-7.27,4.36-1.94.97-4.85,2.42-5.82-8.24Z"/>
        <path class="cls-8" d="m378.21,196.93c33.94,0,62.07-26.18,62.07-58.19s-27.64-58.19-62.07-58.19-62.07,26.18-62.07,58.19,27.64,58.19,62.07,58.19Z"/>
        <path class="cls-8" d="m519.31,173.65c33.94,0,62.07-26.18,62.07-58.19s-27.64-58.19-62.07-58.19-62.07,26.18-62.07,58.19c0,32,27.64,58.19,62.07,58.19Z"/>
      </g>
      <g>
        <path class="cls-7" d="m609.99,204.69c9.21-6.3,29.09-16.49,45.09-18.43,16-1.94,28.12,4.85,35.4,16.49,7.27,11.64,9.7,27.64,11.15,35.4,1.45,7.76,1.94,6.79,11.15,4.85,9.21-1.94,27.15-5.33,38.31-2.91,11.15,2.91,15.03,11.64,16.97,21.33,1.45,9.7.48,20.85,0,26.67-.48,5.82,0,5.82,6.79,5.33,6.79-.48,20.85-1.45,30.55,1.94,9.7,3.39,15.52,11.64,16.97,21.82,1.45,10.18-.97,22.79-4.36,26.18-3.39,3.39-6.79-1.94-17.94-14.06-11.15-12.12-30.06-31.03-43.15-43.64-13.09-12.61-20.85-18.43-35.88-28.12-15.03-9.7-36.85-22.3-57.7-30.06-20.85-7.76-40.25-11.15-50.43-13.09-11.15-1.94-12.12-3.88-2.91-9.7Z"/>
        <path class="cls-7" d="m631.81,881.1c10.18,21.82,32.49,66.91,45.09,90.19,12.12,23.27,14.55,25.21,21.82,26.67,7.27.97,21.33,3.39,35.4.48,14.06-2.91,27.64-11.15,36.37-19.88,8.73-8.73,11.15-18.91,10.67-26.18-.48-6.79-3.39-9.7-10.18-33.46-6.79-23.76-17.94-67.88-23.27-89.7-5.33-21.82-5.33-20.37-8.24-15.03-2.42,5.82-7.76,15.52-16,23.76-8.24,8.24-18.91,14.55-32.97,18.91-14.06,3.88-31.03,5.82-42.19,6.3-11.15.48-16.49.48-19.88-.97-3.39-1.45-6.79-2.42,3.39,18.91Z"/>
        <path class="cls-7" d="m682.72,837.95c-3.88,2.91-6.79,5.33-6.3,6.3.48.97,4.85.48,8.73,0s6.79-1.94,10.67-4.36c3.88-1.94,7.76-5.33,9.7-7.27,1.94-1.94,1.45-2.42,0-2.91-1.94-.48-4.85-.48-8.73.97-3.88,1.45-10.18,4.85-14.06,7.27Z"/>
      </g>
      <g>
        <path class="cls-6" d="m340.39,446.16c-3.39,6.79-6.79,19.88-4.85,30.55,1.94,10.67,8.24,18.91,14.55,22.79,6.3,3.88,12.12,2.91,17.46-.48,5.33-3.39,9.21-9.7,9.7-18.91.48-9.21-2.91-21.82-7.76-29.58-4.85-7.76-10.67-10.67-16-11.64-5.33-.97-9.21.48-13.09,7.27Z"/>
        <path class="cls-6" d="m396.64,435.01c-1.94,4.36-3.39,12.12-1.94,17.46,1.94,5.33,6.79,7.76,12.12,7.27,5.33-.48,10.67-4.36,12.61-10.18,1.94-5.82.97-13.09-2.42-16.97-3.39-3.88-9.7-3.88-13.58-3.39-3.39.48-4.85,1.45-6.79,5.82Z"/>
        <path class="cls-6" d="m639.08,471.86c-8.73,1.94-20.85,6.79-26.18,15.52-5.33,8.73-3.88,21.33,1.45,32.97,5.33,11.64,14.06,22.79,26.18,26.67,12.61,3.88,28.61.97,39.76-4.85,10.67-5.82,16-14.06,15.03-24.24-.97-10.67-8.24-22.79-15.52-31.03-7.27-7.76-14.55-11.15-20.85-13.58-5.82-2.42-11.15-3.39-19.88-1.45Z"/>
        <path class="cls-6" d="m715.21,463.61c-7.76,1.94-13.09,8.73-14.06,14.06-.97,5.33,3.39,9.7,9.21,11.64,5.82,1.94,13.09,1.45,18.43-2.42,5.33-3.88,9.21-11.64,6.3-16.97-2.91-5.33-12.61-8.24-19.88-6.3Z"/>
        <path class="cls-6" d="m634.23,285.18c-8.24,5.82-13.09,15.52-10.67,25.7,2.42,10.18,13.09,20.85,22.79,26.18,10.18,5.33,19.88,5.82,30.06,5.33,10.18-.97,20.85-2.42,24.24-11.15,3.39-8.24,0-23.27-6.79-33.46-7.27-10.18-18.43-16-29.58-17.94-10.18-1.94-21.82,0-30.06,5.33Z"/>
        <path class="cls-6" d="m738.97,271.6c-1.94-.48-2.42.97-3.88,7.76-1.45,6.3-3.88,17.94,0,25.7,3.39,7.76,13.09,12.12,21.33,11.15,8.24-.97,14.55-6.79,16.49-11.15,1.45-4.36-1.45-7.76-5.82-11.15-4.36-3.39-9.21-7.76-12.61-10.67-3.39-2.91-5.82-4.85-8.24-6.79-2.42-2.42-5.33-4.36-7.27-4.85Z"/>
        <path class="cls-6" d="m754.48,335.12c-3.88,1.45-6.79,6.79-5.33,10.18,1.45,3.39,7.27,4.85,11.15,3.39,3.88-1.45,6.3-5.33,4.85-8.73-1.45-3.39-6.79-6.3-10.67-4.85Z"/>
        <path class="cls-6" d="m678.35,884.98c8.73,24.73,33.46,72.25,40.25,98.43,4.85,18.43,11.64,16,17.94,14.55,6.3-1.45,14.06-5.33,21.33-8.73,7.27-3.39,10.67-5.82,9.7-11.64-.48-3.39,1.94,1.94-12.12-20.37-13.58-21.82-28.12-66.43-36.85-87.76q-8.73-21.33-11.64-20.37c-2.91,1.45-8.73,3.88-14.55,5.82-5.33,1.94-10.67,3.39-15.03,3.88-4.36.97-7.76,1.45.97,26.18Z"/>
        <path class="cls-6" d="m624.05,857.34c.97-7.27,6.3-18.91,18.91-28.12,12.61-9.7,32.97-16.97,49.94-20.37,16.97-3.39,31.03-2.42,39.28-1.45,8.24,1.45,10.67,3.39,9.7,8.24-.97,4.85-4.36,13.09-10.18,20.85-5.33,7.76-12.61,15.52-25.21,21.82-12.61,6.3-30.55,11.15-44.12,13.58-13.58,2.42-23.76,1.45-30.06-.48-6.3-2.91-9.21-6.79-8.24-14.06Z"/>
        <path class="cls-6" d="m524.16,625.08c-12.12,26.18-32,75.16-44.12,129.46-12.12,54.31-15.52,113.46-16.49,147.89-.97,34.91,1.45,45.09-2.91,49.46-4.36,4.36-16,3.88-30.55,7.76-14.55,3.88-32.49,12.12-32.49,18.91s17.94,11.64,36.85,13.09c18.91,1.45,39.28-.48,48.49-3.39,9.21-2.91,7.76-7.27,5.82-37.34-1.94-30.06-4.36-85.82,1.45-134.8,5.33-48.97,18.91-91.16,30.55-127.04,11.64-35.88,21.33-65.94,25.21-80.98,3.39-15.03.97-15.03-2.42-13.58-3.88,1.94-7.27,4.85-19.4,30.55Z"/>
        <path class="cls-6" d="m424.27,611.5c2.42,24.24,11.15,71.28,29.09,113.46,17.94,42.19,45.58,79.04,67.4,103.28,21.82,24.24,37.82,36.37,46.06,44.12,8.24,7.76,8.73,10.67,2.42,22.3-6.3,11.64-17.94,32-17.46,38.79.97,6.3,14.55-.97,26.67-15.03,12.12-14.06,22.79-34.91,27.15-45.58,4.36-10.67,1.94-10.67-10.18-16.97-12.12-6.3-34.43-19.4-56.73-41.22-22.3-21.82-45.09-52.85-62.07-85.82-16.97-32.97-28.61-67.88-33.46-94.55-5.33-27.15-3.88-46.06-5.33-52.37-1.45-6.79-5.33-1.45-9.21,1.94-3.88,2.42-6.79,3.39-4.36,27.64Z"/>
      </g>
      <path class="cls-3" d="m368.51,293.42c14.55,16,29.58,32,49.46,39.76,19.88,7.27,45.58,5.82,66.43.97,20.85-5.33,36.37-14.55,47.52-24.73,11.15-10.18,16.97-21.82,20.85-33.94,3.88-12.61,5.33-26.18,6.79-39.76"/>
      <g>
        <g>
          <path class="cls-9" d="m731.69,919.41l-5.33-9.7c7.76-4.36,15.03-8.73,25.7-23.76,10.67-15.03,26.18-42.19,40.25-88.73,10.18-33.46,26.18-100.37,22.79-176.5-2.91-66.91-21.33-138.68-39.28-208.5l10.67-2.91c17.94,69.82,36.37,142.56,39.76,210.44,3.39,77.58-13.09,146.44-23.27,180.38-14.55,48-30.55,76.61-42.19,92.13-12.12,17.46-20.85,22.3-29.09,27.15Z"/>
          <path class="cls-9" d="m759.33,935.41l-8.24-7.27c4.85-5.33,9.21-10.67,12.12-17.94,2.91-6.79,4.85-16.49,5.82-27.15.48-4.85.48-9.7.48-13.09-1.94,1.45-4.36,2.42-7.27,3.39-6.3,2.42-14.55,3.39-21.82,4.36l-3.39.48c-7.76.97-13.09,2.42-18.91,3.39l-2.42-11.15c5.82-.97,11.64-2.42,19.4-3.39l3.39-.48c6.79-.97,14.06-1.94,19.4-3.88,5.33-1.94,8.73-4.85,10.67-6.3l.48-.48c.97-.97,3.88-3.39,7.27-1.94,3.39,1.45,3.39,4.85,3.88,7.76v2.91c0,4.36.48,11.15-.48,19.4-.48,6.79-1.94,19.88-6.3,30.06-3.39,9.21-8.73,15.52-14.06,21.34Z"/>
        </g>
        <path class="cls-4" d="m362.21,156.2c12.12,0,22.3-10.18,22.3-22.3s-10.18-22.3-22.3-22.3-22.3,10.18-22.3,22.3,10.18,22.3,22.3,22.3Z"/>
        <path class="cls-4" d="m503.31,132.44c12.12,0,22.3-10.18,22.3-22.3s-10.18-22.3-22.3-22.3-22.3,10.18-22.3,22.3,10.18,22.3,22.3,22.3Z"/>
        <path class="cls-2" d="m315.18,71.83c4.85-9.21,9.7-18.43,17.94-25.21,8.24-7.27,19.4-12.61,30.06-11.15,10.67.97,20.37,8.73,30.55,16.49"/>
        <path class="cls-2" d="m507.19,18.49c7.76-7.27,16-14.55,27.64-16.49,11.64-2.42,26.67.48,37.82,6.79,11.15,6.3,17.94,16.49,21.82,23.76,3.88,7.27,5.33,11.15,6.3,15.52"/>
      </g>
      <path class="cls-5" d="m645.87,775.4c8.73,13.09,23.76,39.76,31.52,53.34,7.76,13.58,7.76,14.06,9.7,13.09,1.94-.97,5.82-3.88,7.76-4.85,1.94-.97,2.42-.97-6.3-15.52-8.73-15.03-27.15-45.09-36.37-60.61-9.21-15.03-9.7-15.03-18.91-10.18-9.21,4.85-27.64,14.55-37.34,19.88-9.7,5.33-10.67,5.33-10.67,6.3s.97,2.42,3.39,5.82c2.42,3.39,6.3,8.24,8.24,10.18,1.94,1.94,1.94.97,7.76-4.36,5.82-5.33,17.46-14.06,24.24-19.4,6.3-5.82,8.24-6.79,16.97,6.3Z"/>
    </g>
  </g>
</svg>