<?xml version="1.0" encoding="UTF-8"?>
<svg id="Layer_2" data-name="Layer 2" xmlns="http://www.w3.org/2000/svg" viewBox="0 0 684.66 957.23">
  <defs>
    <style>
      .cls-1 {
        stroke: #e4ab24;
        stroke-width: 1.44px;
      }

      .cls-1, .cls-2 {
        fill: none;
        stroke-miterlimit: 2.61;
      }

      .cls-2 {
        stroke: #010101;
        stroke-width: 2.3px;
      }

      .cls-3 {
        fill: #1c0f16;
      }

      .cls-3, .cls-4, .cls-5, .cls-6 {
        fill-rule: evenodd;
        stroke-width: 0px;
      }

      .cls-4 {
        fill: #fddc51;
      }

      .cls-5 {
        fill: #fdebd8;
      }

      .cls-6 {
        fill: #ec7aac;
      }
    </style>
  </defs>
  <g id="Layer_1-2" data-name="Layer 1">
    <g id="Layer_1-3" data-name="Layer 1">
      <path class="cls-4" d="m287.12,252.86c-39.55,8.64-87.74,28.18-126.83,63.64-39.55,35.46-70.01,87.74-88.19,139.56-18.18,51.82-23.64,103.65-31.82,135.92-8.18,32.28-17.73,44.55-26.37,57.73-8.64,13.64-16.37,28.18-13.18,30,3.18,1.82,16.82-9.09,31.82-20.91,15-11.82,31.82-24.55,30.91-19.55s-17.73,27.73-26.37,56.37c-8.18,28.64-7.27,63.64-3.64,93.19,3.64,29.55,9.55,53.64,16.82,60.46,7.27,6.82,15.91-3.64,20-9.55,4.09-5.91,3.64-7.27,4.09,1.82.91,9.09,2.73,29.09,7.27,45.46s11.36,29.55,20,36.37c8.64,6.82,18.18,7.27,28.18-1.36,9.55-8.64,19.09-25.91,27.73-28.18s16.82,10.46,27.28,19.09c10.46,8.64,23.64,12.73,35.91,10.46,11.82-2.27,22.73-10.46,34.55-11.82,11.36-1.36,23.64,5,40.46,8.64,16.82,3.64,38.19,5,52.28.45,14.55-5,21.82-16.37,33.18-12.27,11.36,4.09,26.37,23.18,37.28,35.46,10.91,11.82,18.18,16.82,27.28,10.91,9.09-5.91,20.46-21.82,27.28-38.64,6.82-16.82,8.64-35,11.82-33.64,3.18,1.36,8.18,22.27,13.64,33.18,5.46,10.91,12.27,11.82,19.55,5.91,7.27-5.91,14.55-18.64,17.73-30,3.18-11.36,2.27-21.37,5-19.09,2.73,2.27,8.64,16.37,14.55,23.18,5.91,6.82,11.36,7.27,16.37-.91,5-8.18,9.09-24.09,11.36-36.82,2.27-12.73,2.27-22.27,5-18.18,3.18,3.64,9.09,20.91,16.37,30,7.27,9.09,15,10.46,23.64-3.18,8.64-13.64,17.27-43.19,23.18-53.19,5.91-10,8.64-1.36,11.36,4.55,2.73,5.46,5,8.18,10.46-7.73,5.46-15.91,14.09-49.1,10.91-83.64-3.18-34.55-17.73-70.01-31.37-92.74-13.64-23.18-26.37-34.09-22.27-31.82,4.09,2.27,25.46,17.27,35.91,19.55,10.46,2.27,10-8.18.91-18.18-9.09-10.46-27.28-20.91-40.91-36.37-13.64-15.46-23.18-36.37-28.64-57.73-5.46-21.37-7.73-43.64-26.37-80.01-19.09-36.37-54.55-86.83-88.19-119.56-33.64-32.73-64.55-47.28-95.46-55.46-30.91-8.18-60.91-10-100.46-1.36Z"/>
      <g>
        <path class="cls-6" d="m227.57,196.49c-.45,19.09,2.27,55.46,3.64,73.64,1.82,18.18,2.73,17.73,6.82,16.82,4.09-.91,10.91-1.82,15.46-2.73,4.09-1.36,5.46-2.73,4.55-21.37-1.36-18.64-5-54.55-7.73-72.28-2.73-17.73-4.09-17.27-6.82-16.82-2.73.45-6.36.91-9.55,1.82-3.18.91-5.91,2.27-6.36,20.91Z"/>
        <path class="cls-6" d="m411.68,185.12c.45,19.09-2.27,55.46-3.64,73.64-1.82,18.18-2.73,17.73-6.82,16.82-4.09-.91-10.91-1.82-15.46-2.73-4.09-1.36-5.46-2.73-4.55-21.37,1.36-18.64,5-54.55,7.73-72.28,2.73-17.73,4.09-17.27,6.82-16.82,2.73.45,6.36.91,9.55,1.82,3.18.91,6.36,2.27,6.36,20.91Z"/>
        <path class="cls-6" d="m137.11,651.08c1.82-16.37,7.27-34.09,29.55-45.46,22.27-11.36,61.37-15.91,88.64-15,26.82,1.36,41.37,8.18,59.1,12.73,17.27,4.55,37.73,6.36,60.91,4.09,23.18-2.27,49.1-8.18,70.92-17.73,21.82-9.55,40-22.27,54.55-24.09,14.55-1.82,25.91,7.27,35.91,20.91,10,14.09,18.18,32.73,17.27,53.19-1.36,20.46-11.82,41.82-37.28,64.55-25.46,22.27-65.01,45.46-117.28,56.37-52.28,10.91-117.28,9.55-162.74-3.18-45.46-12.73-70.92-36.82-84.55-55.91-14.09-19.55-16.82-34.09-15-50.46Z"/>
      </g>
      <g>
        <path class="cls-5" d="m258.94,601.98c.91,10.91,5.46,33.18,10.91,43.19,5.46,10,11.36,8.18,18.18.45,6.82-7.73,13.64-20.91,16.82-29.09,3.18-8.18,2.73-11.82.45-14.09-2.27-2.27-6.36-3.64-12.27-5-5.91-1.36-12.73-3.18-18.18-4.09-5.46-.91-8.64-1.36-11.36-1.82-2.73-.45-5.46-.45-4.55,10.46Z"/>
        <path class="cls-5" d="m392.13,615.16c2.27,10.91,12.27,30,19.09,37.28,6.36,7.27,9.09,2.27,13.64-8.64,4.55-11.36,10.46-29.09,12.73-38.64,2.27-9.55.45-10-2.73-9.55-3.18.45-8.18,2.27-14.09,3.18-5.91.91-13.18,1.36-19.09,2.73-6.36.45-11.82,2.73-9.55,13.64Z"/>
        <path class="cls-5" d="m198.48,726.54c5.46-12.73,19.55-35.46,29.55-47.28,10-12.27,15.46-13.64,22.27-2.27,6.82,10.91,14.09,34.55,18.64,51.37,4.55,16.82,5.91,26.82,5,32.73-.91,5.46-4.55,6.82-11.82,5.46-7.27-1.36-18.64-5.46-29.55-10-10.91-4.09-21.37-8.64-28.64-11.82-6.82-3.64-10.91-5.91-5.46-18.18Z"/>
        <path class="cls-5" d="m333.49,754.27c.45-15.46,4.55-45,10.46-60.46,5.91-15.46,12.73-16.37,24.09-7.27,11.36,9.09,26.82,27.73,37.73,40.46,10.91,12.73,16.82,19.09,18.64,23.64,1.82,4.55-.45,6.82-8.18,9.55-7.73,2.73-20.91,5.46-34.55,7.73-13.64,2.27-27.73,3.64-36.37,3.64s-12.27-1.82-11.82-17.27Z"/>
        <path class="cls-5" d="m462.14,723.81c-2.27-14.55-3.64-45.91-2.27-60.91,1.36-15,6.36-14.09,19.55-6.82,13.18,7.27,35,20.91,44.1,29.55,9.09,8.64,5,12.73-2.27,18.64-7.73,5.91-19.09,14.55-27.73,20-9.09,5.46-15.91,8.18-20.91,10-5,2.73-8.18,4.09-10.46-10.46Z"/>
        <path class="cls-5" d="m230.3,193.3c37.73,0,68.64-30.91,68.64-68.64s-30.91-68.64-68.64-68.64-68.64,30.91-68.64,69.1,30.91,68.19,68.64,68.19Z"/>
        <path class="cls-5" d="m408.95,181.94c37.73,0,68.64-30.91,68.64-68.64s-30.91-68.64-68.64-68.64-68.64,30.91-68.64,68.64c0,38.19,30.91,68.64,68.64,68.64Z"/>
      </g>
      <g>
        <path class="cls-3" d="m212.57,137.39c15.46,0,28.18-12.73,28.18-28.18s-12.73-28.18-28.18-28.18-28.18,12.73-28.18,28.18c-.45,15.46,12.27,28.18,28.18,28.18Z"/>
        <path class="cls-2" d="m174.38,21.47c7.27,14.55,14.55,29.55,21.82,44.1"/>
        <path class="cls-2" d="m222.12,11.47c1.36,15,2.27,30,3.64,45"/>
        <path class="cls-2" d="m273.03,20.11c-5.91,13.64-11.82,27.28-17.27,40.91"/>
        <path class="cls-3" d="m427.13,126.03c15.46,0,28.18-12.73,28.18-28.18s-12.73-28.18-28.18-28.18-28.18,12.73-28.18,28.18,12.73,28.18,28.18,28.18Z"/>
        <path class="cls-2" d="m465.32,10.11c-7.27,14.55-14.55,29.55-21.37,44.1"/>
        <path class="cls-2" d="m417.13.1c-1.36,15-2.27,30-3.64,45"/>
        <path class="cls-2" d="m366.22,8.74c5.91,13.64,11.82,27.28,17.27,40.91"/>
      </g>
      <g>
        <path class="cls-1" d="m112.1,458.78c-1.36,10.91-3.18,21.82,3.18,30.46,6.36,8.64,20.91,15.46,32.73,11.36,11.82-4.09,20.46-18.18,29.55-32.73"/>
        <path class="cls-1" d="m543.51,481.97c3.18,8.64,5.91,17.27,3.64,22.73-2.73,5.46-10.91,7.73-18.18,5.46-7.27-1.82-13.18-8.18-19.55-14.09"/>
        <path class="cls-1" d="m123.47,781.09c-2.73,8.18-5.46,16.37-5.46,23.64s4.09,12.73,11.36,13.18c7.27.45,17.73-4.55,28.64-9.09"/>
        <path class="cls-1" d="m260.76,842.91c1.82,7.73,4.09,15.46,9.09,21.82,5,6.36,13.18,11.82,20.46,12.27,7.27.45,14.09-2.73,20.91-6.82"/>
        <path class="cls-1" d="m434.41,328.32c5.46,5.46,10.46,11.36,12.73,16.82,2.27,5.46.91,11.36-3.64,14.55-5,3.18-13.18,3.64-20.46,1.82-7.27-1.36-13.64-5-19.55-8.64"/>
        <path class="cls-1" d="m583.51,662.89c.91,8.18,1.82,16.37.91,21.37-.91,5.46-3.64,7.73-6.82,8.18-3.18.45-6.82-1.36-10.46-3.18"/>
        <path class="cls-1" d="m602.61,762.9c2.27,9.55,5,18.64.45,26.37-4.55,7.73-15.46,13.18-24.55,12.73-9.09-.45-15.91-6.82-22.27-13.64"/>
        <path class="cls-1" d="m92.56,545.61c-3.18,5.91-6.36,12.27-5.91,18.64.45,6.36,4.55,13.64,8.18,17.73,3.64,4.09,6.82,5.46,9.55,6.82"/>
      </g>
    </g>
  </g>
</svg>