<?xml version="1.0" encoding="UTF-8"?>
<svg id="Layer_2" data-name="Layer 2" xmlns="http://www.w3.org/2000/svg" viewBox="0 0 884.77 933.44">
  <defs>
    <style>
      .cls-1 {
        stroke: #8bc4c0;
      }

      .cls-1, .cls-2 {
        fill: none;
        stroke-miterlimit: 2.61;
        stroke-width: 2.3px;
      }

      .cls-2 {
        stroke: #010101;
      }

      .cls-3 {
        fill: #1c0f16;
      }

      .cls-3, .cls-4, .cls-5, .cls-6 {
        fill-rule: evenodd;
        stroke-width: 0px;
      }

      .cls-4 {
        fill: #fdebd8;
      }

      .cls-5 {
        fill: #7e98a6;
      }

      .cls-6 {
        fill: #8bc4c0;
      }
    </style>
  </defs>
  <g id="Layer_1-2" data-name="Layer 1">
    <g id="Layer_1-3" data-name="Layer 1">
      <g>
        <path class="cls-6" d="m325.74,851.28c-14.59,13.73-38.18,36.89-46.76,51.05-9.01,14.16-3,19.3,37.75,21.45,40.75,2.57,115.83,2.57,154.01,2.57s39.04.86,39.9-14.16c.86-15.01.43-45.04,1.72-60.06.86-15.01,3-14.59-23.59-15.44-26.6-1.29-82.37-3.86-112.83-3.43-30.46.43-35.61,4.29-50.19,18.02Z"/>
        <path class="cls-2" d="m254.53,632.49c-41.61-29.6-83.65-59.63-114.11-99.96-30.46-40.33-49.33-91.81-59.2-126.13-10.3-34.32-11.58-52.34-13.3-69.93"/>
        <path class="cls-2" d="m87.65,423.57c7.29-22.74,14.59-45.04,20.16-59.63,6.01-14.59,10.72-20.59,15.44-27.03"/>
        <path class="cls-2" d="m86.79,424.43c-6.86-4.29-13.73-8.58-28.31-12.44s-36.46-6.01-58.34-8.58"/>
        <path class="cls-6" d="m759.89,860.29c13.3,15.01,34.32,40.33,42.04,54.91,7.29,15.01,1.29,19.3-39.47,18.02-40.75-1.29-115.83-8.58-153.58-11.58-38.18-3.43-39.04-3-38.18-18.02s3.86-45.04,4.29-60.06c.43-15.01-1.72-14.59,24.88-13.3,26.6,1.29,82.37,3.86,112.4,7.29,30.03,3.43,34.75,7.72,47.62,22.74Z"/>
        <path class="cls-5" d="m213.35,508.94c.43-32.6,6.43-102.53,5.15-165.59-1.29-63.06-10.3-118.83-18.45-165.16-7.72-46.33-15.01-82.8-11.58-102.53,3.43-19.73,18.45-22.31,50.19-6.86,31.75,15.44,81.08,48.91,111.54,66.92,30.46,18.02,42.47,20.59,81.51,22.31,39.04,1.72,104.68,3,141.57,2.57,36.89-.43,44.62-1.72,70.36-27.03,25.74-25.31,69.93-74.65,97.81-102.96,28.31-28.31,40.75-36.46,51.91-26.6,11.15,9.87,21.02,36.89,36.46,124.84,15.44,87.94,36.46,236.38,47.19,311.02,10.72,74.65,11.15,75.93-3.86,72.5-15.01-3-45.04-10.3-146.72-12.01-101.24-1.72-273.7,2.57-364.22,4.29-90.52,1.72-98.67,1.29-108.11,5.58-9.44,4.29-19.73,12.87-27.88,19.73-8.15,6.86-13.3,11.58-12.87-21.02Z"/>
        <path class="cls-5" d="m242.52,561.28c3.86,50.62,10.3,142.86,10.3,199.06.43,55.77-5.58,75.5.86,83.23,6.43,7.72,24.45,4.29,120.12,3.43,95.67-.86,267.69,1.72,359.93,3.86,92.23,2.14,103.82,4.29,108.11-53.2,4.29-57.49,1.72-174.17,1.29-234.23-.43-60.06.86-63.06-51.05-69.07-51.91-6.01-157.44-15.44-254.4-18.88-96.95-3-185.33,0-234.23,4.29-48.91,4.29-58.34,9.44-62.2,16.3-3.86,6.86-2.57,15.01,1.29,65.21Z"/>
        <path class="cls-4" d="m508.07,484.06c17.59,32.6,35.18,65.21,46.76,76.79,11.58,11.58,17.59,2.14,22.74-14.59,5.15-16.73,9.87-40.75,11.58-57.91,1.72-17.16.86-27.88-.86-33.03-1.72-5.15-3.86-5.15-15.01-.86-11.15,4.29-31.75,13.3-44.19,18.88-12.01,6.01-16.3,8.15-21.02,10.72Z"/>
        <path class="cls-4" d="m767.18,441.16c6.86-15.44,18.88-44.19,26.6-54.48,7.72-10.3,11.58-1.72,15.87,20.59,4.29,22.31,9.87,58.77,9.44,75.93-.43,17.16-6.43,15.87-13.3,12.01-6.86-3.43-15.44-9.01-23.59-15.01-8.15-6.01-16.73-12.87-20.16-17.16-3.43-4.72-1.72-6.44,5.15-21.88Z"/>
        <path class="cls-4" d="m315.02,435.15c5.15-18.88,13.3-50.62,19.73-62.63,6.43-12.01,11.15-4.29,18.88,14.16,7.72,18.45,18.02,47.19,22.74,61.78,4.72,14.59,3.86,15.01-7.29,15.01s-31.75-.43-43.76-.43-15.01,1.29-15.87-.86c-.86-2.14.43-8.15,5.58-27.03Z"/>
        <path class="cls-1" d="m217.64,534.68c21.02-24.88,42.04-49.76,65.21-62.63,23.17-12.87,48.05-13.3,74.65-12.87,26.6.43,54.05,2.14,67.35,3,12.87.86,11.58.86,10.72,10.72-.86,9.87-.86,29.6.86,38.18,1.72,8.58,4.72,5.15,33.89-9.01,29.17-14.16,84.51-39.9,112.4-52.34,27.88-12.44,27.88-11.15,36.89,2.14,9.01,13.3,27.46,39.04,36.46,51.91,9.01,12.87,8.15,13.73,19.3.86s33.46-39.04,46.33-50.62c12.87-11.58,16.73-8.15,31.32,3,14.59,11.58,39.9,30.89,63.49,41.18,23.59,10.3,45.9,10.72,68.21,11.58"/>
        <path class="cls-6" d="m257.96,651.37c6.43.86,18.02,8.15,24.45,19.73,6.43,11.15,8.15,26.6,6.43,37.75-1.72,11.15-6.86,18.45-11.15,26.17-4.29,7.72-6.43,15.44-10.3,19.73-3.86,4.29-9.01,5.15-12.01-6.01-3-11.15-3.86-34.75-4.29-51.48-.43-16.73-1.29-26.17-.86-33.89.43-7.72,1.29-12.87,7.72-12.01Z"/>
        <path class="cls-6" d="m354.92,727.3c-11.15,4.29-21.88,13.73-18.02,21.88,3.86,8.15,22.74,15.01,33.89,10.72,11.15-4.29,14.16-19.3,10.3-27.46-4.29-8.58-15.44-9.44-26.17-5.15Z"/>
        <path class="cls-6" d="m487.91,792.08c-12.01-3-39.9-5.15-53.62-.43-14.16,5.15-14.59,17.16-6.43,26.17,8.15,9.01,24.88,15.44,36.46,14.59,11.58-.86,18.45-8.58,22.31-14.59,3.86-6.01,5.15-10.3,7.29-14.16,2.57-4.29,6.01-8.58-6.01-11.58Z"/>
        <path class="cls-2" d="m810.08,518.38c28.31,30.89,56.63,61.78,66.49,87.94,9.87,26.17,1.72,48.48-16.73,73.36-18.45,24.88-46.33,52.34-72.07,71.21-25.31,18.45-47.62,27.88-70.36,37.32"/>
        <path class="cls-2" d="m782.2,754.76c-12.01-3.43-24.45-6.86-37.32-7.29-12.87,0-26.6,3-39.9,6.01"/>
        <path class="cls-2" d="m780.05,756.47c2.14,8.58,4.29,17.16-.43,27.46s-17.16,22.31-29.17,34.32"/>
        <path class="cls-6" d="m826.39,148.15c-8.58-5.15-24.45-8.15-37.75,1.29-13.3,9.44-24.45,31.32-21.88,52.34,2.57,21.02,18.88,40.75,36.04,54.48,17.16,13.73,34.75,20.59,43.76,22.74,8.58,2.14,8.15-.86,5.15-20.16-3-19.3-8.58-54.91-12.01-76.79-3.86-21.45-5.15-28.74-13.3-33.89Z"/>
        <path class="cls-6" d="m812.23,300.02c-7.72-1.29-18.45,3.43-19.3,10.3-.86,6.86,8.58,15.87,16.3,17.16,7.72,1.29,13.3-5.15,14.16-11.58.86-7.29-3.43-14.59-11.15-15.87Z"/>
        <path class="cls-6" d="m756.03,98.82c-7.72,1.29-20.59,9.87-27.03,18.88-6.43,9.44-6.86,19.73-.43,25.31,6.43,5.58,20.16,6.01,29.17.86,9.01-5.15,13.73-15.44,15.01-22.31,1.29-6.86-.86-9.87-3.43-14.16-2.14-4.29-5.58-9.87-13.3-8.58Z"/>
        <path class="cls-3" d="m486.62,262.7c16.3,0,29.6-13.3,29.6-29.6s-13.3-29.6-29.6-29.6-29.6,13.3-29.6,29.6c-.43,15.87,12.87,29.6,29.6,29.6Z"/>
        <path class="cls-3" d="m592.15,258.83c16.3,0,29.6-13.3,29.6-29.6s-13.3-29.6-29.6-29.6-29.6,13.3-29.6,29.6,13.3,29.6,29.6,29.6Z"/>
      </g>
    </g>
  </g>
</svg>