<?xml version="1.0" encoding="UTF-8"?>
<svg id="Layer_2" data-name="Layer 2" xmlns="http://www.w3.org/2000/svg" viewBox="0 0 926.84 863.19">
  <defs>
    <style>
      .cls-1 {
        fill: none;
        stroke: #010101;
        stroke-miterlimit: 2.61;
        stroke-width: 1.44px;
      }

      .cls-2 {
        fill: #1c0f16;
      }

      .cls-2, .cls-3, .cls-4, .cls-5, .cls-6 {
        fill-rule: evenodd;
      }

      .cls-2, .cls-3, .cls-4, .cls-5, .cls-6, .cls-7, .cls-8 {
        stroke-width: 0px;
      }

      .cls-3 {
        fill: #56ae47;
      }

      .cls-4 {
        fill: #399946;
      }

      .cls-5, .cls-7 {
        fill: #ea98b1;
      }

      .cls-6 {
        fill: #fdebd8;
      }

      .cls-8 {
        fill: #010101;
      }
    </style>
  </defs>
  <g id="Layer_1-2" data-name="Layer 1">
    <g id="Layer_1-3" data-name="Layer 1">
      <g>
        <path class="cls-8" d="m44.59,720.03l-3.68-7.36c9-4.5,18.41-9.41,32.32-16.77,15.96-8.59,33.55-18.82,45.41-29.05,12.68-10.64,19.23-21.68,26.18-33.55l6.95,4.09c-6.95,11.86-14.32,23.73-27.82,35.59-12.68,11.05-30.68,21.27-47.05,29.86-13.91,7.77-23.32,12.68-32.32,17.18Z"/>
        <path class="cls-8" d="m76.09,701.62h0c-3.68-2.05-7.36-3.27-13.09-3.68-6.55-.41-15.96,1.23-24.96,2.45l-1.23-8.18c9.82-1.23,19.64-2.86,26.59-2.45,7.77.41,12.27,2.45,16.36,4.5l-3.68,7.36Z"/>
        <path class="cls-8" d="m57.28,734.35l-5.73-5.73c6.95-6.95,14.32-13.91,18-19.23,2.86-4.5,2.86-7.36,3.27-11.05h8.18c0,4.09,0,9-4.5,15.55-4.09,5.73-11.46,13.09-19.23,20.46Z"/>
      </g>
      <path class="cls-4" d="m767.08,692.21c7.36-4.09,22.5-9.41,33.96-20.86,11.46-11.46,18.82-29.05,20.86-54.41,2.05-25.36-1.64-58.09-8.18-81-6.95-22.91-16.77-35.59-12.27-40.91,4.5-5.32,24.14-3.27,46.23,11.86,22.09,15.14,47.05,42.55,62.18,72.82,15.14,30.27,19.64,63.41,15.55,89.59-4.09,26.18-17.18,45.41-31.5,59.32-13.91,13.91-29.05,22.09-46.64,29.86-17.59,7.36-38.46,13.91-53.59,17.18-15.14,3.27-25.36,3.27-29.86.41-4.5-2.86-3.27-8.59-3.27-18.41s-.82-22.91-.82-32.73.82-15.55.82-20.05-.82-8.59,6.55-12.68Z"/>
      <path class="cls-3" d="m7.36,299.88c1.64-18.41,11.86-51.96,31.91-77.73,20.46-25.77,50.73-44.59,85.09-54.82,34.37-10.23,72.41-12.68,104.73,2.86,31.91,15.55,58.09,48.27,82.64,83.46,24.96,34.77,48.68,72,116.6,128.87,67.91,56.87,180.42,133.78,245.87,184.92,65.46,51.14,83.87,76.5,92.87,110.46,9,33.96,8.59,75.28,2.05,101.05-6.55,25.77-19.23,35.18-58.09,45.82-38.87,10.64-103.1,22.09-179.19,29.46-76.09,7.36-162.83,11.05-224.19,7.77-61.37-3.27-97.37-12.68-119.05-31.91-21.68-19.23-28.64-47.87-47.05-114.14-18.41-66.68-48.27-171.01-64.64-225.42-16.36-54.41-19.64-58.09-4.09-74.87,15.55-16.36,49.91-45.41,65.87-60.14,15.96-14.73,13.91-15.14,6.55-13.5-7.36,1.64-20.05,4.91-37.64,4.5-17.59-.41-40.09-4.91-55.64-9-15.55-4.09-24.55-8.18-31.91-11.86-7.77-3.68-14.32-7.36-12.68-25.77Z"/>
      <path class="cls-4" d="m151.78,76.91c2.05,5.32,6.55,15.14,9.82,27.41,3.27,12.27,5.32,27,6.14,38.05.82,11.05.82,18.41,1.64,21.68.82,3.68,2.86,3.27,4.5,2.86,1.64-.41,3.27-1.23,3.27-9-.41-7.77-2.05-22.91-4.91-36-2.45-13.5-5.73-25.36-9-33.96-3.27-8.59-6.95-13.91-9-16.36-2.05-2.45-3.27-2.05-3.68-1.23s-.82,1.23,1.23,6.55Z"/>
      <path class="cls-4" d="m49.09,121.1c2.86,3.68,9,10.23,14.73,18.82,5.73,9,11.05,19.64,14.32,28.23,3.68,8.18,5.32,13.91,6.55,16.77,1.64,2.45,3.27,2.05,4.5,1.23,1.23-.82,2.45-1.64,0-7.77-2.05-6.14-7.36-17.18-13.09-27-5.32-9.82-10.64-18.41-15.55-24.14-4.91-5.73-9-9-11.05-10.23-2.45-1.23-2.86-.82-3.27,0,0,0,0,.41,2.86,4.09Z"/>
      <path class="cls-4" d="m182.87,810.04c6.55-7.36,20.05-19.23,31.91-25.77,11.46-6.55,21.27-7.36,33.55-2.86,12.27,4.09,26.59,13.5,36.41,23.32,9.82,9.82,15.14,20.46,17.59,29.86,2.45,9.82,2.45,18.41.41,22.5-2.05,4.09-6.14,4.09-20.05,1.64-13.5-2.05-37.23-6.14-54.41-11.46-17.18-5.32-28.23-11.46-36-15.55-7.36-4.09-11.46-6.14-13.5-9-2.05-2.05-2.45-5.32,4.09-12.68Z"/>
      <path class="cls-4" d="m514.25,702.44c-13.5,4.09-33.14,11.86-43.77,27.41-11.05,15.55-13.5,38.87-9.82,53.59,3.68,14.73,14.32,20.86,21.68,27,6.95,6.14,10.64,11.46,19.23,13.5,8.59,2.05,22.09.41,33.14-6.14,11.05-6.55,19.23-17.18,25.36-27.41,6.14-9.82,10.23-18.82,17.18-26.18,6.95-7.36,17.59-14.32,26.18-23.32,8.18-9,14.32-20.46,15.96-31.91,1.23-11.46-2.05-23.32-10.23-31.09-7.77-7.77-20.05-11.05-31.91-6.95-11.46,4.09-22.5,15.96-31.91,22.09-9.82,5.32-17.59,5.32-31.09,9.41Z"/>
      <path class="cls-4" d="m651.3,828.45c1.23-6.95,3.27-18.41,8.59-30.27,5.32-11.86,14.32-24.14,24.14-31.5,9.82-7.36,20.86-10.23,31.91-10.64,11.05-.82,22.5.82,31.5,4.91,9,4.09,15.14,11.05,17.59,16.77,2.45,5.32,1.23,9.41-2.05,15.14-2.86,5.73-7.36,13.09-18.41,19.64-10.64,6.55-27.82,12.27-42.96,16.36-15.14,4.09-27.82,6.95-36,8.18-8.18,1.64-12.27,2.05-14.32,1.23-.82-.82-.82-3.27,0-9.82Z"/>
      <path class="cls-4" d="m85.5,499.93c4.09-4.09,13.5-9,23.73-10.23s21.27.82,26.59,8.18c5.32,7.36,5.32,20.05,8.18,29.05,2.86,9,8.59,14.32,11.46,20.46,2.86,6.14,2.86,13.09.41,20.46-2.45,7.36-7.77,14.73-15.55,21.27-7.77,6.55-17.18,12.27-22.5,14.73-5.32,2.45-6.14,2.05-9-5.73-2.86-7.77-6.95-22.91-11.46-38.87-4.5-15.96-9.41-32.32-12.27-42.14-2.86-9.82-3.68-12.68.41-17.18Z"/>
      <path class="cls-4" d="m284.33,425.06c-8.18,8.59-12.27,24.55-10.23,37.23,2.05,12.68,9.82,22.5,19.64,28.64,9.82,6.14,21.27,8.59,30.68,7.36,9.41-1.23,16.77-7.36,20.05-15.96,3.27-8.59,1.64-20.46-1.23-30.68-2.86-10.23-7.36-18.41-11.46-24.55-4.5-6.14-8.59-9.41-17.18-10.64-9-1.64-22.09,0-30.27,8.59Z"/>
      <path class="cls-4" d="m464.75,416.06c-1.23,3.68-1.64,13.09-3.27,21.68-1.64,8.59-4.91,16.36-6.95,24.96-2.45,8.18-4.09,17.18-.41,27,3.68,9.82,13.09,20.05,22.09,25.36,9,5.32,17.59,5.32,29.86,1.23,12.27-4.09,27.41-12.68,38.46-15.14,11.05-2.45,17.59.41,23.32,1.64,5.73,1.23,10.64.82,14.32.82s6.55.82.41-4.5c-6.14-5.32-21.68-16.36-36.41-27.82-14.73-11.46-29.05-23.32-41.73-32.73-12.68-9.41-23.32-15.96-29.86-20.46-6.14-4.09-8.59-5.73-9.82-2.05Z"/>
      <path class="cls-4" d="m579.3,547.39c-4.91.82-11.05,4.91-15.55,11.86-4.5,6.95-7.77,17.18-2.45,24.14,4.91,6.95,18.41,10.23,27,9.41,8.59-.82,13.09-6.14,17.18-13.09,4.09-6.95,7.36-15.14,4.91-20.05-2.45-4.91-10.64-6.95-16.77-8.59-6.14-1.64-9.41-4.5-14.32-3.68Z"/>
      <path class="cls-4" d="m212.33,170.6c-3.68,5.73-6.14,18.41-5.73,25.77.41,7.36,4.09,9.41,7.36,12.27,3.68,2.45,6.95,5.73,13.5,7.36,6.55,1.64,16.36,2.05,24.14,1.23,7.77-1.23,13.91-3.68,19.23-3.68s9.41,2.45,8.18,0c-1.23-2.45-7.77-9.41-17.59-18-9.82-8.59-22.91-18-31.91-23.73-8.59-5.73-13.5-6.95-17.18-1.23Z"/>
      <path class="cls-4" d="m262.24,237.69c-2.86,2.45-4.91,8.18-3.27,12.68,1.64,4.09,7.36,6.95,12.27,6.14,4.5-.82,8.18-5.32,8.18-9.41s-3.68-7.36-6.95-9.41c-3.27-2.05-7.36-2.86-10.23,0Z"/>
      <g>
        <path class="cls-5" d="m81.41,434.47c19.23-.82,56.87-5.32,84.28-16.36,27.41-10.64,45-27.41,57.28-49.09,12.27-21.68,18.82-48.68,18.82-62.18s-6.55-13.91-16.36-10.23c-9.82,3.68-22.91,11.46-35.18,19.64-12.27,7.77-23.73,15.96-31.09,20.05-7.36,4.09-10.23,4.91-20.05,12.68-9.82,7.77-25.77,22.5-40.09,36.82-13.91,14.32-25.77,28.64-31.5,37.23-5.73,8.59-4.91,12.27,13.91,11.45Z"/>
        <path class="cls-5" d="m138.69,72.82c20.05,0,36.41-16.36,36.41-36.41S158.73,0,138.69,0s-36.41,16.36-36.41,36.41,16.36,36.41,36.41,36.41Z"/>
        <circle class="cls-7" cx="29.86" cy="92.05" r="29.86"/>
      </g>
      <path class="cls-6" d="m123.14,325.65c28.23,0,51.14-22.91,51.14-51.14s-22.91-51.14-51.14-51.14-51.14,22.91-51.14,51.14,23.32,51.14,51.14,51.14Z"/>
      <g>
        <path class="cls-2" d="m96.55,307.24c14.32,0,26.18-11.86,26.18-26.18s-11.86-26.18-26.18-26.18-26.18,11.86-26.18,26.18c.41,14.73,11.86,26.18,26.18,26.18Z"/>
        <path class="cls-1" d="m77.73,251.19c-8.59-6.55-17.18-13.09-25.77-19.64"/>
        <path class="cls-1" d="m106.37,226.24c-2.45-10.64-4.5-20.86-6.95-31.5"/>
        <path class="cls-1" d="m148.51,229.92c4.09-11.46,8.59-22.5,12.68-33.96"/>
        <g>
          <path class="cls-8" d="m163.23,690.98l-1.64-8.18c2.86-.41,6.14-1.23,11.46-2.86,5.73-2.05,13.91-5.32,29.86-15.14,13.91-8.59,40.09-25.77,57.68-45,16.36-18,25.36-37.23,34.37-57.68l7.36,3.27c-9,20.05-18.41,40.5-35.59,59.73-18.41,20.05-45,37.64-59.32,46.64-16.36,10.23-24.96,13.91-31.5,15.96-6.14,2.05-9.41,2.86-12.68,3.27Z"/>
          <path class="cls-8" d="m172.23,702.44l-2.86-7.77c7.36-2.86,14.32-5.73,19.23-10.23,5.32-4.5,9-11.46,12.68-18.41l7.36,4.09c-4.09,7.36-8.18,15.14-14.32,20.46-6.55,5.73-14.32,9-22.09,11.86Z"/>
          <path class="cls-8" d="m159.14,675.03l-2.86-7.77c5.32-2.05,11.05-4.09,18.82-4.5,7.77-.41,17.59,1.23,27.41,2.45l-1.23,8.18h0c-9.41-1.23-18.82-2.86-25.77-2.45-6.55.41-11.46,2.05-16.36,4.09Z"/>
        </g>
      </g>
      <g>
        <path class="cls-3" d="m852.58,596.48c-4.91.82-11.05,4.91-15.55,11.86-4.5,6.95-7.77,17.18-2.45,24.14,4.91,6.95,18.41,10.23,27,9.41,8.59-.82,13.09-6.14,17.18-13.09,4.09-6.95,7.36-15.14,4.91-20.05-2.45-4.91-10.64-6.95-16.77-8.59-5.73-2.05-9.41-4.5-14.32-3.68Z"/>
        <path class="cls-3" d="m838.67,714.71c-2.86,2.45-4.91,8.18-3.27,12.68,1.64,4.09,7.36,6.95,12.27,6.14,4.5-.82,8.18-5.32,8.18-9.41s-3.68-7.36-6.95-9.41c-3.27-2.05-7.36-2.86-10.23,0Z"/>
        <path class="cls-3" d="m921.31,648.03c-2.86,1.64-7.77,6.55-9.82,11.86-2.45,5.32-2.05,10.64-2.05,16.77s0,12.68,1.64,14.73c1.64,2.05,5.73-.82,8.18-5.32,2.86-4.5,4.09-10.64,5.32-16.77.82-6.14,1.64-12.68,1.23-16.77-.82-4.5-1.64-6.14-4.5-4.5Z"/>
      </g>
    </g>
  </g>
</svg>