<?xml version="1.0" encoding="UTF-8"?>
<svg id="Layer_2" data-name="Layer 2" xmlns="http://www.w3.org/2000/svg" viewBox="0 0 933.97 784.5">
  <defs>
    <style>
      .cls-1, .cls-2, .cls-3, .cls-4 {
        fill: none;
      }

      .cls-1, .cls-5, .cls-6, .cls-7, .cls-8, .cls-9 {
        stroke-width: 0px;
      }

      .cls-2, .cls-3 {
        stroke-width: 2.3px;
      }

      .cls-2, .cls-3, .cls-4 {
        stroke-miterlimit: 2.61;
      }

      .cls-2, .cls-4 {
        stroke: #1c0f16;
      }

      .cls-3 {
        stroke: #010101;
      }

      .cls-5 {
        fill: #1c0f16;
      }

      .cls-5, .cls-6, .cls-7, .cls-8, .cls-9 {
        fill-rule: evenodd;
      }

      .cls-6 {
        fill: #56ae47;
      }

      .cls-7 {
        fill: #d27191;
      }

      .cls-8 {
        fill: #ea98b1;
      }

      .cls-9 {
        fill: #fdebd8;
      }

      .cls-4 {
        stroke-width: 2.88px;
      }
    </style>
  </defs>
  <g id="Layer_1-2" data-name="Layer 1">
    <g id="Layer_1-3" data-name="Layer 1">
      <path class="cls-6" d="m215.08,163.54c-.39-17.38,1.55-47.9,9.66-78.42,8.11-30.52,23.18-61.81,41.33-75.72,18.16-13.91,40.18-11.2,58.72.39,18.93,11.2,34.38,31.29,47.9,49.45,13.52,18.16,24.34,35.15,29.75,43.65q5.41,8.5,22.02-5.79c16.61-14.29,49.45-43.27,78.42-56.4,28.59-13.13,52.92-10.82,64.51-3.86,11.98,6.95,11.2,18.16,5.41,36.7-5.79,18.54-17.77,43.65-22.02,57.56-4.25,13.91-.77,16.22,20.86,9.66,21.63-6.57,61.81-21.63,86.53-25.5,24.72-3.86,34,4.25,37.47,22.02,3.09,17.77.39,45.58-7.34,66.83-7.73,21.25-20.09,36.7-27.04,47.52-6.95,10.43-8.5,16.61,8.5,20.86,17,4.25,52.92,6.57,69.92,14.29,17,7.34,15.84,19.7,7.73,34-7.73,14.29-22.41,30.52-31.68,42.11-9.27,11.2-13.52,17.77-6.57,19.7,7.34,1.93,25.88-.39,41.72,1.16,15.84,1.55,29.36,6.95,35.15,18.16,5.79,11.2,4.64,27.81-6.95,42.88-11.59,15.07-32.84,28.59-37.09,37.09-4.25,8.5,8.89,11.59,22.79,13.91,13.91,2.32,28.59,3.86,36.7,10.43,8.11,6.57,9.66,18.54,5.79,30.52-3.86,11.98-12.75,23.56-21.63,34.77-8.89,10.82-17.77,21.25-17.38,25.5.39,4.64,9.66,3.09,22.41,1.16,12.75-1.93,28.97-5.02,39.4,2.7,10.04,7.73,13.91,26.66,14.68,41.72.77,15.07-1.93,26.66.39,29.75,2.32,3.09,9.27-2.7,17.77-10.43,8.5-7.73,18.93-17,27.81-19.32,8.5-2.32,15.45,2.7,21.25,12.75,5.79,10.04,10.04,25.5,13.52,47.52,3.48,22.02,5.79,50.22,3.86,57.17-1.93,6.95-8.5-8.11-34-28.59-25.5-20.47-69.92-46.74-100.05-71.85-30.13-25.11-46.36-49.83-64.51-101.99-18.16-52.15-38.24-132.12-61.81-196.63-23.56-64.51-50.22-113.19-76.1-151.05-25.88-37.47-50.99-63.74-90.78-76.88-39.79-13.13-94.26-13.52-135.98-6.18-41.72,7.34-70.69,22.41-93.1,34.77-22.02,11.98-37.47,20.86-46.36,22.79-8.89,1.55-11.2-3.09-11.59-20.86Z"/>
      <g>
        <path class="cls-2" d="m119.67,373.3c-22.79-16.61-45.58-32.84-60.26-61.04-14.68-28.2-21.25-68.38-24.34-89.24-3.09-20.86-3.86-22.79-4.64-25.11"/>
        <path class="cls-2" d="m36.61,235.01c2.7-11.98,5.41-23.56,9.66-33.22,4.25-9.66,9.66-17,15.07-24.34"/>
        <path class="cls-2" d="m33.13,230.76c-7.34-6.95-14.68-13.91-20.09-21.25-5.41-7.34-8.89-15.45-10.43-19.32l-1.55-3.86"/>
        <path class="cls-2" d="m31.59,204.1c-1.93-10.43-3.86-20.86-5.79-31.29"/>
      </g>
      <path class="cls-8" d="m117.73,457.52c0-50.22,0-100.83,11.2-149.5,11.2-48.67,34-95.42,84.21-131.73,50.22-36.31,127.48-61.04,194.7-65.29,67.22-4.25,124,12.75,173.07,62.58,49.06,50.22,90.78,133.66,116.28,212.47,25.5,78.81,35.54,152.98,54.47,200.11,18.93,47.13,47.13,67.22,74.94,85.76,27.81,18.16,55.63,34.38,74.56,51.77,18.93,17.38,29.36,35.54,32.06,47.13,2.7,11.59-2.32,16.61-9.27,11.98-7.34-4.64-16.61-18.16-31.68-30.9-15.07-12.75-35.93-23.95-59.1-33.22-23.56-9.27-49.45-16.61-96.19-16.22-46.74.77-113.96,9.66-196.63,14.68-82.67,5.02-180.79,6.57-250.71-5.79-69.92-12.36-111.26-38.63-142.55-65.67-31.29-27.04-51.77-55.24-65.29-88.46-13.52-33.22-19.32-71.85-20.09-91.55s3.09-20.86,13.13-18.93c10.04,1.93,26.66,6.18,42.88,10.82Z"/>
      <path class="cls-7" d="m549.24,703.98c10.82-11.2,30.52-31.68,50.61-41.33,20.47-9.66,41.72-8.89,52.54-3.48,11.2,5.41,11.98,15.45,8.11,23.56-3.86,8.5-13.13,15.45-22.02,19.32-8.89,3.86-17.77,4.64-30.52,5.79-12.75,1.16-28.97,2.32-42.11,4.25-13.13,1.93-22.79,3.86-26.66,4.25-3.09.39-.77-1.16,10.04-12.36Z"/>
      <path class="cls-1" d="m117.73,457.52c0-50.22,0-100.83,11.2-149.5,11.2-48.67,34-95.42,84.21-131.73,50.22-36.31,127.48-61.04,194.7-65.29,67.22-4.25,124,12.75,173.07,62.58,49.06,50.22,90.78,133.66,116.28,212.47,25.5,78.81,35.54,152.98,54.47,200.11,18.93,47.13,47.13,67.22,74.94,85.76,27.81,18.16,55.63,34.38,74.56,51.77,18.93,17.38,29.36,35.54,32.06,47.13,2.7,11.59-2.32,16.61-9.27,11.98-7.34-4.64-16.61-18.16-31.68-30.9-15.07-12.75-35.93-23.95-59.1-33.22-23.56-9.27-49.45-16.61-96.19-16.22-46.74.77-113.96,9.66-196.63,14.68-82.67,5.02-180.79,6.57-250.71-5.79-69.92-12.36-111.26-38.63-142.55-65.67-31.29-27.04-51.77-55.24-65.29-88.46-13.52-33.22-19.32-71.85-20.09-91.55s3.09-20.86,13.13-18.93c10.04,1.93,26.66,6.18,42.88,10.82Z"/>
      <path class="cls-9" d="m151.73,456.75c0-6.95,0-18.93,1.55-25.11,1.55-6.18,5.02-6.57,15.84-6.57,10.43.39,28.2,1.16,37.47,2.32,9.27,1.16,8.89,1.93,8.89,10.43s0,23.95-1.16,31.68c-1.16,7.73-3.86,8.11-7.73,7.34-4.25-.77-9.66-2.32-19.32-4.25-9.27-1.55-22.41-3.48-28.97-5.41-6.57-1.55-6.57-3.48-6.57-10.43Z"/>
      <path class="cls-9" d="m222.81,472.97c-1.55-8.5-1.93-25.5-.39-34.38,1.55-9.27,5.79-10.43,18.54-11.98,12.75-1.16,34.38-2.32,47.52-1.55,13.13.39,17.38,2.32,20.09,8.11,2.7,5.79,3.86,15.07,4.25,25.11.77,10.04,1.16,20.09,0,25.11-1.16,4.64-4.25,3.86-15.07,3.09s-29.75-1.16-42.49-1.55c-12.75-.39-19.7-1.16-24.34-1.55-4.25-1.16-6.57-1.93-8.11-10.43Z"/>
      <path class="cls-4" d="m62.88,450.95c18.16,1.93,36.7,4.25,71.08,10.82,34.38,6.57,84.6,18.16,134.05,21.63,49.45,3.86,97.74-.39,146.02-4.25"/>
      <path class="cls-9" d="m317.07,413.09c64.13,0,116.28-52.15,116.28-116.28s-52.15-116.28-116.28-116.28-116.28,52.15-116.28,116.28,52.15,116.28,116.28,116.28Z"/>
      <path class="cls-5" d="m259.51,301.06c-1.93-9.27-1.55-26.27,5.02-41.72,6.57-15.45,19.32-28.97,35.54-33.61,16.61-4.64,37.09-.77,49.06,9.27,11.98,10.04,15.45,25.88,17,39.02,1.55,13.13,1.55,23.56.39,28.97-1.55,5.79-4.64,6.57-6.57,3.86-2.32-2.7-3.86-9.27-5.79-19.32-2.32-10.04-5.41-24.34-10.04-33.22-4.64-8.89-11.2-12.75-19.32-14.29-8.5-1.55-18.54-1.16-27.43,3.86-8.89,5.02-16.22,14.29-19.7,26.27-3.48,11.98-3.09,26.27-3.48,33.61-.39,7.34-1.93,7.73-5.02,7.73-3.48-.39-7.73-1.16-9.66-10.43Z"/>
      <path class="cls-7" d="m696.81,641.4c-8.11-.39-13.52,5.79-11.98,9.66,1.55,3.86,10.04,5.79,18.16,6.18,8.11.39,16.22-1.16,14.68-5.02-1.55-3.86-12.75-10.82-20.86-10.82Z"/>
      <path class="cls-7" d="m548.85,612.04c-13.91,1.93-28.97,8.89-34.38,17-5.41,8.11-1.16,17.38,7.34,20.09,8.5,2.7,20.86-1.16,34-4.25,13.13-3.09,27.04-5.02,32.45-9.66,5.41-4.64,2.32-11.98-5.02-17.38-8.5-5.02-20.47-8.11-34.38-5.79Z"/>
      <path class="cls-7" d="m619.55,422.75c-9.66,10.43-13.52,35.15-9.27,57.17,4.64,22.02,17.38,41.33,31.29,52.15,13.91,10.82,28.59,13.52,36.7,9.27,7.73-3.86,8.89-14.29,6.57-27.04-2.32-12.75-8.5-27.43-13.13-43.27-4.64-16.22-8.11-33.22-17.38-44.04-9.66-10.82-25.11-14.68-34.77-4.25Z"/>
      <path class="cls-7" d="m489.75,401.12c-3.09,7.34-4.64,22.02-1.16,34.77,3.86,12.75,12.75,23.56,22.79,27.81,10.43,4.25,22.41,1.55,31.68-3.86,9.27-5.79,16.22-14.68,12.75-22.79-3.48-8.5-17.38-16.22-27.81-23.18-10.43-6.95-18.16-12.75-24.34-16.22-5.79-3.09-10.82-3.48-13.91,3.48Z"/>
      <path class="cls-7" d="m521.04,253.16c-11.98,8.11-20.86,28.2-21.63,48.67-.77,20.09,6.57,40.56,18.54,54.47,11.98,13.91,28.2,22.02,40.95,24.72,12.75,2.7,22.41.39,30.52-9.27,8.11-9.66,15.84-26.27,15.84-41.33s-7.34-27.81-15.45-40.18c-8.11-12.75-17-25.11-28.97-33.22-11.98-8.11-27.81-11.98-39.79-3.86Z"/>
      <g>
        <path class="cls-3" d="m425.62,426.23c19.7,23.56,39.4,47.52,47.13,76.1,7.73,28.97,3.09,62.97-10.43,92.71-13.52,29.75-36.31,55.63-56.4,75.33-20.09,19.7-37.09,34-48.29,41.72-11.2,7.73-16.22,8.89-21.25,10.04"/>
        <path class="cls-3" d="m411.71,665.35c1.16,18.54,2.32,37.09.77,51.38-1.16,14.29-5.02,24.72-8.89,35.15"/>
        <path class="cls-3" d="m409.78,667.28c-17-5.41-34-10.43-50.99-9.66-17,1.16-34.38,8.5-51.77,15.84"/>
      </g>
    </g>
  </g>
</svg>