<?xml version="1.0" encoding="UTF-8"?>
<svg id="Layer_2" data-name="Layer 2" xmlns="http://www.w3.org/2000/svg" viewBox="0 0 830.37 781.72">
  <defs>
    <style>
      .cls-1, .cls-2 {
        fill: none;
      }

      .cls-1, .cls-3, .cls-4, .cls-5, .cls-6, .cls-7 {
        stroke-width: 0px;
      }

      .cls-2 {
        stroke: #010101;
        stroke-miterlimit: 2.61;
        stroke-width: 2.3px;
      }

      .cls-3 {
        fill: #1c0f16;
      }

      .cls-3, .cls-4, .cls-5, .cls-6, .cls-7 {
        fill-rule: evenodd;
      }

      .cls-4 {
        fill: #cf3928;
      }

      .cls-5 {
        fill: #ea634b;
      }

      .cls-6 {
        fill: #fddc51;
      }

      .cls-7 {
        fill: #fdebd8;
      }
    </style>
  </defs>
  <g id="Layer_1-2" data-name="Layer 1">
    <g id="Layer_1-3" data-name="Layer 1">
      <path class="cls-6" d="m200.53,141.64c-8.6-4.51-26.63-8.19-44.24-20.89-17.2-12.7-34-34.82-47.11-54.48-13.11-19.66-22.94-37.28-29.08-43.83-6.55-6.55-9.83-1.23-13.52,13.11-3.69,14.34-8.19,38.1-5.33,66.36,2.87,28.26,12.7,61.44,31.13,86.84,18.43,25.4,45.06,43.42,58.58,52.43q13.52,9.01,16.79,2.87c3.28-6.14,10.65-18.02,18.02-33.59,7.37-15.57,15.16-35.23,19.25-47.52,3.69-11.47,4.1-16.8-4.51-21.3Z"/>
      <path class="cls-4" d="m158.34,122.39c-13.93,13.11-24.58,19.66-33.18,36.87-8.6,17.2-13.93,38.1-13.52,48.34,0,4.92-.82,5.73-6.55-2.05-5.73-7.78-18.43-24.17-27.04-39.32,2.87-6.55,3.69-6.96,11.47-18.84,7.78-11.88,20.07-28.67,29.08-38.1q9.01-9.42,13.93-11.88c8.19,6.96,18.02,18.02,25.81,24.99Z"/>
      <path class="cls-1" d="m200.53,141.64c-8.6-4.51-26.63-8.19-44.24-20.89-17.2-12.7-34-34.82-47.11-54.48-13.11-19.66-22.94-37.28-29.08-43.83-6.55-6.55-9.83-1.23-13.52,13.11-3.69,14.34-8.19,38.1-5.33,66.36,2.87,28.26,12.7,61.44,31.13,86.84,18.43,25.4,45.06,43.42,58.58,52.43q13.52,9.01,16.79,2.87c3.28-6.14,10.65-18.02,18.02-33.59,7.37-15.57,15.16-35.23,19.25-47.52,3.69-11.47,4.1-16.8-4.51-21.3Z"/>
      <path class="cls-6" d="m607.71,121.98c8.6-4.51,26.63-8.19,44.24-20.89,17.2-12.7,34-34.82,47.11-54.48,13.11-19.66,22.94-37.28,29.08-43.83,6.55-6.55,9.83-1.23,13.52,13.11,3.69,14.34,8.19,38.1,5.33,66.36-2.87,28.26-12.7,61.44-31.13,86.84-18.43,25.4-45.06,43.42-58.58,52.43q-13.52,9.01-16.79,2.87c-3.28-6.14-10.65-18.02-18.02-33.59-7.37-15.57-15.16-35.23-19.25-47.52-3.28-11.88-4.1-17.2,4.51-21.3Z"/>
      <path class="cls-4" d="m651.95,100.27c13.93,13.11,24.17,24.17,32.77,40.96,8.6,16.79,9.42,25.81,11.47,35.64,2.05,9.83-3.28,18.02,3.69,11.47,8.6-7.78,20.48-26.22,30.72-40.55-2.87-6.55-3.28-6.96-10.65-18.43-7.37-11.47-20.07-28.26-28.67-37.69-8.6-9.42-10.65-11.47-15.98-13.52-7.78,6.96-15.57,15.57-23.35,22.12Z"/>
      <path class="cls-1" d="m607.71,121.98c8.6-4.51,26.63-8.19,44.24-20.89,17.2-12.7,34-34.82,47.11-54.48,13.11-19.66,22.94-37.28,29.08-43.83,6.55-6.55,9.83-1.23,13.52,13.11,3.69,14.34,8.19,38.1,5.33,66.36-2.87,28.26-12.7,61.44-31.13,86.84-18.43,25.4-45.06,43.42-58.58,52.43q-13.52,9.01-16.79,2.87c-3.28-6.14-10.65-18.02-18.02-33.59-7.37-15.57-15.16-35.23-19.25-47.52-3.28-11.88-4.1-17.2,4.51-21.3Z"/>
      <g>
        <path class="cls-5" d="m18.25,675.39c11.06-36.87,29.9-95.85,47.93-155.66,18.02-59.4,35.23-119.61,58.17-195.8,22.94-76.19,51.61-167.95,95.85-226.53,44.24-58.58,103.64-83.57,171.64-83.97,67.59-.41,143.37,23.35,196.62,88.48,53.25,64.72,83.97,170.41,103.64,272.82,19.25,102.41,27.04,201.95,38.51,260.94,11.06,58.99,25.81,77.83,29.08,89.71,3.28,11.88-5.33,17.2-22.12,22.94-16.79,5.73-41.78,11.88-66.36,9.83-24.58-2.46-48.75-13.52-64.31-27.04-15.57-13.52-22.94-29.9-25.4-30.72-2.46-1.23.41,13.11-3.28,27.86-3.28,14.75-12.7,29.9-31.13,35.64-18.43,6.14-45.47,2.87-63.08-10.65-17.61-13.52-25.4-37.69-31.54-38.1-6.14-.41-11.06,22.53-16.79,36.46-6.14,13.93-13.52,18.43-30.31,19.25-16.79.41-43.83-3.28-59.4-19.25-15.98-15.98-21.3-44.24-24.17-51.61-3.28-7.37-4.1,6.14-16.79,26.22-12.7,20.07-36.46,46.7-62.67,53.66-26.22,6.96-54.48-6.14-68.41-28.67-13.93-22.53-13.93-54.48-19.66-61.85-5.33-7.37-16.39,9.01-33.59,23.76-17.2,14.75-40.96,27.04-61.85,31.54s-40.14.82-47.52-8.19-4.1-24.17,6.96-61.04Z"/>
        <path class="cls-5" d="m707.66,441.49c6.14-6.14,15.98-13.11,24.99-20.89,9.01-7.78,16.79-15.98,20.48-29.08,3.69-13.11,4.1-30.72,5.33-40.96,1.64-10.24,4.51-12.7,8.19-11.47,3.69,1.23,7.78,6.55,9.42,12.29,1.64,5.73.41,11.88,0,15.98-.41,4.1-.41,5.33,1.23,3.69,1.64-1.64,5.33-6.96,11.06-9.83,5.73-2.87,13.52-3.28,18.02,0,4.51,3.28,5.33,10.65,2.05,17.61-3.28,6.96-11.06,13.93-11.47,15.16s6.96-2.87,14.34-4.1c7.37-1.23,14.75,1.23,17.61,4.92,2.87,4.1,1.23,9.83-2.46,13.93-3.69,4.51-9.42,7.37-18.84,10.24-9.42,2.46-22.53,4.51-30.72,6.14-8.19,1.23-11.88,1.64-16.79,4.92-4.92,3.28-10.65,9.01-19.25,16.39-9.01,7.37-21.3,15.98-28.26,20.48-6.96,4.51-9.01,4.51-10.65,2.46-1.64-2.05-3.28-6.14-2.87-11.06.41-4.51,2.46-10.24,8.6-16.79Z"/>
        <path class="cls-5" d="m82.97,472.62c-4.51-5.33-15.57-11.88-22.12-22.12-6.55-10.24-8.6-24.17-6.96-32.77,1.64-8.19,7.37-11.06,13.52-14.75,6.14-4.1,12.29-9.01,14.75-15.57,2.46-6.55,1.64-14.34-1.23-18.43-2.46-4.1-6.96-4.51-11.06-2.87-4.51,1.64-9.01,6.14-10.65,6.14-1.64.41,0-3.28.41-9.42.41-6.14,0-14.34-2.87-20.89-2.87-6.55-8.19-11.06-13.93-11.06s-11.88,4.51-13.93,11.88c-2.05,7.37.82,16.39,0,20.07-.82,3.69-4.92,1.64-9.01,0-4.1-1.64-8.19-2.46-12.7,0-4.1,2.46-8.19,9.01-6.96,15.57,1.23,6.96,8.19,13.93,14.34,20.48,6.14,6.55,11.88,12.29,14.75,19.25,2.87,6.96,2.87,14.75,5.33,25.4,2.46,10.65,6.96,24.17,13.52,34,6.55,9.83,15.16,15.98,21.3,19.66,6.14,3.69,9.42,4.1,11.47,2.05,2.05-2.05,2.46-6.55,3.69-11.47,1.23-4.92,2.87-9.83-1.64-15.16Z"/>
      </g>
      <path class="cls-4" d="m267.3,57.67c4.1,4.1,13.11,10.65,22.94,14.75,9.83,3.69,20.48,4.92,27.86,1.23,7.37-3.69,12.29-11.88,14.34-20.48,2.05-8.6,1.64-17.61-.82-22.12-2.46-4.92-6.96-5.33-11.47-4.92-4.51.41-9.42,2.05-15.57,4.92-6.14,2.87-13.93,6.96-20.48,10.24-6.55,3.28-12.29,6.55-15.57,8.6-3.69,1.64-4.92,3.69-1.23,7.78Z"/>
      <path class="cls-4" d="m277.95,96.17c-3.28,3.28-4.51,10.65-2.05,15.16,2.46,4.51,8.19,6.14,13.11,4.92,4.92-1.23,9.01-4.92,9.83-9.01.41-4.1-2.46-9.01-6.96-11.47-4.51-2.46-10.24-2.87-13.93.41Z"/>
      <path class="cls-4" d="m685.13,381.28c-7.37,5.73-20.89,25.4-24.99,42.6-4.1,17.2,2.05,31.95,8.6,47.11,6.55,15.16,13.93,30.72,18.43,41.37,4.51,10.65,6.14,16.39,9.42,12.7,3.69-4.1,9.01-17.61,12.29-29.9,3.28-12.7,3.69-24.17,1.23-40.96-2.46-16.79-8.6-38.92-12.29-54.48-3.69-15.57-5.33-24.17-12.7-18.43Z"/>
      <path class="cls-4" d="m648.67,500.07c-4.1,2.46-8.19,6.96-6.96,11.06,1.23,4.1,7.37,8.19,12.7,9.01,5.33.82,9.42-1.64,10.24-6.55.82-4.51-1.64-11.47-4.92-14.34-3.28-2.87-6.96-2.05-11.06.82Z"/>
      <path class="cls-4" d="m82.97,539.8c9.42.82,21.71.82,31.95,8.19s18.02,22.12,15.98,33.59c-2.05,11.47-13.93,20.48-23.76,30.72-9.83,9.83-16.79,20.89-27.04,26.22-10.24,5.33-22.53,4.51-30.72,2.05-8.19-2.87-12.29-7.37-12.7-15.57-.41-8.19,3.28-19.66,6.96-31.13,3.69-11.47,6.96-22.94,10.24-32.36,2.87-9.83,5.33-17.61,9.83-20.89,3.69-2.87,9.83-1.64,19.25-.82Z"/>
      <path class="cls-4" d="m159.98,550.86c-4.51,4.1-7.37,13.52-4.51,19.66,2.46,6.55,10.65,10.24,16.39,8.19,5.73-2.05,10.24-9.01,11.06-14.75.82-5.73-1.64-9.83-6.55-12.7-4.51-2.46-11.47-4.1-16.39-.41Z"/>
      <path class="cls-4" d="m146.46,614.77c-4.92,2.87-9.01,10.65-6.55,14.75s11.88,4.1,16.79,1.23c4.92-2.87,5.33-8.6,2.87-12.7-2.46-4.1-8.19-6.14-13.11-3.28Z"/>
      <path class="cls-4" d="m488.91,566.02c-11.06,4.51-26.63,10.65-37.69,20.48-11.06,9.83-17.2,23.35-14.75,30.72,2.46,6.96,13.93,7.78,22.12,4.51,8.19-3.28,12.7-9.83,20.89-11.88,8.19-1.64,19.66,1.23,30.31.41,10.65-1.23,20.48-6.14,20.89-15.98.41-9.83-9.01-23.76-16.79-29.49-7.78-5.73-13.93-3.28-24.99,1.23Z"/>
      <path class="cls-4" d="m654.81,573.8c-4.51,1.64-11.47,9.42-12.7,19.66-1.23,10.65,3.69,23.35,9.42,31.13,5.73,7.37,12.7,9.83,19.66,6.96,7.37-2.87,15.16-10.65,19.66-18.43,4.51-7.78,6.14-14.75,1.23-20.07-4.92-5.33-16.39-8.19-23.35-12.29-6.55-4.1-9.42-8.6-13.93-6.96Z"/>
      <path class="cls-7" d="m235.76,454.19c38.92,0,70.46-31.54,70.46-70.46s-31.54-70.46-70.46-70.46-70.46,31.54-70.46,70.46c0,38.92,31.54,70.46,70.46,70.46Z"/>
      <path class="cls-3" d="m235.76,424.7c22.53,0,40.96-18.43,40.96-40.96s-18.43-40.96-40.96-40.96-40.96,18.43-40.96,40.96,18.43,40.96,40.96,40.96Z"/>
      <path class="cls-7" d="m513.9,454.6c38.92,0,70.46-31.54,70.46-70.46s-31.54-70.46-70.46-70.46-70.46,31.54-70.46,70.46,31.54,70.46,70.46,70.46Z"/>
      <path class="cls-3" d="m506.12,421.83c22.53,0,40.96-18.43,40.96-40.96s-18.43-40.96-40.96-40.96-40.96,18.43-40.96,40.96,18.84,40.96,40.96,40.96Z"/>
      <path class="cls-7" d="m380.36,339.9c38.92,0,70.46-31.54,70.46-70.46s-31.54-70.46-70.46-70.46-70.46,31.54-70.46,70.46c-.41,38.92,31.54,70.46,70.46,70.46Z"/>
      <path class="cls-3" d="m385.28,283.78c22.53,0,40.96-18.43,40.96-40.96s-18.43-40.96-40.96-40.96-40.96,18.43-40.96,40.96,18.84,40.96,40.96,40.96Z"/>
      <path class="cls-7" d="m536.84,271.08c38.92,0,70.46-31.54,70.46-70.46s-31.54-70.46-70.46-70.46-70.46,31.54-70.46,70.46,31.54,70.46,70.46,70.46Z"/>
      <path class="cls-3" d="m544.62,241.18c22.53,0,40.96-18.43,40.96-40.96s-18.43-40.96-40.96-40.96-40.96,18.43-40.96,40.96,18.43,40.96,40.96,40.96Z"/>
      <path class="cls-7" d="m248.05,264.53c33.18,0,59.81-27.04,59.81-59.81s-27.04-59.81-59.81-59.81-59.81,27.04-59.81,59.81,27.04,59.81,59.81,59.81Z"/>
      <path class="cls-3" d="m255.01,238.72c19.25,0,34.82-15.57,34.82-34.82s-15.57-34.82-34.82-34.82-34.82,15.98-34.82,35.23,15.57,34.41,34.82,34.41Z"/>
      <path class="cls-2" d="m443.03,460.74c-7.78,11.88-18.43,21.71-31.13,28.26-40.14,20.48-88.89,4.51-109.37-35.23"/>
    </g>
  </g>
</svg>