<?xml version="1.0" encoding="UTF-8"?>
<svg id="Layer_2" data-name="Layer 2" xmlns="http://www.w3.org/2000/svg" viewBox="0 0 990.01 764.23">
  <defs>
    <style>
      .cls-1 {
        fill: none;
      }

      .cls-1, .cls-2, .cls-3, .cls-4, .cls-5, .cls-6, .cls-7, .cls-8 {
        stroke-width: 0px;
      }

      .cls-2, .cls-3, .cls-4, .cls-5, .cls-6 {
        fill-rule: evenodd;
      }

      .cls-2, .cls-7 {
        fill: #1c0f16;
      }

      .cls-3 {
        fill: #5a4598;
      }

      .cls-4 {
        fill: #b092c3;
      }

      .cls-5, .cls-8 {
        fill: #fdebd8;
      }

      .cls-6 {
        fill: #ec7aac;
      }
    </style>
  </defs>
  <g id="Layer_1-2" data-name="Layer 1">
    <g id="Layer_1-3" data-name="Layer 1">
      <path class="cls-5" d="m154.31,188.53c-26.93,0-48.79-21.86-48.79-48.79,0-26.93,21.86-48.79,48.79-48.79,26.93,0,48.79,21.86,48.79,48.79,0,26.93-21.86,48.79-48.79,48.79Z"/>
      <path class="cls-2" d="m154.31,164.72c-13.66,0-24.98-11.32-24.98-24.98,0-13.66,11.32-24.98,24.98-24.98,13.66,0,24.98,11.32,24.98,24.98,0,13.66-11.32,24.98-24.98,24.98Z"/>
      <path class="cls-3" d="m20.82,448.1c15.61-21.47,40.2-34.35,59.72-39.81,19.52-5.46,34.35-3.51,39.42,4.68,5.07,8.2.78,22.64-4.29,39.03-5.07,16.78-10.15,35.52-10.15,54.26,0,18.74,5.46,37.08,18.35,47.62,13.27,10.54,33.96,13.66,53.08,5.85,18.74-7.81,35.52-26.15,43.72-56.21,7.81-30.06,7.03-71.43-4.68-106.17-11.71-34.74-34.74-62.45-51.91-83.53-17.17-21.08-28.88-34.74-32.01-44.89-3.12-9.76,1.56-15.61,14.05-16.78,12.49-1.17,32.01,1.95,42.55,4.68,10.54,2.73,12.49,4.68,18.74-6.25,3.51-5.85,8.59-15.61,16-26.54-1.17-1.17-2.73-2.34-4.68-3.9-9.37-8.59-25.76-26.15-34.35-34.74-8.59-8.98-9.37-8.98-8.59-10.54,1.17-1.56,3.9-5.07,5.85-6.64,1.95-1.56,2.73-1.56,10.54,5.46,7.81,7.03,22.64,21.47,31.23,30.06,3.9,3.9,6.64,6.64,8.2,8.59,5.07-6.25,10.93-12.88,17.96-19.52,20.69-19.13,50.35-36.69,70.65-47.62-.78-.78-1.56-1.95-2.34-3.12-7.03-10.54-18.35-31.62-24.59-42.16-6.25-10.54-7.03-10.93-5.46-12.1,1.56-1.17,5.07-3.9,7.03-5.07,2.34-1.17,3.12-.78,8.59,7.81,5.85,8.98,16.39,26.54,22.64,37.08,3.12,5.07,5.07,8.59,6.25,11.32,17.17-8.59,19.13-8.2,22.64-19.52,3.9-11.71,9.76-36.69,18.35-50.74,8.98-14.05,20.69-17.96,31.23-13.66,10.54,4.29,19.52,16,29.67,27.32,10.15,11.32,21.08,21.86,38.64,34.74,17.56,12.88,41.38,28.1,67.92,47.23,26.54,19.13,56.21,42.16,81.97,72.99,25.76,30.84,48.01,69.87,76.9,110.07,28.88,40.2,64.79,81.19,94.07,99.92,29.27,18.74,52.3,15.61,69.48,3.12,17.17-12.49,28.88-34.35,33.96-56.6,5.07-22.25,3.9-44.89-6.25-62.84-10.15-18.35-29.67-32.4-39.03-47.23-9.37-14.83-8.98-30.84,2.34-40.2,11.32-9.37,33.57-11.71,55.43-4.68,22.25,7.03,44.5,23.81,60.5,58.16,16,33.96,25.76,85.48,16,131.15-9.76,45.67-39.42,85.87-71.04,108.51-31.62,22.25-65.97,26.93-96.8,26.15-30.84-.78-58.16-7.03-78.46-20.3-20.3-13.27-33.57-33.96-37.86-37.86-4.29-3.9.39,8.98.39,52.69,0,43.72-3.9,118.27-7.42,158.47-3.51,40.2-7.03,45.28-38.25,47.23-31.23,1.95-90.17.78-123.34.78-33.18-.39-40.59.78-43.72-13.66-3.12-14.05-1.95-43.33-1.56-60.89.39-17.56,0-23.03-1.17-26.15-1.17-3.12-2.73-3.51-10.54-1.56-8.2,1.95-22.25,6.64-31.62,6.25-9.37-.39-14.05-5.85-14.83,1.56-.78,7.42,1.95,27.32,2.73,44.89.78,17.56-1.17,32.4-10.54,40.2-9.37,7.81-26.54,9.37-55.04,7.81-28.49-1.17-68.31-5.07-89.39-8.98-21.08-3.9-23.42-7.81-22.25-40.59,1.17-32.4,6.25-93.29,8.98-126.08,2.73-32.79,3.51-37.86-3.51-27.71-7.42,10.15-23.03,35.13-43.33,54.26-20.3,19.13-46.06,32.4-69.48,38.64-23.42,6.64-45.28,6.64-66.75,1.17-21.47-5.46-42.16-16.78-56.99-38.25-14.83-21.86-23.42-54.26-24.2-85.09-1.17-30.84,5.46-60.11,20.69-81.58Z"/>
      <circle class="cls-8" cx="275.7" cy="48.79" r="48.79"/>
      <circle class="cls-7" cx="275.7" cy="48.79" r="24.98"/>
      <path class="cls-2" d="m305.37,352.86c-8.59,0-15.22-7.03-15.22-15.22,0-8.59,7.03-15.22,15.22-15.22,8.59,0,15.22,7.03,15.22,15.22.39,8.2-6.64,15.22-15.22,15.22Z"/>
      <path class="cls-2" d="m479.07,236.54c-8.59,0-15.22-7.03-15.22-15.22,0-8.59,7.03-15.22,15.22-15.22,8.2,0,15.22,7.03,15.22,15.22,0,8.2-6.64,15.22-15.22,15.22Z"/>
      <g>
        <path class="cls-4" d="m303.81,159.65c6.64.78,17.17,3.9,21.47,10.93,4.29,7.03,2.34,18.35-2.73,26.15-5.07,7.81-12.88,12.49-21.86,12.88-8.98.78-19.13-2.73-26.93-6.25-7.42-3.51-12.49-7.81-14.05-11.32-1.56-3.51,0-6.25,3.12-8.98,3.12-2.73,7.42-5.07,12.88-8.98,5.46-3.9,10.93-8.2,15.22-11.32,4.29-2.34,6.64-3.9,12.88-3.12Z"/>
        <path class="cls-4" d="m251.11,225.22c3.9-3.12,11.71-3.12,16-.39,4.29,2.73,5.07,8.59,2.73,12.49-2.34,3.9-7.42,5.85-11.71,6.25-4.29.39-7.42-1.56-9.37-5.46-1.56-3.51-1.56-9.76,2.34-12.88Z"/>
        <path class="cls-4" d="m368.99,140.13c7.42-.39,22.64,3.12,30.06,9.37,7.42,6.25,7.03,14.83-.78,19.13-7.42,4.68-22.25,5.07-32.4,2.73-10.15-2.34-14.83-7.03-14.83-11.32,0-4.29,5.07-7.42,7.42-11.32,3.12-3.51,3.12-8.2,10.54-8.59Z"/>
        <path class="cls-4" d="m234.72,281.04c1.95-.39,7.81,3.12,10.54,7.81,2.73,4.68,2.34,10.93.39,14.83s-5.07,5.46-8.59,4.68c-3.51-.78-6.64-4.29-6.64-7.81-.39-3.51,2.73-7.81,3.12-11.71.78-3.9-.78-7.42,1.17-7.81Z"/>
        <path class="cls-4" d="m103.18,409.07c-4.29,3.12-10.93,9.76-12.88,19.13-1.95,9.37,1.17,21.86,4.68,29.27,3.51,7.42,8.2,10.54,11.71,9.76,3.12-.78,5.46-4.68,8.2-13.27,2.73-8.2,6.64-21.08,7.42-29.27.78-8.2-.78-11.71-3.12-14.05-2.34-2.34-5.07-3.51-7.42-3.9-1.95-.39-4.29-.78-8.59,2.34Z"/>
        <path class="cls-4" d="m40.34,482.06c3.51,5.07,8.59,17.96,7.42,25.37-1.17,7.42-8.2,9.37-14.05,7.03-5.85-2.34-10.93-8.98-10.93-14.83,0-5.85,5.07-11.71,8.59-16,3.51-4.29,5.46-6.64,8.98-1.56Z"/>
        <path class="cls-4" d="m97.71,489.86c-4.68.39-12.1,2.34-17.56,5.85-5.46,3.51-8.59,8.98-6.25,14.44,2.34,5.46,10.15,11.32,15.22,14.05,5.07,2.73,7.42,2.73,9.76-1.17,2.34-3.9,4.68-12.88,5.85-18.35,1.17-5.46,1.56-8.98.78-11.32-.78-2.34-2.73-3.9-7.81-3.51Z"/>
        <path class="cls-4" d="m863.15,289.63c2.34-4.68,10.54-10.15,19.13-10.54,8.59,0,17.56,5.07,22.25,15.61,4.68,10.54,4.68,25.37,2.73,35.13-1.95,9.76-5.46,13.66-8.59,12.88-3.12-.78-5.07-6.25-10.15-13.66-5.07-7.42-12.49-16.78-18.35-23.81-5.46-6.64-9.37-10.93-7.03-15.61Z"/>
        <path class="cls-4" d="m931.07,342.71c5.46,1.56,13.27,8.2,15.22,15.22,1.95,7.03-2.34,14.83-9.37,18.35-7.03,3.51-17.56,2.73-23.42.39-6.25-2.34-8.2-5.85-6.25-9.76,1.95-3.9,7.42-7.81,10.15-11.32,2.73-3.12,2.34-5.85,3.51-8.59,1.56-2.34,4.68-5.85,10.15-4.29Z"/>
        <path class="cls-4" d="m931.85,304.85c2.34,0,5.46,1.17,6.64,3.51,1.56,2.34,1.56,5.46,0,7.81-1.56,2.34-4.29,3.51-7.03,3.51-2.73,0-5.85-1.17-6.64-3.51s-.39-5.46,1.17-7.81c1.17-2.34,3.51-3.51,5.85-3.51Z"/>
        <path class="cls-4" d="m369.38,617.89c6.25-2.34,14.05-3.51,18.74-2.34,4.68,1.56,6.64,5.46,2.73,9.37-3.9,3.9-14.05,7.03-21.08,7.42-7.03.39-11.32-2.34-10.93-5.46-.39-3.12,4.29-6.64,10.54-8.98Z"/>
        <path class="cls-4" d="m314.35,629.99c6.64,2.73,18.35,8.59,23.03,16.39,5.07,7.42,3.12,17.17-5.85,23.81-8.98,6.64-25.37,10.93-36.69,9.76-10.93-1.17-16.78-7.81-17.96-16.39-1.17-8.59,1.95-19.13,7.03-25.76,5.07-6.25,12.1-8.59,16.78-9.37s7.03-1.17,13.66,1.56Z"/>
        <path class="cls-4" d="m329.57,699.47c7.42-1.56,18.74-1.95,25.76.78,7.03,2.73,10.15,8.2,6.64,11.71-3.51,3.51-13.66,4.68-23.03,3.51-8.98-1.17-16.78-4.68-18.74-7.81-1.95-3.51,1.95-6.64,9.37-8.2Z"/>
      </g>
      <path class="cls-6" d="m452.13,297.43c18.74,4.29,39.42,17.56,53.48,34.74,14.05,17.17,21.08,37.86,24.2,59.72,3.12,21.86,1.56,44.11-7.42,63.23-8.98,19.13-25.76,34.74-45.28,41.38-19.13,6.64-40.98,4.68-56.99-6.25-16-10.93-26.15-30.45-35.52-50.35-9.37-19.52-17.56-39.42-19.52-57.38-2.34-17.96,1.56-33.96,8.2-46.84,7.03-13.27,17.17-23.42,30.45-30.84,13.27-7.03,29.67-11.71,48.4-7.42Z"/>
      <path class="cls-1" d="m452.13,297.43c18.74,4.29,39.42,17.56,53.48,34.74,14.05,17.17,21.08,37.86,24.2,59.72,3.12,21.86,1.56,44.11-7.42,63.23-8.98,19.13-25.76,34.74-45.28,41.38-19.13,6.64-40.98,4.68-56.99-6.25-16-10.93-26.15-30.45-35.52-50.35-9.37-19.52-17.56-39.42-19.52-57.38-2.34-17.96,1.56-33.96,8.2-46.84,7.03-13.27,17.17-23.42,30.45-30.84,13.27-7.03,29.67-11.71,48.4-7.42Z"/>
      <path class="cls-5" d="m522,434.44c-6.25-8.98-21.86-16.39-33.18-16-11.32.39-18.35,8.2-21.08,22.25-2.73,14.05-1.56,34.35.39,44.89s3.9,11.32,7.42,11.32c3.51,0,8.98-1.17,16.78-7.03,7.81-5.85,18.74-15.61,25.76-26.15,6.64-10.15,10.15-20.69,3.9-29.27Z"/>
      <path class="cls-5" d="m454.87,301.73c3.9,5.07,8.2,14.05,9.76,18.74s.39,5.07-7.03,9.76c-7.03,4.29-19.91,12.49-26.93,16.39-7.03,3.9-7.81,2.34-12.49-4.29-4.68-6.64-13.27-19.52-17.96-24.98-4.68-5.85-5.85-5.07-2.34,1.17,3.51,6.25,11.71,17.17,15.22,23.42,3.51,6.25,2.34,8.2-4.29,12.88-6.25,4.68-17.96,12.49-24.2,16-6.25,3.51-7.42,2.34-9.76-.78-2.34-3.12-5.85-8.2-7.42-11.32-1.56-3.12-1.17-4.68,0-8.2,1.17-3.51,3.12-8.59,5.85-13.66,2.73-5.46,5.46-10.93,10.54-16,5.07-5.07,12.1-9.76,18.35-13.66,6.25-3.9,11.32-6.64,17.96-8.59,6.64-1.95,14.83-2.73,20.69-2.73,6.64-.39,10.15.78,14.05,5.85Z"/>
    </g>
  </g>
</svg>