<?xml version="1.0" encoding="UTF-8"?>
<svg id="Layer_2" data-name="Layer 2" xmlns="http://www.w3.org/2000/svg" viewBox="0 0 791.31 882.89">
  <defs>
    <style>
      .cls-1, .cls-2 {
        fill: none;
      }

      .cls-1, .cls-3, .cls-4, .cls-5, .cls-6 {
        stroke-width: 0px;
      }

      .cls-2 {
        stroke: #010101;
        stroke-miterlimit: 2.61;
        stroke-width: 2.3px;
      }

      .cls-3 {
        fill: #1c0f16;
      }

      .cls-3, .cls-4, .cls-5, .cls-6 {
        fill-rule: evenodd;
      }

      .cls-4 {
        fill: #56ae47;
      }

      .cls-5 {
        fill: #fdebd8;
      }

      .cls-6 {
        fill: #9fcc66;
      }
    </style>
  </defs>
  <g id="Layer_1-2" data-name="Layer 1">
    <g id="Layer_1-3" data-name="Layer 1">
      <path class="cls-4" d="m142.72,273.02c-2.93,36.63,4.4,97.68-12.7,161.66-17.09,63.98-58.12,129.92-85.47,198.29-26.86,68.38-40.05,138.22-31.26,181.69,8.3,43.47,38.1,60.07,66.91,64.96,28.82,4.88,58.12-1.47,80.59-22.96,22.47-21,38.1-56.66,50.79-95.73,13.19-39.07,23.44-81.56,39.07-109.89,15.63-28.33,36.14-42.98,52.26-48.35,16.12-5.37,27.84-1.47,28.33,29.3.49,30.77-10.26,88.89-13.19,133.33-2.93,44.45,1.47,75.7,18.56,94.26,17.09,18.56,46.4,24.91,73.26,22.96,26.86-1.47,50.79-11.23,63-34.19,12.7-22.96,13.68-60.07,9.28-95.73-4.4-36.14-13.68-70.82-15.14-94.26-1.47-23.44,5.37-34.19,11.23-39.07,5.86-4.88,10.74-3.91,16.12,16.12,5.37,20.02,10.74,59.1,26.86,77.66,16.12,18.56,42.98,16.12,55.19,5.86,12.7-10.26,10.74-28.82,10.74-44.93-.49-16.12.98-30.28,6.35-30.77,5.37-.49,15.63,12.21,15.63,40.05s-10.26,69.84-1.47,104.03c8.3,34.19,35.17,60.56,65.45,64.96,30.28,4.4,64.47-12.7,87.42-39.07,22.96-26.37,35.17-62.03,29.3-114.29-5.86-52.26-30.77-121.61-70.82-175.34-40.05-53.72-95.73-92.31-133.33-140.66-37.61-48.35-57.14-106.96-66.91-147.5-9.77-40.54-9.77-63.49-15.14-75.7-5.37-12.21-16.12-13.19-28.82-12.7-12.7.49-28.82,2.93-34.68,10.74-6.35,8.3-2.93,21.98-4.88,37.12-2.44,15.14-10.26,32.23-32.23,45.42-22.47,13.19-59.1,23.44-90.84,24.42-31.75.98-58.61-7.33-76.19-20.51-18.07-13.19-26.86-30.77-36.14-37.12-9.28-6.35-19.54-.49-30.77,8.3-11.23,8.79-23.44,21-26.37,57.63Z"/>
      <g>
        <path class="cls-6" d="m141.25,432.24c7.81,11.72,21,48.35,17.09,75.7-3.91,27.35-24.91,44.93-39.56,54.7-14.65,9.77-22.47,11.23-28.82,12.21-6.35.98-20.02,5.37-17.09-3.42,2.93-8.79,18.07-33.21,25.4-49.82,7.33-16.12,16.12-28.82,20.02-41.51,3.91-12.7,7.33-23.44,10.26-34.68,2.93-11.23,4.4-24.91,12.7-13.19Z"/>
        <path class="cls-6" d="m147.6,563.62c-5.86-.49-22.47,3.42-30.77,11.23-8.79,7.81-9.28,19.05-5.37,26.37,3.91,7.33,12.7,9.77,20.51,7.33,7.81-2.93,14.65-11.23,18.07-16.61,3.42-5.37,3.42-6.84,1.95-9.28-1.95-2.44-5.37-5.37-4.4-9.28.49-3.91,5.37-9.28,0-9.77Z"/>
        <path class="cls-6" d="m49.92,644.7c7.81-.98,24.42,1.95,37.12,7.81,12.7,6.35,21,16.12,21,28.33-.49,12.21-9.28,27.35-17.09,36.63-7.81,9.28-14.16,14.16-21.49,12.7-7.81-1.47-17.09-8.79-21.98-15.63-5.37-6.35-6.35-12.21-8.79-16.12-2.44-3.91-5.86-5.37-7.81-6.35-2.44-.98-3.42-1.47-.98-7.33,2.44-5.86,3.42-16.12,6.35-24.91,1.95-7.81,5.86-14.16,13.68-15.14Z"/>
        <path class="cls-6" d="m685.82,667.16c-6.35.49-13.19,4.4-14.16,12.7-.98,8.79,3.42,21.49,10.26,28.33,6.84,6.35,16.12,6.35,22.47,2.44,6.35-3.91,9.77-12.21,9.28-19.05-.49-6.84-5.37-12.7-10.26-17.09-5.37-3.91-11.23-7.33-17.58-7.33Z"/>
        <path class="cls-6" d="m759.57,617.35c-9.77-1.47-27.84.98-33.7,13.19-5.86,12.21-.49,33.7,6.35,44.93,6.84,11.23,14.65,12.7,20.51,8.3,5.86-4.4,9.28-14.16,13.68-18.56,4.88-4.4,10.74-4.4,13.19-6.35,2.44-1.95.98-6.35-.49-11.72-1.95-5.37-3.91-11.72-5.86-17.58-1.95-5.86-3.91-11.23-13.68-12.21Z"/>
        <path class="cls-6" d="m671.17,487.43c-3.91,16.12-6.35,52.26,4.4,72.77,10.74,20.51,34.68,25.89,50.31,26.37,15.63.49,22.96-3.91,23.93-10.74.98-6.84-4.88-17.09-14.65-31.26-9.77-14.16-24.42-32.23-33.21-43.47-8.79-11.23-12.21-16.12-16.61-21-4.4-4.88-10.26-8.79-14.16,7.33Z"/>
        <path class="cls-6" d="m640.89,527.97c-6.35-.98-15.63,4.88-15.63,11.23s9.28,14.16,15.63,14.65c6.35.98,10.74-4.88,10.74-11.23s-3.91-14.16-10.74-14.65Z"/>
        <path class="cls-6" d="m622.33,432.73c-2.93,8.3-7.81,25.89-6.84,36.63.98,10.74,8.79,14.65,15.14,14.16,6.35-.49,12.21-5.86,17.09-10.74,4.88-4.88,8.79-9.28,6.35-14.16-2.44-4.88-6.35-10.74-11.72-15.14-5.37-4.4-9.28-8.3-10.74-11.23-1.47-2.93-5.37-3.91-5.86-5.37,0-1.47-.49-2.44-3.42,5.86Z"/>
      </g>
      <path class="cls-1" d="m142.72,273.02c-2.93,36.63,4.4,97.68-12.7,161.66-17.09,63.98-58.12,129.92-85.47,198.29-26.86,68.38-40.05,138.22-31.26,181.69,8.3,43.47,38.1,60.07,66.91,64.96,28.82,4.88,58.12-1.47,80.59-22.96,22.47-21,38.1-56.66,50.79-95.73,13.19-39.07,23.44-81.56,39.07-109.89,15.63-28.33,36.14-42.98,52.26-48.35,16.12-5.37,27.84-1.47,28.33,29.3.49,30.77-10.26,88.89-13.19,133.33-2.93,44.45,1.47,75.7,18.56,94.26,17.09,18.56,46.4,24.91,73.26,22.96,26.86-1.47,50.79-11.23,63-34.19,12.7-22.96,13.68-60.07,9.28-95.73-4.4-36.14-13.68-70.82-15.14-94.26-1.47-23.44,5.37-34.19,11.23-39.07,5.86-4.88,10.74-3.91,16.12,16.12,5.37,20.02,10.74,59.1,26.86,77.66,16.12,18.56,42.98,16.12,55.19,5.86,12.7-10.26,10.74-28.82,10.74-44.93-.49-16.12.98-30.28,6.35-30.77,5.37-.49,15.63,12.21,15.63,40.05s-10.26,69.84-1.47,104.03c8.3,34.19,35.17,60.56,65.45,64.96,30.28,4.4,64.47-12.7,87.42-39.07,22.96-26.37,35.17-62.03,29.3-114.29-5.86-52.26-30.77-121.61-70.82-175.34-40.05-53.72-95.73-92.31-133.33-140.66-37.61-48.35-57.14-106.96-66.91-147.5-9.77-40.54-9.77-63.49-15.14-75.7-5.37-12.21-16.12-13.19-28.82-12.7-12.7.49-28.82,2.93-34.68,10.74-6.35,8.3-2.93,21.98-4.88,37.12-2.44,15.14-10.26,32.23-32.23,45.42-22.47,13.19-59.1,23.44-90.84,24.42-31.75.98-58.61-7.33-76.19-20.51-18.07-13.19-26.86-30.77-36.14-37.12-9.28-6.35-19.54-.49-30.77,8.3-11.23,8.79-23.44,21-26.37,57.63Z"/>
      <path class="cls-5" d="m243.33,447.87c-1.95,10.74-3.42,32.72-2.44,43.96.98,11.23,4.4,11.72,20.02,13.19,15.63,1.47,43.47,3.42,56.66,2.44,13.19-.98,12.21-5.37,11.72-15.63-.49-10.26,0-26.37-1.47-34.19-1.47-8.3-4.4-8.3-17.58-10.26-13.19-1.95-36.63-5.37-49.33-7.33-13.19-2.44-15.63-2.93-17.58,7.81Z"/>
      <path class="cls-5" d="m385.45,456.66c2.93,7.33,7.81,21.49,11.72,27.35,3.42,5.86,5.86,3.42,13.19,1.47,7.33-1.95,19.54-4.4,26.37-6.84,6.84-2.44,7.81-4.4,6.84-12.21-.98-7.81-4.4-21.49-6.84-27.84-1.95-6.35-2.93-6.35-8.3-4.4-5.37,1.95-15.14,4.88-22.47,6.84-7.81,2.44-13.68,3.42-17.58,4.4-3.91.98-5.86.98-6.35,1.95-.49.98.49,1.95,3.42,9.28Z"/>
      <path class="cls-5" d="m448.95,433.7c.98,6.84,6.35,19.54,8.79,26.37,2.93,6.84,3.42,7.81,10.26,5.37,6.84-2.44,20.51-8.79,27.35-12.7,7.33-3.91,8.3-5.37,6.84-13.19-1.47-7.33-6.35-20.51-8.79-26.86-2.93-6.35-3.42-5.86-9.77-2.93-6.35,2.93-18.56,8.79-25.89,12.21-6.84,3.42-9.77,4.88-8.79,11.72Z"/>
      <path class="cls-2" d="m219.88,432.24c51.77,10.74,103.54,21,149.94,16.61,46.4-4.88,86.94-24.91,127.47-44.93"/>
      <path class="cls-4" d="m73.36,121.12c-4.88-5.37-17.09-14.16-27.35-19.05-10.26-4.88-17.58-5.37-18.56-.98-.98,4.4,5.37,14.16,12.21,22.96,6.84,9.28,14.16,18.07,19.05,20.02,4.88,1.95,7.33-1.95,9.28-5.37,1.95-3.42,3.91-5.86,6.35-8.3,1.47-1.95,3.91-3.91-.98-9.28Z"/>
      <path class="cls-4" d="m57.24,167.52c-4.88-3.42-16.61-7.33-28.33-5.86-12.21,1.47-24.42,8.3-27.84,12.21-3.42,3.91,1.47,4.88,12.21,8.3,10.74,2.93,27.35,8.3,36.14,8.79,8.3.98,8.3-2.44,8.3-5.37s0-5.86.98-8.79c.98-2.93,2.93-5.86-1.47-9.28Z"/>
      <path class="cls-4" d="m64.57,210.5c-5.37-1.47-16.61-1.47-26.37,1.95-10.26,3.42-19.05,10.26-21,14.16-1.95,3.91,2.93,4.88,13.68,6.84,10.74,1.47,27.35,3.42,34.68,3.42,7.33-.49,5.86-2.93,4.88-6.84-.98-3.91-1.47-7.81-1.47-11.23.49-3.91.98-6.84-4.4-8.3Z"/>
      <path class="cls-4" d="m549.07,26.86c4.88-5.37,17.09-14.16,27.35-19.05,10.26-4.88,18.07-5.37,18.56-.98.98,4.4-5.37,14.16-12.21,22.96s-14.16,18.07-19.05,20.02c-4.88,2.44-7.33-1.95-9.28-5.37-1.95-3.42-3.91-5.86-6.35-8.3-1.47-1.95-3.91-3.91.98-9.28Z"/>
      <path class="cls-4" d="m573,70.82c4.88-3.42,16.61-7.33,28.33-5.86,11.72,1.47,24.42,8.3,27.84,12.21,3.42,3.91-1.47,4.88-12.21,8.3-10.74,2.93-27.35,8.3-36.14,8.79-8.3.98-8.3-2.44-8.3-5.37s0-5.86-.98-8.79c-.98-2.93-3.42-5.86,1.47-9.28Z"/>
      <path class="cls-4" d="m566.65,122.59c5.37-.98,16.61-.49,26.37,2.93,9.77,3.42,18.56,10.74,20.51,14.65,1.95,3.91-3.42,4.88-14.16,5.86-10.74.98-27.35,2.44-34.68,1.95-7.33-.49-5.86-3.42-4.4-6.84,1.47-3.42,1.47-7.81,1.95-11.23.49-3.42-.98-6.35,4.4-7.33Z"/>
      <path class="cls-5" d="m140.76,269.6c49.82,0,90.84-40.54,90.84-90.84s-40.54-90.84-90.84-90.84-90.36,41.03-90.36,91.33,40.54,90.36,90.36,90.36Z"/>
      <path class="cls-3" d="m131.48,207.08c15.14,0,27.35-12.21,27.35-27.35s-12.21-27.35-27.35-27.35-27.35,12.21-27.35,27.35,12.21,27.35,27.35,27.35Z"/>
      <path class="cls-5" d="m486.07,181.69c49.82,0,90.84-40.54,90.84-90.84S536.37,0,486.07,0s-90.84,40.54-90.84,90.84c.49,49.82,41.03,90.84,90.84,90.84Z"/>
      <path class="cls-3" d="m488.51,111.36c15.14,0,27.35-12.21,27.35-27.35s-12.21-27.35-27.35-27.35-27.35,12.21-27.35,27.35,12.21,27.35,27.35,27.35Z"/>
    </g>
  </g>
</svg>