<?xml version="1.0" encoding="UTF-8"?>
<svg id="Layer_2" data-name="Layer 2" xmlns="http://www.w3.org/2000/svg" viewBox="0 0 919.38 740.15">
  <defs>
    <style>
      .cls-1, .cls-2, .cls-3, .cls-4 {
        fill: none;
      }

      .cls-1, .cls-5, .cls-6, .cls-7, .cls-8, .cls-9 {
        stroke-width: 0px;
      }

      .cls-2 {
        stroke: #1c0f16;
      }

      .cls-2, .cls-3 {
        stroke-width: 2.3px;
      }

      .cls-2, .cls-3, .cls-4 {
        stroke-miterlimit: 2.61;
      }

      .cls-3 {
        stroke: #010101;
      }

      .cls-5 {
        fill: #1c0f16;
      }

      .cls-5, .cls-6, .cls-7, .cls-8, .cls-9 {
        fill-rule: evenodd;
      }

      .cls-6 {
        fill: #add7e5;
      }

      .cls-7 {
        fill: #b092c3;
      }

      .cls-8 {
        fill: #ea98b1;
      }

      .cls-9 {
        fill: #fdebd8;
      }

      .cls-4 {
        stroke: #fdebd8;
        stroke-width: 2px;
      }
    </style>
  </defs>
  <g id="Layer_1-2" data-name="Layer 1">
    <g id="Layer_1-3" data-name="Layer 1">
      <g>
        <path class="cls-6" d="m79.33,607.87c-15.17-49.29-26.12-128.48-2.53-208.94,24.01-80.46,82.99-162.18,144.07-211.05,61.08-49.29,123.43-65.72,198.83-61.92,74.98,3.37,162.6,27.38,217.37,38.33,54.76,10.95,76.67,9.27,96.47,1.69,19.8-7.58,37.49-20.22,57.71-38.33,20.22-18.11,42.55-41.28,58.55-46.34,16.01-5.06,25.28,8,24.01,34.12-1.68,26.12-13.9,64.87-39.18,106.58-25.28,41.28-64.03,85.09-89.73,111.63-25.7,26.54-38.76,36.23-39.6,60.66-.84,24.43,10.53,64.03,10.11,108.68-.42,44.65-12.22,93.52-29.91,127.22-17.69,33.7-41.28,52.24-91.83,71.19-50.55,19.38-128.06,39.18-209.36,38.76-81.3-.42-166.4-21.91-218.63-42.13-52.24-21.48-71.19-40.86-86.36-90.15Z"/>
        <path class="cls-6" d="m892.77,23.17c-5.48,1.26-12.64,5.06-14.74,12.22-2.11,7.16.84,17.27,7.58,25.28,6.74,8,16.85,13.48,23.17,13.06,6.32-.42,10.11-6.74,10.53-14.32.42-7.58-1.26-17.27-4.21-23.17-2.53-6.32-6.32-9.27-9.69-11.37-3.37-2.11-7.16-2.95-12.64-1.69Z"/>
        <path class="cls-6" d="m872.97,0c-4.21,0-10.95,2.53-13.48,7.16-2.53,4.63-.84,10.95,1.68,14.32,2.53,3.37,6.74,3.79,9.69,2.11,3.37-2.11,5.48-6.32,7.16-9.69,1.26-3.37,2.11-5.9,1.26-8.43-.42-2.95-2.11-5.48-6.32-5.48Z"/>
      </g>
      <path class="cls-7" d="m386.85,135.64c-4.63,11.37-14.74,34.54-15.59,54.34-.84,19.8,8.43,37.07,22.75,44.23,14.32,7.16,34.12,5.06,47.6-3.79,13.48-8.43,21.48-23.17,22.33-36.65,1.26-13.48-4.21-25.7-13.06-32.02-8.85-6.32-21.06-6.32-28.22-.84-7.16,5.48-9.27,16.43-7.58,24.43,1.68,8,6.74,12.64,10.53,13.9,3.79.84,5.9-2.11,6.32-5.48,0-3.37-1.68-6.74,0-7.58,1.68-.84,6.74.84,8.43,5.9,1.68,5.06-.42,13.06-6.74,16.43-5.9,3.37-16.01,2.11-22.75-2.95-6.74-5.06-9.69-13.06-9.69-22.33s2.95-19.38,10.95-25.7c8-6.32,21.06-8.85,30.75-7.58,9.69,1.26,16.43,5.9,22.33,13.06,5.9,7.16,11.37,16.85,11.8,28.65.42,12.22-4.63,26.96-12.64,37.91-8.43,11.37-20.22,18.96-34.96,22.75-14.74,3.79-32.02,3.79-46.34-4.21-14.32-8-24.85-24.43-27.38-42.13-2.53-17.69,2.53-37.49,8-51.39,5.48-13.9,11.37-21.91,14.74-26.12,3.37-4.21,4.63-4.63,5.9-4.63s2.95.84,4.21.42c1.26.84,2.53,0-1.69,11.37Z"/>
      <path class="cls-1" d="m79.33,607.87c-15.17-49.29-26.12-128.48-2.53-208.94,24.01-80.46,82.99-162.18,144.07-211.05,61.08-49.29,123.43-65.72,198.83-61.92,74.98,3.37,162.6,27.38,217.37,38.33,54.76,10.95,76.67,9.27,96.47,1.69,19.8-7.58,37.49-20.22,57.71-38.33,20.22-18.11,42.55-41.28,58.55-46.34,16.01-5.06,25.28,8,24.01,34.12-1.68,26.12-13.9,64.87-39.18,106.58-25.28,41.28-64.03,85.09-89.73,111.63-25.7,26.54-38.76,36.23-39.6,60.66-.84,24.43,10.53,64.03,10.11,108.68-.42,44.65-12.22,93.52-29.91,127.22-17.69,33.7-41.28,52.24-91.83,71.19-50.55,19.38-128.06,39.18-209.36,38.76-81.3-.42-166.4-21.91-218.63-42.13-52.24-21.48-71.19-40.86-86.36-90.15Z"/>
      <path class="cls-8" d="m263.84,403.56c-4.63-18.11.42-39.18,14.32-50.97,13.9-11.8,37.07-14.32,58.98-12.22,21.91,2.11,42.55,8.43,65.29,10.53,22.75,1.68,47.6-1.26,69.09-2.95,21.48-1.68,40.02-2.53,52.66,8.85,12.64,11.37,19.8,34.12,1.68,57.29-18.11,23.17-61.08,46.34-103.63,52.24-42.55,5.9-84.67-4.63-112.47-17.27-27.8-12.64-41.28-27.38-45.92-45.5Z"/>
      <path class="cls-5" d="m375.89,460.01c-10.95-10.11-30.33-29.49-37.49-42.55-7.16-13.06-2.53-19.8,6.74-21.06,9.27-1.68,22.75,2.11,31.17,6.74,8.43,4.63,11.37,10.53,14.32,11.37s6.32-3.79,14.74-7.58c8.43-3.37,21.48-5.9,29.91-4.63,8.43,1.68,11.8,7.58,11.8,14.74s-3.37,15.17-13.06,24.43c-9.69,8.85-25.7,18.96-34.96,23.59-9.27,5.06-12.22,5.06-23.17-5.06Z"/>
      <path class="cls-1" d="m263.84,403.56c-4.63-18.11.42-39.18,14.32-50.97,13.9-11.8,37.07-14.32,58.98-12.22,21.91,2.11,42.55,8.43,65.29,10.53,22.75,1.68,47.6-1.26,69.09-2.95,21.48-1.68,40.02-2.53,52.66,8.85,12.64,11.37,19.8,34.12,1.68,57.29-18.11,23.17-61.08,46.34-103.63,52.24-42.55,5.9-84.67-4.63-112.47-17.27-27.8-12.64-41.28-27.38-45.92-45.5Z"/>
      <path class="cls-2" d="m244.04,236.74c20.64,11.8,41.28,23.59,51.81,29.49s10.53,5.9.42,11.37c-9.69,5.48-29.07,16.85-48.87,28.22"/>
      <path class="cls-2" d="m528.81,243.48c-20.64,11.8-41.28,23.59-51.81,29.49q-10.53,5.9-.42,11.37c9.69,5.48,29.49,16.85,48.87,28.22"/>
      <g>
        <path class="cls-8" d="m395.69,517.3c15.17-8,43.39-22.75,60.24-28.22,16.43-5.48,21.48-2.11,25.28,8.43,3.79,10.53,6.74,28.22,6.32,39.18-.42,10.53-4.63,14.32-5.48,18.11-.84,3.79,1.68,8,3.37,13.48,2.11,5.48,3.79,12.64,2.53,20.22-1.26,7.58-5.48,16.01-17.27,21.06-12.22,5.06-32.44,6.74-50.13.84-17.69-5.9-33.28-19.38-40.02-32.44-6.74-13.06-5.06-25.28-4.21-33.7.84-8.43.84-12.22,1.69-15.17.84-2.53,2.95-3.79,17.69-11.8Z"/>
        <path class="cls-8" d="m350.2,540.47c1.69-7.58,4.63-12.64,9.27-15.17,4.63-2.53,11.37-1.68,14.74-.84,3.37,1.26,3.79,2.95,4.21,11.8.42,8.85,1.26,25.28.42,34.54-.84,9.27-3.79,11.37-8,12.22s-9.27,0-13.48-2.95c-4.21-2.95-7.16-8.43-8.43-15.59-1.26-7.16-.84-16.85,1.26-24.01Z"/>
        <path class="cls-8" d="m348.93,528.67c-4.63-8-13.9-18.96-30.75-27.38-16.85-8.85-41.7-15.17-55.61-12.22-13.48,2.95-16.01,15.59-14.32,25.28,1.69,9.69,6.74,16.85,8.43,24.43,1.69,7.58-.84,16.01-3.37,25.7-2.53,9.69-4.63,21.06-4.63,28.65s3.37,11.8,12.64,14.32c9.27,2.53,25.28,3.79,42.13-1.26,16.43-5.06,33.7-16.85,41.7-24.85,7.58-8,5.9-12.64,5.9-17.69s1.69-10.95,2.53-16.43c.42-5.48,0-10.53-4.63-18.54Z"/>
      </g>
      <g>
        <path class="cls-9" d="m324.5,346.27c-2.11,5.48-2.53,15.17-2.53,20.64,0,5.06,1.26,5.9,9.27,6.74,8,.84,22.75,2.11,30.33,2.11,7.58-.42,8.43-2.11,8.85-7.16.42-5.48.84-14.32-1.26-18.96-2.11-5.06-5.9-5.9-12.64-7.16-6.32-1.26-15.17-2.53-21.06-2.53-5.9-.42-9.27.84-10.95,6.32Z"/>
        <path class="cls-9" d="m426.44,357.22c-1.68,5.9-.84,18.11,0,24.01.84,5.9,2.11,5.06,10.95,4.63,8.85-.42,25.28-.42,34.12-1.26,8.85-.84,10.11-2.53,10.11-8.85s-.84-17.27-5.06-22.33c-3.79-5.06-10.53-4.63-18.11-3.79-7.16.42-15.17,1.26-21.48,1.26-5.06.42-8.85.42-10.53,6.32Z"/>
        <path class="cls-4" d="m379.26,553.53c10.53-2.95,21.06-5.48,29.91-5.9,8.85-.42,15.59.84,17.27,3.79,1.69,2.95-2.53,6.32-6.74,8.43-4.21,1.68-8.43,1.68-12.22,1.68"/>
        <path class="cls-4" d="m343.46,552.26c-7.16,0-14.32,0-22.33-2.11-8-2.11-16.85-6.32-25.7-10.53"/>
      </g>
      <g>
        <path class="cls-3" d="m108.82,327.31c-14.32-16.43-28.65-32.86-50.55-37.07-21.91-4.21-51.39,4.21-56.45,31.17-4.63,26.96,15.59,72.46,38.33,107.84,22.75,35.39,48.02,60.24,71.61,77.93,23.59,17.69,44.65,29.49,56.03,34.96,11.37,5.48,12.22,5.48,13.48,5.48"/>
        <path class="cls-3" d="m115.14,509.72c11.8-1.68,24.01-3.37,36.23-2.11,12.22,1.26,24.43,5.48,37.07,9.69"/>
        <path class="cls-3" d="m119.35,513.09c.42,9.27.84,18.54,6.32,27.8,5.48,9.27,16.01,19.8,26.96,29.91"/>
      </g>
      <g>
        <path class="cls-3" d="m705.31,405.67c16.01.42,32.02.84,45.07,9.69,13.48,8.85,24.01,26.12,21.48,44.65-2.53,18.54-18.54,38.76-44.23,53.5-25.28,14.74-60.24,24.43-86.78,31.59-26.54,7.16-44.23,12.64-61.92,18.11"/>
        <path class="cls-3" d="m645.92,543.84c-8.43-7.16-17.27-14.32-27.38-19.8-10.11-5.48-21.91-9.69-33.7-13.9"/>
        <path class="cls-3" d="m641.28,545.1c-3.37,8.85-6.74,17.27-12.22,24.01-5.48,6.74-11.8,11.37-18.11,14.74-6.32,3.37-11.8,5.48-17.27,7.58"/>
      </g>
    </g>
  </g>
</svg>