<?xml version="1.0" encoding="UTF-8"?>
<svg id="Layer_2" data-name="Layer 2" xmlns="http://www.w3.org/2000/svg" viewBox="0 0 721.36 989.19">
  <defs>
    <style>
      .cls-1, .cls-2 {
        fill: none;
      }

      .cls-1, .cls-3, .cls-4, .cls-5, .cls-6, .cls-7 {
        stroke-width: 0px;
      }

      .cls-2 {
        stroke: #871c3d;
        stroke-miterlimit: 2.61;
        stroke-width: 1.44px;
      }

      .cls-3 {
        fill: #1c0f16;
      }

      .cls-3, .cls-4, .cls-5, .cls-6 {
        fill-rule: evenodd;
      }

      .cls-4 {
        fill: #db305f;
      }

      .cls-5 {
        fill: #fdebd8;
      }

      .cls-6 {
        fill: #871c3d;
      }

      .cls-7 {
        fill: #010101;
      }
    </style>
  </defs>
  <g id="Layer_1-2" data-name="Layer 1">
    <g id="Layer_1-3" data-name="Layer 1">
      <path class="cls-6" d="m357.64,801.31c10.43,40.85,20.42,81.7,26.07,102.55,5.65,21.29,6.52,23.03,19.99,29.98,13.47,6.95,39.54,18.69,49.97,26.94,10.43,8.26,4.78,12.6-9.56,8.69-14.34-3.48-36.94-15.21-49.1-22.16-12.6-6.95-14.77-9.56-21.29-32.59-6.52-23.03-17.82-66.92-23.03-89.52-5.21-22.6-4.78-24.33-2.61-24.77,1.74-.87,5.65,0,9.56.87Z"/>
      <g>
        <g>
          <path class="cls-7" d="m506.25,645.74c-8.26,0-16.51-1.3-25.2-3.91-22.6-6.95-46.5-23.03-69.96-38.68l5.65-8.26h0c22.6,15.21,46.06,31.29,66.92,37.81,19.55,6.08,38.68,3.91,60.84-6.52,21.29-9.99,46.5-27.81,67.36-47.37,19.99-19.12,35.2-39.54,44.76-53.02,9.99-14.34,15.64-23.9,21.29-33.03l8.69,5.21c-5.65,9.13-11.3,18.69-21.73,33.46-9.56,13.91-25.2,34.76-46.06,54.75-21.73,20.42-47.8,39.11-69.96,49.54-14.77,6.52-28.68,9.99-42.59,9.99Z"/>
          <path class="cls-7" d="m637.05,567.52l-3.04-9.56h0c20.86-6.08,42.59-12.6,55.19-19.12,12.17-6.52,16.08-13.04,18.25-17.38,2.61-4.78,3.91-7.39,4.78-9.56l9.13,3.91c-1.3,2.61-2.17,5.21-5.21,10.86-2.61,4.78-7.39,13.47-22.16,21.29-13.47,6.95-35.2,13.47-56.93,19.55Z"/>
          <path class="cls-7" d="m692.24,587.51h-1.3c-9.56,0-22.16-2.17-32.16-5.21-10.86-3.04-19.99-7.82-28.68-11.73l4.35-9.13h0c8.69,4.35,16.95,8.26,26.94,11.3,9.56,2.61,21.29,4.78,29.55,4.78,7.39,0,11.3-.87,15.64-2.61l3.04,9.56c-4.35,1.3-9.13,3.04-17.38,3.04Z"/>
          <path class="cls-7" d="m628.36,565.79l4.78-1.74-4.78,1.74c-4.35-13.47-8.69-26.94-9.56-37.81-.87-10.86,2.17-19.12,5.65-26.51,3.04-6.52,6.08-11.73,9.13-16.95l8.69,4.78c-3.04,4.78-5.65,9.99-8.69,16.51-2.61,5.65-5.21,12.17-4.78,21.73.43,9.56,4.78,22.6,8.69,35.2l-9.13,3.04Z"/>
        </g>
        <path class="cls-7" d="m48.24,838.25c-4.35-7.39-9.13-15.21-11.3-24.33-2.17-8.26-2.61-18.25-.87-27.38,1.3-7.39,3.91-14.77,13.91-20.86,2.61-1.74,5.21-3.04,8.69-4.35,7.39-3.48,16.51-8.26,26.94-16.51,10.43-8.69,30.42-28.25,44.32-61.71,12.17-28.68,18.69-66.05,24.77-102.55l9.99,1.74c-6.52,36.94-13.04,74.74-25.2,104.73-14.77,35.2-36.07,56.06-47.37,65.62-11.3,9.13-21.29,14.34-28.68,17.82-3.04,1.3-5.65,2.61-7.82,3.91-6.52,3.91-8.26,7.82-9.13,13.91-1.3,7.39-.87,16.08.87,23.03,2.17,7.82,6.08,14.34,9.99,21.73l-9.13,5.21Z"/>
        <path class="cls-7" d="m78.65,827.82c-5.21-4.78-10.86-9.99-15.21-16.95-3.91-6.52-6.95-15.21-8.26-23.9-.87-7.82-.43-15.21,0-22.16l9.99.87h0c-.43,6.52-1.3,13.04,0,19.99.87,7.39,3.48,14.77,6.95,19.99,3.48,5.65,8.26,9.99,13.04,14.77l-6.52,7.39Z"/>
        <path class="cls-7" d="m101.69,805.22c-3.04-8.69-5.65-17.38-10.86-23.9-5.21-6.52-12.6-12.17-20.86-17.38l5.65-8.26c8.26,5.65,16.95,11.73,23.03,19.55,6.08,7.82,9.13,17.38,12.17,26.94l-9.13,3.04Z"/>
        <path class="cls-7" d="m9.99,790.88l-9.99-.87c.87-9.13,1.74-19.55,9.13-28.25,6.95-8.26,19.99-14.77,31.72-15.21,11.73-.43,21.29,4.78,30.42,9.56l-4.78,8.69c-8.26-4.35-16.51-8.69-25.2-8.26-8.69.43-19.12,5.21-24.33,11.73-5.65,6.52-6.08,14.34-6.95,22.6Z"/>
      </g>
      <path class="cls-4" d="m73,375.89c23.03-39.98,58.66-92.99,97.34-125.59,38.68-32.59,80.39-45.63,119.07-37.81,38.68,7.82,74.74,36.07,99.95,53.02,25.2,16.95,39.11,22.6,53.02,27.81,13.91,5.21,27.81,9.99,32.16,14.77,4.35,4.78-.87,9.56-9.56,11.3s-20.42.87-18.69,6.08c1.74,5.21,17.82,15.64,33.46,29.98,16.08,14.34,31.72,32.59,36.94,59.1,5.21,26.51-.43,61.71-4.78,80.83-4.35,18.69-7.82,21.29-11.3,14.34-3.04-6.95-6.08-23.9-9.13-34.33-3.04-10.43-6.08-14.77-10.43-2.61-4.35,12.17-9.99,40.41-19.99,63.44-9.99,23.03-24.77,41.28-33.03,52.15-8.69,10.86-11.3,14.77-11.73,40.85-.43,26.07,1.3,73.87,1.74,109.07.43,34.76-.43,56.93-19.99,75.18-19.55,18.25-58.23,33.46-92.99,36.07-34.76,2.61-65.62-6.52-81.7-31.72-16.08-24.77-17.38-65.18-22.16-100.82-4.78-35.63-13.04-66.92-23.03-88.21-9.99-21.29-22.6-31.72-29.98-33.9-7.39-2.17-9.56,3.48-10.43,9.56-.87,6.08-.87,12.17-3.04,11.3-2.17-.43-6.52-7.82-11.3-19.12-4.78-11.3-10.43-26.94-14.77-29.98-3.91-3.04-6.52,5.65-7.82,14.34-1.3,8.69-1.3,16.51-4.78,18.25-3.48,1.3-10.86-3.48-16.51-24.77-5.65-21.29-9.56-58.66-13.91-72.57-4.35-13.91-9.56-4.35-14.34,3.91-4.78,8.26-9.13,15.64-12.6,9.99-3.48-5.65-6.08-24.77-2.17-47.8,3.04-24.77,13.47-52.15,36.5-92.13Z"/>
      <path class="cls-1" d="m170.78,438.03c25.2-3.91,55.19,3.48,83.43,7.82,28.68,4.35,55.62,6.08,86.04-1.3,30.42-7.39,64.31-24.33,86.48-29.11,22.16-4.78,32.59,1.74,33.46,19.55.87,17.38-6.95,46.06-27.81,70.83-20.42,25.2-53.45,46.93-86.48,59.1-32.59,12.17-65.62,14.34-97.77,7.39-32.59-6.52-64.75-22.16-88.21-40.41-23.9-18.25-39.11-39.11-36.94-57.36,2.61-17.38,22.6-32.59,47.8-36.5Z"/>
      <path class="cls-5" d="m216.41,414.13c31.72,0,57.36-25.64,57.36-57.36s-25.64-57.36-57.36-57.36-57.36,25.64-57.36,57.36c.43,31.72,26.07,57.36,57.36,57.36Z"/>
      <path class="cls-3" d="m192.51,392.83c18.25,0,33.03-14.77,33.03-33.03s-14.77-33.03-33.03-33.03-33.03,14.77-33.03,33.03,14.77,33.03,33.03,33.03Z"/>
      <path class="cls-5" d="m327.65,400.66c22.16,0,40.41-18.25,40.41-40.41s-18.25-40.41-40.41-40.41-40.41,18.25-40.41,40.41,18.25,40.41,40.41,40.41Z"/>
      <path class="cls-3" d="m311.57,383.27c13.04,0,23.47-10.43,23.47-23.47s-10.43-23.47-23.47-23.47-23.47,10.43-23.47,23.47,10.43,23.47,23.47,23.47Z"/>
      <g>
        <path class="cls-6" d="m170.78,438.03c25.2-3.91,55.19,3.48,83.43,7.82,28.68,4.35,55.62,6.08,86.04-1.3,30.42-7.39,64.31-24.33,86.48-29.11,22.16-4.78,32.59,1.74,33.46,19.55.87,17.38-6.95,46.06-27.81,70.83-20.42,25.2-53.45,46.93-86.48,59.1-32.59,12.17-65.62,14.34-97.77,7.39-32.59-6.52-64.75-22.16-88.21-40.41-23.9-18.25-39.11-39.11-36.94-57.36,2.61-17.38,22.6-32.59,47.8-36.5Z"/>
        <path class="cls-2" d="m239,630.1c-1.74,14.34-3.48,28.25.87,36.5,4.35,8.26,15.21,10.86,23.9,6.08,8.69-4.78,15.64-16.51,22.6-28.68"/>
        <path class="cls-2" d="m331.56,700.93c2.61,9.99,5.21,19.55,13.91,22.16,8.69,2.61,22.16-2.61,29.98-11.73,7.82-9.13,9.13-21.73,10.43-34.76"/>
        <path class="cls-2" d="m260.73,756.55c3.04,9.56,5.65,19.12,12.17,24.33,6.52,5.21,16.51,5.21,23.9,0,7.39-5.21,12.6-15.21,17.82-25.64"/>
        <path class="cls-6" d="m265.51,819.56c-10.43,40.85-20.42,81.7-26.07,102.55-5.65,20.86-6.52,23.03-19.99,29.98-13.47,6.95-39.54,18.69-49.97,26.94-10.43,8.26-4.78,12.6,9.56,8.69,14.34-3.48,36.94-15.21,49.1-22.16,12.6-6.95,14.77-9.56,21.29-32.59,6.52-23.03,17.82-66.92,23.03-89.52,5.21-22.6,4.78-24.33,2.61-24.77-2.17-.43-6.08,0-9.56.87Z"/>
        <path class="cls-6" d="m267.68,219.45c7.39-6.52,21.29-16.08,32.59-30.85,11.3-14.77,19.12-34.76,26.07-53.45,6.95-18.69,11.73-35.63,14.34-48.24,2.17-12.17,1.74-19.55,3.04-23.03.87-3.48,3.48-3.04,8.26-2.61,4.35,0,10.86,0,13.47,1.3,2.17,1.3.43,3.91-4.35,22.6-4.78,18.69-13.04,53.45-21.73,77.78-8.69,24.33-18.25,38.68-29.98,49.1-11.73,10.43-25.2,17.38-33.9,19.99-8.69,2.61-12.17,1.3-13.47-.87-1.3-2.17-1.74-5.21,5.65-11.73Z"/>
      </g>
      <path class="cls-4" d="m352.86,79.96c22.16,0,39.98-17.82,39.98-39.98S375.02,0,352.86,0s-39.98,17.82-39.98,39.98c0,22.16,17.82,39.98,39.98,39.98Z"/>
      <g>
        <path class="cls-5" d="m181.21,451.06c5.65,11.73,19.12,34.76,27.81,37.37,8.69,2.61,12.17-14.77,13.91-26.94,1.74-12.17,1.3-18.69-1.3-21.29-2.61-2.61-7.82-1.3-13.04-.87-5.21.43-10.43-.43-15.21-.87-4.78-.43-8.69-.87-11.73-.87-3.91.87-6.08,1.74-.43,13.47Z"/>
        <path class="cls-5" d="m271.16,457.58c5.21,9.99,14.34,29.55,22.16,34.33,8.26,4.78,15.21-5.65,19.55-16.08,4.35-10.43,5.65-20.42,3.04-24.77s-9.13-2.61-16.08-2.17c-6.95.87-13.91.43-20.42,0-6.08-.43-11.73-.87-13.47-1.3-1.74,0,0,.43,5.21,9.99Z"/>
        <path class="cls-5" d="m222.06,550.58c3.04-12.6,14.77-33.03,23.9-40.85,9.56-7.39,16.51-2.17,21.73,11.3,5.21,13.04,8.26,33.46,6.52,43.89-1.3,10.43-7.39,10.43-16.08,9.56-8.26-.43-19.12-1.74-26.94-4.78-7.39-2.61-12.17-6.95-9.13-19.12Z"/>
        <path class="cls-5" d="m360.24,547.1c-1.74-12.17-2.61-36.5.43-46.93,3.04-10.43,11.3-6.95,19.12,1.3,7.82,8.26,16.08,21.73,17.82,29.55,1.74,7.82-3.04,10.43-9.13,14.34-6.08,3.91-13.47,8.26-18.25,10.86-5.21,2.17-8.26,2.61-9.99-9.13Z"/>
        <path class="cls-5" d="m380.67,444.55c6.95,9.13,21.29,24.77,29.98,29.55,8.69,5.21,12.17-.43,13.47-12.17,1.3-11.73.43-29.98-3.04-37.37-3.48-7.82-9.99-5.21-18.25-2.17-8.26,2.61-18.69,5.65-23.9,8.69-5.21,3.04-5.21,4.35,1.74,13.47Z"/>
      </g>
    </g>
  </g>
</svg>