<?xml version="1.0" encoding="UTF-8"?>
<svg id="Layer_2" data-name="Layer 2" xmlns="http://www.w3.org/2000/svg" viewBox="0 0 676.7 1002.48">
  <defs>
    <style>
      .cls-1, .cls-2 {
        fill: none;
      }

      .cls-1, .cls-3, .cls-4, .cls-5, .cls-6, .cls-7 {
        stroke-width: 0px;
      }

      .cls-2 {
        stroke: #e77224;
        stroke-miterlimit: 2.61;
        stroke-width: 1.44px;
      }

      .cls-3 {
        fill: #1c0f16;
      }

      .cls-3, .cls-4, .cls-5, .cls-6 {
        fill-rule: evenodd;
      }

      .cls-4 {
        fill: #e77224;
      }

      .cls-5, .cls-7 {
        fill: #fddc51;
      }

      .cls-6 {
        fill: #fdebd8;
      }
    </style>
  </defs>
  <g id="Layer_1-2" data-name="Layer 1">
    <g id="Layer_1-3" data-name="Layer 1">
      <path class="cls-5" d="m512.42,167.6c11.5-.82,34.9-.82,53.78-6.57,18.88-6.16,33.25-18.47,42.29-22.58,9.03-4.52,12.73-.82,11.91,13.14-.82,13.96-5.75,38.18-22.99,51.73-17.24,13.96-46.39,17.65-64.04,19.3-17.65,2.05-23.81,2.05-27.1-1.23-3.28-3.28-3.28-10.67-3.69-19.3-.41-8.62-.82-19.3-1.23-25.45-.41-6.57-.82-8.21,11.08-9.03Z"/>
      <path class="cls-5" d="m157.71,164.31c-11.5-.82-34.9-.82-53.78-6.57-18.88-6.16-33.25-18.47-42.29-22.58-9.03-4.52-12.73-.82-11.91,13.14.82,13.96,5.75,38.18,22.99,51.73,17.24,13.96,46.39,17.65,64.04,19.3,17.65,2.05,23.81,2.05,27.1-1.23,3.28-3.28,3.28-10.67,3.69-19.3.41-9.03.82-19.3,1.23-25.45.41-6.16.41-8.21-11.08-9.03Z"/>
      <g>
        <path class="cls-4" d="m161.82,278.86c.41,140.82.82,426.14.82,568.6s-.41,142.05,20.94,143.28c21.35,1.23,64.46,4.52,84.16,3.28,19.71-1.23,15.6-6.16,13.96-36.54-1.23-30.38.41-85.8-.82-115.77-1.23-29.97-4.52-34.49,13.55-35.31,18.06-.82,58.3,2.46,78.41,4.52,20.12,2.05,20.12,3.28,18.06,33.25-1.64,29.97-5.34,89.09-5.75,119.47-.41,30.38,2.87,32.02,24.22,32.43,21.35.41,60.76,0,80.47-.41q19.71-.41,18.88-147.8c-.82-147.8-2.46-442.97-3.28-590.36-1.23-147.38-1.64-146.97-55.42-147.8-53.78-.82-161.34-2.87-217.59-3.28-56.24-.41-61.99.41-65.28,7.39-3.28,6.98-4.52,19.71-4.93,24.22-.82,4.11-.82,0-.41,140.82Z"/>
        <path class="cls-4" d="m517.76,519.84c13.96-10.26,40.64-26.27,54.6-36.13,13.96-9.85,14.78-13.55,16.42-20.94,1.64-7.39,3.69-18.88,8.62-25.86,4.93-6.98,13.55-10.26,19.71-9.44,6.57,1.23,11.08,6.16,11.5,13.55s-3.69,16.42-2.46,17.65c1.23,1.23,7.8-5.34,16.83-9.85,9.03-4.52,20.12-6.57,27.1-3.28,6.57,3.28,8.62,11.91,4.52,19.71-4.11,7.39-14.37,13.55-21.35,16.83-6.98,3.28-10.67,3.28-7.39,4.11,3.28,1.23,12.73,3.28,18.88,6.57,6.16,3.28,8.62,7.8,6.57,13.14-2.05,5.34-8.62,10.67-16.42,13.96-7.8,3.28-16.42,3.69-26.27,1.64s-20.53-6.57-27.92-8.62c-7.39-2.05-10.67-1.64-17.65,1.64-6.98,3.28-17.24,9.44-31.2,19.71-13.96,10.26-32.02,24.63-41.05,30.38-9.03,5.75-9.03,2.46-9.44-3.28-.41-5.75-.82-13.96-.41-20.12,1.23-6.57,2.87-11.08,16.83-21.35Z"/>
        <path class="cls-4" d="m158.95,530.11c-13.96-10.26-40.64-26.27-54.6-36.13-13.96-9.85-14.78-13.55-16.42-20.94-1.64-7.39-3.69-18.88-8.62-25.86-5.34-7.39-13.55-10.26-19.71-9.44-6.57,1.23-11.08,6.16-11.5,13.55-.41,7.39,3.69,16.42,2.46,17.65-1.23,1.23-7.8-5.34-16.83-9.85-9.03-4.52-20.12-6.57-27.1-3.28-6.57,3.28-8.62,11.91-4.52,19.71,4.11,7.8,14.37,13.55,21.35,16.83,6.98,3.28,10.67,3.28,7.39,4.11-3.28.82-12.73,3.28-18.88,6.57-6.16,3.28-8.62,7.8-6.57,13.14,2.05,5.34,8.62,10.67,16.42,13.96,7.8,3.28,16.42,3.69,26.27,1.64,9.85-2.05,20.53-6.57,27.92-8.62s10.67-1.64,17.65,1.64c6.98,3.28,17.24,9.44,31.2,19.71,13.96,10.26,32.02,24.63,41.05,30.38,9.03,5.75,9.03,2.46,9.44-3.28.41-5.75.82-13.96.41-20.12-1.23-6.57-2.87-11.08-16.83-21.35Z"/>
      </g>
      <path class="cls-1" d="m505.44,160.21c11.5-.82,34.9-.82,53.78-6.57,18.88-6.16,33.25-18.47,42.29-22.58,9.03-4.52,12.73-.82,11.91,13.14-.82,13.96-5.75,38.18-22.99,51.73-17.24,13.96-46.39,17.65-64.04,19.3-17.65,2.05-23.81,2.05-27.1-1.23-3.28-3.28-3.28-10.67-3.69-19.3-.41-8.62-.82-19.3-1.23-25.45-.41-6.57-.41-8.21,11.08-9.03Z"/>
      <path class="cls-1" d="m163.05,154.05c-11.5-.82-34.9-.82-53.78-6.57-18.88-6.16-33.25-18.47-42.29-22.58-9.03-4.52-12.73-.82-11.91,13.14.82,13.96,5.75,38.18,22.99,51.73,17.24,13.96,46.39,17.65,64.04,19.3,17.65,2.05,23.81,2.05,27.1-1.23,3.28-3.28,3.28-10.67,3.69-19.3.41-9.03.82-19.3,1.23-25.45.41-6.16.82-8.21-11.08-9.03Z"/>
      <g>
        <path class="cls-6" d="m278.82,787.93c-1.23-29.97-2.87-91.96-2.05-131.37,1.23-39.41,5.34-55.83,26.69-63.22,21.76-7.39,60.76-5.34,79.65,6.16,18.88,11.5,18.06,32.43,16.01,71.02-2.05,38.59-4.93,94.84-7.39,121.52-2.46,26.69-4.11,24.63-16.42,22.17-12.32-2.05-34.49-4.11-49.68-5.34-15.19-1.23-23.4-1.23-29.56-.41-6.16.82-11.08,2.87-13.55,4.93-2.46,2.05-2.46,4.52-3.69-25.45Z"/>
        <path class="cls-6" d="m166.33,959.53c2.87-5.75,8.21-13.14,14.78-16.42,6.57-3.28,14.37-2.87,20.12,2.46,5.75,5.34,9.85,14.78,11.91,22.99,1.64,7.8,1.23,13.96,1.23,13.14s.41-9.44,4.11-16.01c3.69-6.57,10.26-11.91,16.83-13.96,6.57-2.05,12.73-1.23,16.83,3.28,4.11,4.52,6.16,11.91,7.39,19.71,1.23,7.8,1.64,15.6,0,19.71-1.64,4.11-4.93,4.11-18.06,3.28-13.14-.41-35.31-1.64-48.85-2.46-13.55-.82-18.47-.82-21.35-2.05s-3.69-3.69-4.93-7.39c-1.23-3.28-2.05-7.39-2.46-11.91-.41-4.52-.41-8.21,2.46-14.37Z"/>
        <path class="cls-6" d="m389.26,958.3c2.05-5.34,6.57-8.21,11.91-9.44,4.93-.82,10.67,0,16.01,5.34,5.34,5.34,10.67,14.37,13.14,19.71,2.46,5.34,2.46,6.16,2.87,3.28.41-2.87.82-9.44,4.93-15.19,4.11-5.75,11.91-10.26,18.88-11.91,7.39-1.64,13.96,0,18.06,5.34,4.11,5.34,5.75,13.96,6.57,17.65.82,3.69.82,2.05,2.46-1.64,1.64-3.69,5.34-9.44,10.26-11.5,4.52-2.46,10.67-1.23,13.55,0,2.87,1.23,2.87,3.28,2.05,9.03-.82,5.75-2.46,15.6-4.52,21.76-2.05,6.16-4.93,9.03-20.94,10.67-16.42,1.23-45.98,1.23-63.22.82-17.24-.41-21.76-1.64-25.04-3.28-3.28-1.64-4.93-4.11-6.16-7.8-1.23-3.28-2.05-7.8-2.46-13.96-.82-5.75-.82-13.55,1.64-18.89Z"/>
      </g>
      <path class="cls-1" d="m161.82,278.86c.41,140.82.82,426.14.82,568.6s-.41,142.05,20.94,143.28c21.35,1.23,64.46,4.52,84.16,3.28,19.71-1.23,15.6-6.16,13.96-36.54-1.23-30.38.41-85.8-.82-115.77-1.23-29.97-4.52-34.49,13.55-35.31,18.06-.82,58.3,2.46,78.41,4.52,20.12,2.05,20.12,3.28,18.06,33.25-1.64,29.97-5.34,89.09-5.75,119.47-.41,30.38,2.87,32.02,24.22,32.43,21.35.41,60.76,0,80.47-.41q19.71-.41,18.88-147.8c-.82-147.8-2.46-442.97-3.28-590.36-1.23-147.38-1.64-146.97-55.42-147.8-53.78-.82-161.34-2.87-217.59-3.28-56.24-.41-61.99.41-65.28,7.39-3.28,6.98-4.52,19.71-4.93,24.22-.82,4.11-.82,0-.41,140.82Z"/>
      <path class="cls-2" d="m270.61,632.74c32.84.41,65.28.41,98.12.82"/>
      <path class="cls-2" d="m269.38,673.39c27.92-.82,55.83-2.05,83.75-2.87"/>
      <path class="cls-2" d="m269.79,720.19c30.38-.41,60.76-.82,91.14-1.23"/>
      <path class="cls-2" d="m271.02,764.94c26.27-.41,52.55-.41,78.82-.82"/>
      <ellipse class="cls-1" cx="348.2" cy="483.31" rx="127.68" ry="48.44"/>
      <g>
        <ellipse class="cls-7" cx="348.2" cy="483.31" rx="127.68" ry="48.44"/>
        <path class="cls-5" d="m123.64,12c-6.57,8.62-11.91,26.27-11.5,48.44.41,22.17,5.75,49.68,13.96,64.04,7.8,14.37,18.47,16.42,86.62,17.24,68.15.82,193.78.82,259.87-1.23,66.1-2.46,72.26-6.98,75.54-11.91,3.28-4.93,3.69-10.26,4.52-29.15.82-18.47,1.64-50.5-.41-68.97-2.05-18.47-7.39-23.81-27.51-26.69C504.62.51,468.9-.31,403.63.1c-65.28.41-160.93,1.64-213.07,2.46-52.14.82-60.35.82-66.92,9.44Z"/>
      </g>
      <g>
        <path class="cls-4" d="m222.58,8.31c3.69,6.16,13.96,18.47,25.86,22.17,11.91,3.69,25.04-.82,32.84-5.75,7.8-4.93,9.85-9.85,9.44-13.96,0-4.11-2.46-6.57-11.08-8.21-8.62-1.64-23.81-1.64-34.07-1.64s-16.01.82-20.12,1.23c-4.11,0-6.57,0-2.87,6.16Z"/>
        <path class="cls-4" d="m185.22,34.58c-4.93,2.46-9.85,7.39-9.44,11.5.82,4.11,7.39,7.8,14.78,6.57,7.39-1.23,15.6-6.57,17.24-11.08,1.64-4.52-3.69-7.39-8.62-8.62s-9.44-.82-13.96,1.64Z"/>
        <path class="cls-4" d="m190.56,102.73c9.03,4.52,27.92,7.8,43.11,6.16,15.19-1.64,26.27-9.03,28.74-16.83,2.46-7.8-4.52-16.83-15.19-20.94-10.67-4.11-25.86-3.69-36.95,0-11.5,3.69-18.88,10.26-23.4,16.01-4.11,5.75-5.34,11.08,3.69,15.6Z"/>
        <path class="cls-4" d="m493.54,41.56c-6.98.41-16.83,3.28-19.71,9.85-3.28,6.57.41,16.01,6.16,20.12,5.75,3.69,13.55,1.64,18.88-1.64,5.75-3.69,9.44-8.62,10.67-12.73,1.23-4.11.41-7.39-2.46-9.85-2.46-3.69-6.57-6.16-13.55-5.75Z"/>
        <path class="cls-4" d="m543.62,113c-7.39-4.11-22.58-9.44-31.61-8.62-9.03.41-11.5,6.57-10.67,13.14.82,6.57,5.34,13.55,9.44,16.83,4.52,3.28,8.62,2.87,13.55,2.05,4.93-.82,10.67-2.05,15.19-4.11,4.52-2.05,7.39-5.34,9.03-8.62,2.05-3.28,2.46-6.57-4.93-10.67Z"/>
        <path class="cls-4" d="m449.61,79.33c-5.34-1.64-12.32-.82-15.6,2.46-3.28,3.28-2.87,9.44,2.87,12.32,5.75,2.87,16.42,2.46,21.35.82,4.93-1.64,3.69-4.11,1.64-7.39-2.05-3.28-4.93-6.98-10.26-8.21Z"/>
      </g>
      <path class="cls-6" d="m284.16,361.78c39.41,0,71.84-32.02,71.84-71.84s-32.02-71.43-71.84-71.43-71.43,32.02-71.43,71.43c0,39.82,32.02,71.84,71.43,71.84Z"/>
      <path class="cls-3" d="m281.7,309.65c15.19,0,27.92-12.32,27.92-27.92s-12.32-27.92-27.92-27.92-27.92,12.32-27.92,27.92c.41,15.19,12.73,27.92,27.92,27.92Z"/>
      <path class="cls-6" d="m425.8,384.36c29.15,0,52.96-23.81,52.96-52.96s-23.81-52.96-52.96-52.96-52.96,23.81-52.96,52.96c-.41,29.15,23.4,52.96,52.96,52.96Z"/>
      <path class="cls-3" d="m437.7,356.04c11.5,0,20.53-9.44,20.53-20.53s-9.44-20.53-20.53-20.53-20.53,9.44-20.53,20.53,9.44,20.53,20.53,20.53Z"/>
      <path class="cls-3" d="m246.39,180.33c7.8-5.34,22.17-13.96,38.18-15.19,15.6-1.23,32.43,5.75,42.7,13.55,10.26,7.8,13.96,17.24,14.78,22.99.82,5.75-1.23,7.8-4.11,7.8s-6.57-2.05-13.14-6.98c-6.57-4.93-16.42-12.32-25.04-16.83-8.62-4.52-16.42-5.34-25.04-3.28s-17.65,6.98-23.81,10.26c-5.75,3.28-8.62,4.11-10.67,3.28-2.05-.82-3.69-3.28-3.69-5.75s2.05-4.52,9.85-9.85Z"/>
      <path class="cls-3" d="m400.75,251.35c6.16-4.11,17.65-11.5,28.74-11.5s21.76,6.98,28.74,13.14c6.98,6.16,9.85,11.5,10.67,14.78.82,3.28-.82,4.93-2.87,4.93s-4.52-1.64-9.44-4.93c-4.93-3.28-11.91-9.03-18.06-12.32-6.16-3.28-11.91-4.11-18.06-2.46s-12.73,5.34-17.24,7.39c-4.11,2.05-6.16,2.87-7.8,2.46-1.64-.41-2.46-2.46-2.46-4.11s1.64-3.28,7.8-7.39Z"/>
      <g>
        <path class="cls-6" d="m258.3,456.21c3.28,7.8,13.55,23.4,20.53,29.56,7.39,6.16,11.5,3.28,15.6-6.16,4.11-9.44,8.62-24.63,8.62-32.84s-4.52-8.21-11.5-6.98c-7.39,1.23-17.65,4.52-24.63,6.16-7.8,2.05-11.91,2.46-8.62,10.26Z"/>
        <path class="cls-6" d="m321.93,442.66c2.05,6.98,8.62,20.12,15.19,25.45,6.57,5.34,12.73,2.87,17.24-4.52,4.93-7.39,8.62-18.88,7.39-24.63-.82-5.75-6.57-4.93-13.55-4.93-6.98.41-15.6.82-20.94.82-4.93.82-7.39.82-5.34,7.8Z"/>
        <path class="cls-6" d="m336.71,520.25c3.28-7.8,9.44-20.94,15.19-27.92,5.75-6.57,11.5-6.57,18.47.41,6.98,7.39,15.19,21.76,14.78,29.15-.41,7.8-9.03,8.62-18.06,9.44-9.44.41-18.88.41-24.63.41s-7.39,0-7.8-1.23c-.82-.41-.82-2.46,2.05-10.26Z"/>
        <path class="cls-6" d="m410.61,517.38c-1.64-9.03-.82-27.51,1.64-36.54,2.46-9.03,6.57-8.62,13.96-2.05,7.39,6.57,17.65,18.88,20.12,25.86,2.46,7.39-1.23,10.67-6.57,13.14-5.34,2.46-16.01,4.11-20.94,5.75-5.34,1.64-6.57,2.46-8.21-6.16Z"/>
      </g>
    </g>
  </g>
</svg>