<?xml version="1.0" encoding="UTF-8"?>
<svg id="Layer_2" data-name="Layer 2" xmlns="http://www.w3.org/2000/svg" viewBox="0 0 586.78 921.3">
  <defs>
    <style>
      .cls-1 {
        stroke: #f0a1c3;
        stroke-width: 1.44px;
      }

      .cls-1, .cls-2 {
        fill: none;
        stroke-miterlimit: 2.61;
      }

      .cls-2 {
        stroke: #1c0f16;
        stroke-width: 2.3px;
      }

      .cls-3 {
        fill: #1c0f16;
      }

      .cls-3, .cls-4, .cls-5, .cls-6 {
        fill-rule: evenodd;
        stroke-width: 0px;
      }

      .cls-4 {
        fill: #b092c3;
      }

      .cls-5 {
        fill: #f0a1c3;
      }

      .cls-6 {
        fill: #fdebd8;
      }
    </style>
  </defs>
  <g id="Layer_1-2" data-name="Layer 1">
    <g id="Layer_1-3" data-name="Layer 1">
      <g>
        <path class="cls-5" d="m458.48,88.42c5.58-6.44,15.88-18.46,22.32-28.33,6.44-10.3,8.58-18.89,10.73-22.32,2.15-3.43,4.72-1.29,6.01.43,1.29,1.72,1.72,3.43.43,9.44-1.29,6.01-4.72,16.31-9.87,26.18-5.15,9.87-12.88,19.74-17.17,25.32-4.29,5.58-6.01,6.87-7.73,6.87s-3.86-.86-5.58-2.58c-1.72-1.72-3-4.72-3.86-6.44-.86-1.72-.43-2.15,4.72-8.58Z"/>
        <path class="cls-4" d="m500.54,61.81c16.74,0,30.9-13.74,30.9-30.9s-13.74-30.9-30.9-30.9-30.9,13.74-30.9,30.9,13.74,30.9,30.9,30.9Z"/>
        <path class="cls-5" d="m160.59,90.57c-5.58-6.44-15.88-18.46-22.32-28.33-6.44-10.3-8.58-18.89-10.73-22.32-2.15-3.43-4.72-1.29-6.01.43-1.29,1.72-1.72,3.43-.43,9.44,1.29,6.01,4.72,16.31,9.87,26.18,5.15,9.87,12.88,19.74,17.17,25.32,4.29,5.58,6.01,6.87,7.73,6.87s3.86-.86,5.58-2.58c1.72-1.72,3-4.72,3.86-6.44.86-1.29.43-2.15-4.72-8.58Z"/>
        <path class="cls-4" d="m118.53,63.96c16.74,0,30.9-13.74,30.9-30.9s-13.74-30.9-30.9-30.9-30.9,13.74-30.9,30.9c.43,17.17,14.16,30.9,30.9,30.9Z"/>
        <path class="cls-4" d="m175.18,84.99c-26.61,23.61-49.36,60.09-63.1,87.56-13.31,27.47-17.6,45.93-16.74,51.94.86,6.01,6.44-.43,13.31-6.87,6.44-6.01,13.74-12.02,14.59-9.01.43,3-5.58,15.02-10.3,27.04-4.72,12.02-8.58,24.47-10.3,40.35-1.72,15.88-1.29,35.2.86,39.92,2.15,4.72,6.44-4.72,9.01-13.74,2.58-9.01,4.72-17.6,6.44-21.03,2.15-3.43,4.29-1.29,4.72,18.46,0,19.74-1.72,57.52-10.73,83.7-9.01,26.18-24.9,40.35-42.06,57.52-17.17,17.17-35.2,37.34-44.21,50.65-9.01,13.74-9.44,20.6-5.58,19.74,3.86-.43,12.02-9.01,12.45-9.01s-7.73,8.16-14.59,24.47c-7.3,16.31-13.74,40.35-16.74,57.09-3,16.74-2.58,26.18-.86,27.9,1.72,1.72,4.29-4.29,6.87-8.58,2.15-4.29,3.86-6.01,4.29,6.44.43,12.88-.43,40.35,1.72,57.52,2.15,17.6,6.87,24.9,9.44,24.47,2.58-.43,2.58-8.58,6.87-5.15s12.88,18.46,21.03,30.05c8.16,11.59,15.88,19.32,19.32,21.03s2.15-2.15,6.87,1.29c4.72,3.43,15.88,14.59,25.75,27.47,9.44,13.31,18.03,28.33,23.61,37.77,5.58,9.44,9.01,13.74,10.73,18.03s1.72,8.16,1.72,10.3,0,2.58-8.16,7.73c-8.16,4.72-24.47,14.16-33.91,27.04-9.44,12.88-12.02,29.19-1.72,39.06,9.87,9.87,32.62,13.31,61.38,14.16,28.76.86,63.96,0,81.12-1.72,17.17-1.29,15.88-3,14.59-16.31-.86-13.31-1.72-37.77-1.72-49.36s1.29-9.87,3.43-4.29c1.72,5.58,4.29,15.02,6.44,16.74,2.15,1.72,3.86-4.29,3.43-13.31-.43-9.01-3-20.17-2.58-22.32.43-2.15,3.86,5.15,5.15,9.87,1.29,4.72.86,6.01.86,2.15,0-4.29.43-13.74-.43-26.61-.86-12.45-3-27.47.43-34.34,3.43-6.44,12.45-4.72,19.32.43,6.87,5.15,11.16,12.88,12.45,22.75.86,9.87-1.29,22.32,0,27.04s6.01,1.29,9.01-2.58c2.58-3.86,3-7.73,2.58-6.01-.43,1.72-1.72,9.44-3.86,15.88-2.15,6.44-5.58,10.73-4.72,11.59s5.58-1.29,7.3,3.86c1.72,5.15,0,18.46-.43,30.48-.43,12.02,0,23.18.86,29.19,1.29,6.01,3.43,7.3,33.91,7.73,30.48.43,89.71,0,119.33-.86,29.62-.86,30.05-2.15,28.33-13.74-1.72-11.59-6.01-33.05-16.31-45.93-10.3-12.88-26.61-16.31-38.2-18.03-11.59-1.72-18.03-1.72-15.45-6.87,2.58-4.72,14.59-14.59,21.03-23.61,6.44-9.01,7.73-16.74,7.3-15.45-.43.86-3,10.73-2.58,15.88.43,5.15,3.86,5.58,7.3,3,3.43-2.58,7.73-7.73,9.44-18.03,1.72-9.87,1.29-24.9,2.58-27.47s4.29,6.87,7.3,9.44c3.43,2.58,6.87-1.29,12.45-16.31,5.58-14.59,12.88-40.35,15.88-45.93,3-6.01,1.72,7.73-.43,20.17-2.15,12.88-5.58,24.47.43,27.04,6.01,2.15,21.89-5.15,31.76-15.02,10.3-9.87,15.02-22.32,17.6-36.48,2.58-14.16,2.58-30.9,3.86-34.77,1.29-3.86,3.86,4.72,5.15,12.45,1.72,7.73,2.58,14.59,4.72,8.16,2.15-6.44,6.01-26.61,6.87-49.79.86-23.18-.43-49.36-.43-60.95s1.72-8.16,3.43-.43c1.72,7.73,3.43,19.32,5.15,19.32,2.15,0,4.29-12.02,5.58-22.75.86-10.73.43-20.6-2.58-32.62-3.43-12.02-9.44-26.61-13.74-35.2-4.29-9.01-6.87-12.02-5.15-12.02s7.3,3.86,10.73,4.29c3.43.43,4.72-1.72,2.58-6.01-2.15-4.29-8.16-9.87-22.75-29.62-15.02-19.74-39.06-54.08-53.22-75.97-13.74-22.32-17.6-32.19-18.03-50.65-.43-18.46,2.58-44.64,4.72-59.23,2.15-15.02,3.86-18.46,3.86-15.02s-1.72,14.16.43,18.46c2.15,4.29,8.58,2.15,12.02-7.73,3.86-9.87,4.72-27.9,3.86-49.36-1.29-21.03-4.72-45.07-8.16-59.66-3.43-14.59-6.01-18.89-5.15-18.46.86,0,5.15,5.15,9.01,7.3,3.86,2.15,6.44,1.29,2.58-6.44-4.29-7.73-15.02-22.75-28.33-39.06-13.31-16.31-28.33-34.34-49.79-49.36-21.46-14.59-49.36-26.18-78.12-30.9-28.76-4.72-58.8-2.15-88.85,4.29-30.05,6.44-60.52,20.17-87.13,43.78Z"/>
        <path class="cls-6" d="m210.81,265.27c6.44-6.87,20.17-18.89,27.04-23.61,6.87-4.72,7.3-1.72,6.87,9.87-.43,12.02-2.15,32.62-3.43,43.78-1.29,10.73-2.15,11.59-6.44,8.58-4.29-3-11.59-10.3-16.74-15.88-5.15-5.58-8.58-9.87-10.73-12.45-2.58-2.58-3-3.43,3.43-10.3Z"/>
        <path class="cls-6" d="m243,299.6c3.86-6.01,10.73-17.17,16.31-24.04,5.58-6.44,10.73-8.16,13.74-5.15,3,3,4.29,10.3,4.29,20.6s-1.29,24.04-3,30.9c-1.29,6.87-3,6.87-6.87,5.15-3.86-1.72-9.87-5.15-15.02-8.16-5.15-3-9.01-6.44-11.59-8.58-2.58-2.15-3.86-3-3.86-3.86.43-.43,2.15-.86,6.01-6.87Z"/>
        <path class="cls-6" d="m275.2,318.06c1.72-8.58,7.3-24.04,11.59-29.19,4.29-5.15,6.44-.86,8.58,8.16,2.15,9.01,3.86,23.18,3.43,30.05-.43,6.87-3,6.87-6.44,6.44-3.86-.43-8.58-1.72-12.45-3.43-3.86-1.29-6.44-3.43-4.72-12.02Z"/>
        <path class="cls-2" d="m190.21,252.39c14.16,20.6,28.76,40.78,49.36,56.66,20.6,15.88,47.64,27.04,74.26,28.76,26.61,2.15,52.8-4.72,72.11-15.88,18.89-11.16,30.9-26.18,37.34-36.06,6.44-9.44,7.73-13.74,9.01-18.03"/>
        <path class="cls-5" d="m423.28,254.96c9.01,0,25.75,3.86,33.91,7.73s8.58,7.3,7.3,9.87c-1.29,2.58-3.86,4.29-12.45,3-8.58-1.29-23.18-5.15-30.9-8.16-7.73-3-8.16-4.29-7.73-6.87,0-2.58.86-6.01,9.87-5.58Z"/>
        <path class="cls-5" d="m168.32,248.53c7.3-5.15,22.75-12.45,31.76-14.59,9.01-2.15,11.16.86,11.59,3.43.86,3-.43,5.58-7.73,9.87-7.73,4.29-21.89,9.87-29.62,12.45-7.73,2.15-9.01,1.29-10.3-.86-1.72-1.72-3-4.72,4.29-10.3Z"/>
        <path class="cls-5" d="m142.13,717.25c15.88,15.88,45.07,35.63,88.85,47.22,43.78,11.59,101.73,15.45,146.8,14.16,45.07-1.29,76.83-7.3,95.29-18.03,18.46-10.73,24.04-26.18,28.33-55.8,4.29-29.62,8.58-73.4,1.29-112.46-7.3-39.06-25.75-73.4-51.94-94-26.18-20.6-60.09-27.47-98.29-26.18-38.2,1.72-80.27,12.02-119.76,47.22-39.49,35.63-75.97,96.15-92.71,132.63-16.74,36.48-14.16,48.93,2.15,65.24Z"/>
        <path class="cls-1" d="m513.42,464c14.16,29.19,28.76,58.38,34.77,72.54,6.01,14.16,3.43,14.59-1.29,11.59-4.72-3-11.59-8.58-12.88-4.72-1.29,3.86,3.43,17.6,6.01,36.06,2.58,18.46,3.43,42.92,3.43,54.08s-1.29,8.58-3.86,3.43c-2.58-5.15-6.01-12.88-8.16-8.58-1.72,4.72-1.72,21.46-4.29,38.2-2.58,17.17-8.16,34.34-12.45,43.35-4.29,9.44-7.73,10.73-9.44,10.73s-1.72-1.29-1.72-3"/>
        <path class="cls-1" d="m111.66,455.42c-17.6,16.31-35.2,32.62-37.77,39.92-2.58,6.87,10.3,4.29,10.3,9.44s-12.88,18.03-19.74,32.19c-7.3,14.16-9.01,30.48-7.73,35.2,1.29,4.72,4.72-1.29,8.16-5.58,3.43-4.29,6.87-7.3,6.44-3.43,0,3.86-3.86,14.59-6.01,30.48-2.15,15.88-3,36.48-1.29,52.37,1.72,15.45,5.58,25.75,8.58,27.47,3,1.72,4.29-4.72,6.01-1.72,1.72,3,2.58,15.88,3.86,27.9,1.29,12.02,2.58,23.61,4.72,33.05,2.15,9.44,5.15,17.17,8.58,24.9"/>
        <g>
          <path class="cls-1" d="m151.15,788.5c4.29,12.02,9.01,23.61,12.45,29.62,3.43,5.58,6.01,5.15,8.16,1.29,2.15-3.86,3.86-11.16,6.44-12.02,2.58-.86,6.44,4.72,10.3,7.3,4.29,2.15,8.58.86,13.31,0"/>
          <path class="cls-1" d="m356.32,810.39c4.72,9.01,9.01,18.03,14.16,21.03,5.15,3,11.59-.43,15.02-5.15,3.86-4.72,4.72-10.73,6.01-17.17"/>
          <path class="cls-1" d="m146,297.89c-.86,10.73-1.72,21.46,2.15,27.9,3.86,6.44,12.02,9.01,18.03,7.3,6.01-1.72,9.44-8.16,13.31-14.16"/>
          <path class="cls-1" d="m207.38,386.31c0,6.87,0,13.74,2.58,19.74,2.58,5.58,8.16,10.3,12.02,11.59,3.86,1.29,6.44-.86,8.16-3.86,1.72-3,3-6.44,4.29-10.3"/>
          <path class="cls-1" d="m158.44,460.14c-1.72,6.87-3.43,13.74-2.58,18.89.86,4.72,4.29,7.73,8.58,6.44,4.29-1.29,10.3-7.3,15.88-12.88"/>
          <path class="cls-1" d="m286.36,421.94c-2.15,12.02-4.29,23.61,0,28.76,3.86,5.15,13.74,3.43,19.74-1.72,6.01-5.15,8.58-13.74,11.16-22.32"/>
          <path class="cls-1" d="m410.4,430.95c7.3,10.73,14.59,21.46,22.32,25.32,7.3,3.86,14.59.86,18.03-5.15,3.43-6.44,3-16.31,2.58-26.18"/>
        </g>
        <path class="cls-6" d="m321.98,229.64c35.2,0,63.96-28.76,63.96-63.96s-28.76-63.96-63.96-63.96-63.96,28.76-63.96,63.96c.43,35.63,29.19,63.96,63.96,63.96Z"/>
        <path class="cls-3" d="m303.1,191.01c21.46,0,39.06-17.6,39.06-39.06s-17.6-39.06-39.06-39.06-39.06,17.6-39.06,39.06,17.6,39.06,39.06,39.06Z"/>
      </g>
    </g>
  </g>
</svg>