<?xml version="1.0" encoding="UTF-8"?>
<svg id="Layer_2" data-name="Layer 2" xmlns="http://www.w3.org/2000/svg" viewBox="0 0 836.13 826.89">
  <defs>
    <style>
      .cls-1 {
        fill: none;
      }

      .cls-1, .cls-2, .cls-3, .cls-4, .cls-5, .cls-6, .cls-7 {
        stroke-width: 0px;
      }

      .cls-2 {
        fill: #1c0f16;
      }

      .cls-2, .cls-3, .cls-4, .cls-5, .cls-6 {
        fill-rule: evenodd;
      }

      .cls-3 {
        fill: #1e82c1;
      }

      .cls-4 {
        fill: #ea98b1;
      }

      .cls-5, .cls-7 {
        fill: #fdebd8;
      }

      .cls-6 {
        fill: #83cdf2;
      }
    </style>
  </defs>
  <g id="Layer_1-2" data-name="Layer 1">
    <g id="Layer_1-3" data-name="Layer 1">
      <g>
        <path class="cls-5" d="m619.89,406.11c16.36-11.49,46.42-28.3,70.74-45.54,24.32-17.24,42.44-34.93,56.59-65.43,14.15-30.51,24.76-73.39,32.27-89.75,7.96-16.36,12.82-6.19,14.15,9.28,1.33,15.47-1.33,37.14,1.33,40.23,2.65,3.09,10.17-11.49,20.34-15.47,9.73-4.42,21.66,1.77,20.78,20.78-.88,19.01-15.03,51.73-35.81,85.33-20.78,33.6-48.19,68.53-82.23,96.82-34.04,27.85-75.16,49.52-93.73,56.59-18.57,7.07-15.47,0-15.92-13.71-.44-13.71-4.86-34.48-5.75-48.19-1.33-13.71.88-19.89,17.24-30.95Z"/>
        <path class="cls-5" d="m207.84,450.32c-15.47-11.05-44.65-27.85-68.09-44.65-23.43-16.8-40.67-34.48-54.38-64.11-13.71-29.62-23.43-72.06-30.95-88.42-7.52-16.36-12.38-6.19-13.71,9.28-1.33,15.47,1.33,36.25-1.33,39.35-2.65,3.09-10.17-11.05-19.45-15.47-9.28-4.42-20.78,1.77-19.9,20.78.88,19.01,14.59,50.84,34.48,84,19.9,33.16,46.42,67.2,79.14,95.05,32.72,27.41,72.06,48.63,90.19,55.26,18.13,7.07,15.03,0,15.47-13.71.44-13.71,4.42-34.04,5.75-47.31.44-13.26-1.77-19.01-17.24-30.06Z"/>
        <ellipse class="cls-7" cx="413.42" cy="418.05" rx="91.52" ry="65.87"/>
      </g>
      <path class="cls-6" d="m213.59,701.44c-6.19-90.63-18.57-259.52-15.47-391.27,3.09-131.75,22.11-226.8,45.54-271.46C267.08-5.94,294.94-.63,317.93,15.73s41.56,43.77,53.94,43.33c12.38-.44,19.01-28.74,29.62-44.65,10.61-15.47,25.64-18.57,40.67-8.84,15.03,9.73,30.06,32.27,40.23,38.91,10.17,7.07,15.47-1.33,30.06-11.05,14.59-9.73,37.14-20.78,49.07-22.11,12.38-1.33,13.71,6.63,23.43,93.73,9.73,87.1,27.41,253.77,35.37,381.98,7.96,127.77,5.75,217.08,3.09,260.4-3.09,43.33-7.07,41.56-29.62,44.21-22.55,2.65-64.11,9.28-82.67,9.73-19.01.44-15.47-6.19-22.11-37.58-6.63-31.39-22.99-87.54-46.42-109.64-23.43-22.11-53.94-10.17-71.18,23.87-17.24,34.04-22.11,90.19-30.95,119.37-8.84,29.18-22.55,30.51-43.33,29.18-20.78-.88-49.07-4.42-63.22-12.82-14.15-8.4-14.15-21.66-20.34-112.3Z"/>
      <path class="cls-5" d="m267.08,286.74c67.2,0,121.58-54.82,121.58-121.58s-54.82-121.58-121.58-121.58-121.58,54.82-121.58,121.58,54.38,121.58,121.58,121.58Z"/>
      <path class="cls-5" d="m604.86,297.35c67.2,0,121.58-54.82,121.58-121.58s-54.82-121.58-121.58-121.58-121.58,54.82-121.58,121.58c-.44,67.2,54.38,121.58,121.58,121.58Z"/>
      <path class="cls-1" d="m619.45,410.09c15.47-11.05,44.65-27.85,68.09-44.65,23.43-16.8,40.67-34.48,54.38-64.11,13.71-30.06,23.43-72.06,30.95-88.42,7.52-16.36,12.38-6.19,13.71,9.28,1.33,15.47-1.33,36.25,1.33,39.35,2.65,3.09,10.17-11.05,19.45-15.47,9.28-4.42,20.78,1.77,19.9,20.78-.88,19.01-14.59,50.84-34.48,84-19.9,33.16-46.42,67.2-79.14,95.05-32.72,27.41-72.06,48.63-90.19,55.26-18.13,7.07-15.03,0-15.47-13.71-.44-13.71-4.42-34.04-5.75-47.31-1.33-13.26,1.33-18.57,17.24-30.06Z"/>
      <path class="cls-1" d="m207.84,450.32c-15.47-11.05-44.65-27.85-68.09-44.65-23.43-16.8-40.67-34.48-54.38-64.11-13.71-29.62-23.43-72.06-30.95-88.42-7.52-16.36-12.38-6.19-13.71,9.28-1.33,15.47,1.33,36.25-1.33,39.35-2.65,3.09-10.17-11.05-19.45-15.47-9.28-4.42-20.78,1.77-19.9,20.78.88,19.01,14.59,50.84,34.48,84,19.9,33.16,46.42,67.2,79.14,95.05,32.72,27.41,72.06,48.63,90.19,55.26,18.13,7.07,15.03,0,15.47-13.71.44-13.71,4.42-34.04,5.75-47.31.44-13.26-1.77-19.01-17.24-30.06Z"/>
      <path class="cls-4" d="m413.42,529.9c85.33,0,155.18-50.4,155.18-111.85s-69.85-111.85-155.18-111.85-155.18,50.4-155.18,111.85c0,61.45,69.85,111.85,155.18,111.85Z"/>
      <ellipse class="cls-7" cx="413.42" cy="418.05" rx="91.52" ry="65.87"/>
      <g>
        <g>
          <path class="cls-3" d="m742.35,307.96c6.19.88,15.92,7.52,27.85,12.82,11.94,5.31,27.41,8.84,32.27,13.26,4.86,4.42,0,8.84-6.19,16.8-6.19,7.96-13.26,19.01-19.45,23.87-5.75,4.86-10.17,3.54-22.11-2.21-11.94-5.75-31.39-15.47-39.79-21.66-8.4-6.19-5.75-8.84-2.21-12.38,3.54-3.54,7.07-7.96,9.73-11.49,3.09-3.54,4.86-6.63,7.52-10.61,3.09-4.42,6.19-9.28,12.38-8.4Z"/>
          <path class="cls-3" d="m676.92,376.05c7.96,1.77,18.13,9.28,30.95,16.36,12.82,7.07,28.3,12.82,36.25,15.47,7.96,2.65,8.84,2.21,7.07,3.98-1.33,1.77-5.31,5.75-11.94,12.38-6.63,6.63-16.8,16.36-22.99,21.22-6.19,5.31-8.84,5.75-17.68.88-8.84-4.86-23.87-15.47-35.37-25.2-11.49-9.73-19.45-17.68-22.99-22.55-3.54-4.42-2.65-4.86.88-7.07,3.54-2.21,9.73-6.19,15.47-9.73,5.75-3.54,12.38-7.52,20.34-5.75Z"/>
        </g>
        <g>
          <path class="cls-3" d="m93.33,361.46c-5.75.88-14.59,7.52-26.08,12.82-11.49,5.31-25.2,8.84-30.06,13.26-4.42,4.42,0,8.84,5.75,16.8,5.75,7.96,12.38,19.01,17.68,23.87,5.31,4.86,9.28,3.54,20.34-2.21,11.05-5.75,29.18-15.47,36.7-21.66,7.96-6.19,5.31-8.84,2.21-12.38-3.09-3.54-6.63-7.96-9.28-11.49-2.65-3.54-4.86-6.63-7.07-10.61-1.33-3.98-4.42-9.28-10.17-8.4Z"/>
          <path class="cls-3" d="m151.25,420.7c-7.52,1.77-16.8,8.84-28.74,15.03-11.94,6.19-26.08,11.94-33.6,14.59-7.52,2.65-7.96,2.21-6.63,3.54,1.33,1.77,4.86,5.31,11.05,11.49,6.19,6.19,15.47,15.03,21.22,19.9,5.75,4.86,7.96,5.31,16.36.88,7.96-4.42,22.11-14.59,32.72-23.43,10.61-8.84,18.13-16.8,21.22-20.78,3.09-3.98,2.65-4.86-.88-6.63-3.09-2.21-8.84-5.75-14.59-9.28-5.75-3.54-10.61-7.07-18.13-5.31Z"/>
        </g>
        <path class="cls-3" d="m351.08,456.51c1.77-8.4,5.75-24.32,13.26-32.27,7.07-7.96,17.68-7.96,28.3-6.63,10.61,1.33,21.66,3.54,27.41,11.05,5.75,7.52,7.07,19.9,7.52,26.53.44,6.63.44,7.07.88.88.44-6.19.88-18.57,4.86-26.08,3.98-7.52,11.49-10.61,18.13-12.82,6.63-2.21,12.82-3.54,17.68-2.21,4.86,1.33,8.84,6.19,13.26,11.94,4.42,5.75,8.84,13.26,10.17,18.13,1.33,4.86,0,6.63-4.86,11.94-4.86,4.86-13.71,13.26-23.87,18.13-10.17,5.31-19.45,9.28-32.27,10.61-12.82,1.33-29.62-.44-41.56-2.65-11.94-1.77-21.66-6.19-26.97-8.84-5.31-2.65-6.19-3.98-7.52-4.86-1.77-.88-3.98-1.33-5.31-2.21-.88-1.33-.88-2.21.88-10.61Z"/>
      </g>
      <g>
        <path class="cls-2" d="m200.77,186.82c-1.33-11.49-1.33-28.74,7.52-42.44,8.84-13.71,26.97-23.43,42.44-22.11s29.18,15.03,36.7,29.18c7.52,14.15,9.73,28.3,8.84,35.81-.88,7.52-4.86,7.96-9.28.44-4.42-7.52-9.28-23.43-18.13-32.72-8.4-9.28-20.78-11.94-29.62-11.05s-14.15,4.86-16.8,15.47c-2.65,10.61-3.54,28.3-5.31,37.58-2.21,9.28-5.31,11.05-8.84,8.84-3.09-2.21-6.19-7.52-7.52-19.01Z"/>
        <path class="cls-2" d="m538.1,197.43c-1.33-11.49-1.33-28.74,7.52-42.44,8.84-13.71,26.97-23.43,42.44-22.11,15.47,1.33,29.18,15.03,36.7,29.18,7.52,14.15,9.73,28.3,8.84,35.81-.88,7.52-4.86,7.96-9.28.44-4.42-7.52-9.28-23.43-18.13-32.72-8.4-9.28-20.78-11.94-29.62-11.05-8.84.88-14.15,4.86-16.8,15.47-3.09,10.61-3.54,28.3-5.31,37.58-1.77,9.28-5.31,11.05-8.84,8.84-3.54-2.21-5.75-7.52-7.52-19.01Z"/>
      </g>
    </g>
  </g>
</svg>