<?xml version="1.0" encoding="UTF-8"?>
<svg id="Layer_2" data-name="Layer 2" xmlns="http://www.w3.org/2000/svg" xmlns:xlink="http://www.w3.org/1999/xlink" viewBox="0 0 887.62 850.44">
  <defs>
    <style>
      .cls-1 {
        clip-path: url(#clippath);
      }

      .cls-2, .cls-3 {
        fill: none;
      }

      .cls-2, .cls-4, .cls-5, .cls-6, .cls-7 {
        stroke-width: 0px;
      }

      .cls-3 {
        stroke: #010101;
        stroke-miterlimit: 2.61;
        stroke-width: 2.3px;
      }

      .cls-4 {
        fill: #1c0f16;
      }

      .cls-4, .cls-5, .cls-6, .cls-7 {
        fill-rule: evenodd;
      }

      .cls-5 {
        fill: #3a6d87;
      }

      .cls-6 {
        fill: #fdebd8;
      }

      .cls-7 {
        fill: #8cbaca;
      }
    </style>
    <clipPath id="clippath">
      <path class="cls-2" d="m175.71,761.76c-2.98-83.93-1.28-250.08,43.46-351.48,44.73-101.4,132.5-138.04,199.39-146.13,66.89-8.09,113.33,11.93,156.78,53.68,43.46,41.75,85.21,106.08,101.4,197.26,16.19,91.17,6.82,210.04,2.56,270.96-4.69,60.92-4.69,63.91-32.8,64.33-28.12.43-84.78-1.28-114.6-5.96-29.82-4.69-32.8-12.78-35.36-29.4-2.56-16.62-4.26-41.33-8.09-51.55-3.83-10.22-8.95-5.96-36.64-5.54-27.69.43-77.54-2.56-104.38-3.83-26.84-1.7-30.25-1.7-30.25,12.78s3.83,43.03,5.96,58.37c2.13,15.34,2.56,17.89-18.75,19.6-21.73,1.7-65.61,2.98-91.17,2.56-26.84,0-34.51-1.7-37.49-85.63Z"/>
    </clipPath>
  </defs>
  <g id="Layer_1-2" data-name="Layer 1">
    <g id="Layer_1-3" data-name="Layer 1">
      <g>
        <path class="cls-5" d="m370.84,265.42c20.02-20.45,60.5-57.09,93.3-77.11,32.8-20.02,58.37-23.86,63.91-13.21,5.54,10.65-8.95,34.51-14.91,47.29-5.96,12.36-2.56,13.21,15.34,9.8,17.89-3.41,51.55-10.65,78.39-12.36,26.84-1.7,46.01,2.56,50.27,13.63,4.26,11.08-6.82,28.54-17.47,40.47-10.65,11.93-21.73,17.89-17.04,21.73,4.69,3.83,25.56,4.69,44.31,8.09s34.94,8.95,43.03,16.62c8.09,8.09,7.24,18.32-2.56,27.27-9.8,8.95-28.54,16.19-40.9,21.3-12.36,5.11-17.47,8.09-8.52,10.22,8.95,2.13,32.8,3.41,50.27,7.24,17.47,3.83,28.12,10.65,25.56,23.43-2.56,12.78-19.17,31.53-34.08,46.01-14.91,14.49-28.54,23.86-37.49,19.17-8.95-4.69-13.63-23.43-30.25-51.55-16.19-28.12-44.31-66.04-71.15-90.75-26.84-24.71-52.4-36.21-79.67-41.75-27.27-5.54-56.66-4.69-78.39-3.41-21.73,1.7-36.64,3.83-43.88,2.98-7.67-.43-8.09-4.69,11.93-25.14Z"/>
        <path class="cls-5" d="m183.38,487.39c-17.47,8.09-48.99,25.14-73.7,64.76-24.71,39.2-43.03,100.55-52.4,133.78-9.37,32.8-10.22,37.07-16.62,43.03-6.39,5.96-18.75,13.21-27.27,21.3-8.95,8.09-14.49,17.47-13.21,25.14,1.28,7.67,8.95,13.63,18.32,11.08,8.95-2.56,19.6-14.49,23.43-17.89,3.83-3.83,1.7.43.85,8.09-.85,7.24.43,17.89,3.83,25.56,3.41,7.67,8.95,12.36,15.34,11.93,6.39,0,14.06-5.11,17.89-15.34,3.83-10.22,3.41-25.14,5.96-31.53,2.56-6.39,8.09-3.83,14.91-.85,6.82,2.98,14.49,6.82,19.6,4.26,5.11-2.56,7.67-11.08,6.39-19.17-1.28-8.09-5.96-16.19-14.49-23.01-8.09-6.82-19.6-12.36-25.99-19.6-6.39-7.24-7.67-16.62-1.7-38.77,5.96-22.58,19.6-58.37,34.51-85.63,14.91-27.27,31.53-45.16,44.31-54.53,12.78-9.37,23.01-8.95,28.12-12.36,5.54-2.98,6.82-8.95,8.95-15.76,2.13-6.82,5.11-14.06,4.69-17.89,0-4.26-4.26-4.69-21.73,3.41Z"/>
        <path class="cls-7" d="m175.71,761.76c-2.98-83.93-1.28-250.08,43.46-351.48,44.73-101.4,132.5-138.04,199.39-146.13,66.89-8.09,113.33,11.93,156.78,53.68,43.46,41.75,85.21,106.08,101.4,197.26,16.19,91.17,6.82,210.04,2.56,270.96-4.69,60.92-4.69,63.91-32.8,64.33-28.12.43-84.78-1.28-114.6-5.96-29.82-4.69-32.8-12.78-35.36-29.4-2.56-16.62-4.26-41.33-8.09-51.55-3.83-10.22-8.95-5.96-36.64-5.54-27.69.43-77.54-2.56-104.38-3.83-26.84-1.7-30.25-1.7-30.25,12.78s3.83,43.03,5.96,58.37c2.13,15.34,2.56,17.89-18.75,19.6-21.73,1.7-65.61,2.98-91.17,2.56-26.84,0-34.51-1.7-37.49-85.63Z"/>
        <g class="cls-1">
          <g>
            <path class="cls-5" d="m680.57,555.55c-5.54-2.13-16.19,3.83-20.02,13.63-3.83,9.8-.85,23.86,3.41,29.4,4.26,5.54,8.95,2.98,12.78-1.7,3.83-4.69,6.39-11.5,7.67-20.02,1.28-8.95,1.7-19.17-3.83-21.3Z"/>
            <path class="cls-5" d="m637.96,630.96c-9.37,3.41-25.14,14.06-28.54,23.43-3.41,8.95,5.54,16.62,15.34,17.04,10.22.43,21.3-6.39,26.41-13.63,5.11-7.24,3.83-14.91,1.7-20.45-2.13-6.39-5.54-10.22-14.91-6.39Z"/>
            <path class="cls-5" d="m682.27,682.09c-4.69-2.98-12.78-2.56-17.47,1.7-4.69,4.26-5.96,11.5-3.83,17.47,2.13,5.54,7.67,9.37,13.21,8.95,5.11-.85,9.8-5.54,11.93-11.93,1.28-6.39.43-13.21-3.83-16.19Z"/>
            <path class="cls-5" d="m602.17,739.6c-.85,4.69-2.56,13.21-.43,19.6,2.13,6.39,7.24,11.5,14.91,12.78,7.67,1.28,17.89-.85,25.14-7.67,7.67-6.82,12.78-17.89,13.21-27.27.43-8.95-2.98-16.19-11.93-17.04-8.52-.85-22.15,4.26-29.4,7.24-7.24,3.41-8.52,4.69-9.37,5.96-.85,1.28-1.28,2.13-2.13,6.39Z"/>
            <path class="cls-5" d="m578.32,689.33c-5.54,4.26-12.36,12.78-11.93,19.6.43,7.24,8.09,12.78,15.34,11.5,7.24-1.28,14.06-8.95,16.19-15.76,2.13-6.82-1.28-12.78-5.11-16.19-4.26-2.98-8.95-3.41-14.49.85Z"/>
            <path class="cls-5" d="m633.28,562.8c-4.69-.85-11.5,2.98-15.34,8.52-3.83,5.54-4.69,12.78-2.98,16.62,1.7,3.83,5.96,4.69,11.08,1.7,5.11-2.98,10.65-8.95,12.36-14.91,1.7-5.54-.43-11.08-5.11-11.93Z"/>
            <path class="cls-5" d="m614.53,417.09c-8.09,7.67-21.3,23.86-23.01,40.9-1.7,17.04,8.52,34.51,17.89,43.88,9.37,9.37,18.32,10.65,24.71,10.65s11.08-1.28,14.91-4.69c3.83-3.41,7.24-8.52,7.24-16.62,0-7.67-3.41-18.32-8.52-31.95-5.11-13.63-11.93-30.67-17.04-39.62-5.11-8.95-8.09-10.22-16.19-2.56Z"/>
          </g>
        </g>
        <path class="cls-6" d="m297.98,578.56c6.39-9.8,19.6-25.56,30.67-33.66,11.08-8.09,19.6-8.95,21.73,5.11,2.13,13.63-2.13,41.75-5.96,55.81-3.83,14.06-7.67,14.06-13.21,11.5-5.54-2.56-12.78-7.24-19.6-11.5-6.82-3.83-12.78-6.82-16.19-10.22-2.98-3.83-3.83-7.24,2.56-17.04Z"/>
        <path class="cls-6" d="m405.77,614.77c-.43-14.91.43-42.6,3.83-57.94,3.41-15.34,9.37-18.32,20.02-6.82,10.65,11.5,25.14,37.49,29.82,53.25,4.69,15.34-1.28,20.45-11.08,23.86-10.22,3.41-24.71,5.11-32.8,5.11-8.09-.43-9.37-2.56-9.8-17.47Z"/>
        <path class="cls-6" d="m476.92,604.97c-2.98-14.49-6.82-43.03-5.96-59.22.85-16.19,6.39-20.88,18.32-17.47,11.93,3.41,30.25,14.49,41.33,23.01,11.08,8.52,15.34,14.49,13.63,20.88-1.7,5.96-9.8,12.36-20.88,20.02-11.08,7.67-25.14,17.47-33.23,22.58-7.67,4.69-10.22,4.69-13.21-9.8Z"/>
        <path class="cls-3" d="m258.36,564.5c33.66,25.56,66.89,51.12,103.53,61.35,36.64,10.22,76.26,4.69,109.07-8.52,32.8-13.21,59.22-33.66,73.7-48.99,14.49-15.34,17.47-25.14,20.88-34.51"/>
        <path class="cls-3" d="m238.34,578.99c14.49-11.5,29.4-23.01,43.88-34.51"/>
        <path class="cls-3" d="m545.09,526.16c14.49,4.69,29.4,9.8,43.88,14.49"/>
        <path class="cls-7" d="m522.93,309.3c5.54-33.23,18.32-97.14,25.14-128.24,6.82-31.1,7.24-29.4,14.49-25.99,7.24,2.98,21.3,7.24,28.54,8.09,7.24.85,8.09-1.7,0,32.38-8.09,33.66-24.28,103.95-33.66,137.61-9.37,34.08-11.93,32.38-16.62,28.54-4.69-3.83-12.36-8.95-16.62-13.21-4.69-3.83-6.82-5.96-1.28-39.2Z"/>
        <path class="cls-6" d="m594.93,169.14c36.21,0,65.61-29.4,65.61-65.61s-29.4-65.61-65.61-65.61-65.61,29.4-65.61,65.61,29.82,65.61,65.61,65.61Z"/>
        <path class="cls-4" d="m592.38,154.23c20.45,0,37.49-16.62,37.49-37.49s-16.62-37.49-37.49-37.49-37.49,16.62-37.49,37.49,17.04,37.49,37.49,37.49Z"/>
        <path class="cls-7" d="m326.95,271.39c-5.54-33.23-18.32-97.14-25.14-128.24-6.82-31.1-7.24-29.4-14.49-25.99-7.24,3.41-21.3,7.24-28.54,8.09-7.24.85-8.09-1.7,0,32.38,8.09,33.66,24.28,103.95,33.66,138.04,9.37,34.08,11.93,32.38,16.62,28.54,4.69-3.83,12.36-8.95,16.62-13.21,4.69-3.83,6.82-6.39,1.28-39.62Z"/>
        <path class="cls-6" d="m254.95,131.22c36.21,0,65.61-29.4,65.61-65.61S291.17,0,254.95,0s-65.61,29.4-65.61,65.61,29.4,65.61,65.61,65.61Z"/>
        <path class="cls-4" d="m257.51,116.73c20.45,0,37.49-16.62,37.49-37.49s-16.62-37.49-37.49-37.49-37.49,16.62-37.49,37.49,17.04,37.49,37.49,37.49Z"/>
        <path class="cls-5" d="m673.75,518.06c13.21-10.22,39.62-27.69,59.65-47.29,20.02-19.6,32.38-40.9,40.05-56.24,7.67-15.34,10.22-25.14,8.52-37.92-1.7-12.78-6.82-27.69-8.95-40.05-1.7-12.36,0-21.3,5.96-23.86,5.96-2.56,15.34,1.7,20.02,8.52,4.69,6.82,3.83,15.76,4.26,19.17s1.7.85,4.69-6.82c2.98-8.09,8.09-21.3,15.34-26.84,7.24-5.54,17.89-2.98,21.73,4.69,3.83,7.67,1.7,20.45.43,26.41-.85,5.96-.43,5.54,5.11,2.56,5.54-2.98,15.76-8.52,23.86-8.95,8.09-.43,13.21,4.69,13.21,11.08s-5.54,14.49-13.63,19.6c-8.09,5.54-19.17,8.52-29.4,13.63-10.22,5.11-19.17,12.36-28.12,22.58-8.95,10.22-17.47,23.01-32.38,43.03-14.91,20.45-36.21,48.57-56.24,68.17-20.02,19.6-38.77,31.53-49.42,37.49-10.65,6.39-12.78,7.24-14.06,4.69-1.28-2.56-2.13-8.52-2.98-12.78-.85-4.26-.85-5.54-1.28-7.24.85-.85.43-3.41,13.63-13.63Z"/>
      </g>
    </g>
  </g>
</svg>