<?xml version="1.0" encoding="UTF-8"?>
<svg id="Layer_2" data-name="Layer 2" xmlns="http://www.w3.org/2000/svg" viewBox="0 0 517.54 891.01">
  <defs>
    <style>
      .cls-1, .cls-2, .cls-3, .cls-4, .cls-5, .cls-6 {
        fill: none;
      }

      .cls-1, .cls-7, .cls-8, .cls-9, .cls-10, .cls-11, .cls-12 {
        stroke-width: 0px;
      }

      .cls-2 {
        stroke: #fdebd8;
        stroke-width: 1.44px;
      }

      .cls-2, .cls-3, .cls-4, .cls-5, .cls-6 {
        stroke-miterlimit: 2.61;
      }

      .cls-3 {
        stroke: #1c0f16;
      }

      .cls-3, .cls-4 {
        stroke-width: 2.3px;
      }

      .cls-4, .cls-5 {
        stroke: #010101;
      }

      .cls-7 {
        fill: #1c0f16;
      }

      .cls-7, .cls-8, .cls-9, .cls-10, .cls-11 {
        fill-rule: evenodd;
      }

      .cls-8 {
        fill: #add7e5;
      }

      .cls-9 {
        fill: #d27191;
      }

      .cls-10, .cls-12 {
        fill: #ea98b1;
      }

      .cls-11 {
        fill: #fdebd8;
      }

      .cls-5 {
        stroke-width: 1.15px;
      }

      .cls-6 {
        stroke: #d27191;
        stroke-width: 2px;
      }
    </style>
  </defs>
  <g id="Layer_1-2" data-name="Layer 1">
    <g id="Layer_1-3" data-name="Layer 1">
      <g>
        <path class="cls-10" d="m228.71,734.91c1.62,26.69,4.45,77.24,5.26,103.93.81,26.69,0,30.33-4.04,31.54-4.04,1.62-11.32,1.21-23.86,1.62-12.94.4-31.14,1.62-38.01,4.85-6.87,3.24-2.83,8.49,14.15,10.92,16.98,2.83,46.1,3.24,60.66,3.24s14.56-.4,12.54-30.33c-2.02-29.93-6.07-88.97-8.9-121.72-2.83-32.35-4.45-38.42-6.47-40.84-2.02-2.43-4.45-1.21-6.87,0-2.43,1.21-4.45,2.02-5.26,4.04-.81,2.83-.4,6.07.81,32.76Z"/>
        <path class="cls-10" d="m337.09,720.76c7.68,25.88,22.24,74.01,30.33,99.48,8.09,25.48,10.11,28.31,14.56,28.31s10.92-2.83,23.05-6.87c12.13-4.04,29.93-8.9,37.61-8.49,7.68.81,5.26,6.87-9.3,15.37-14.96,8.49-42.46,18.6-56.21,23.86-13.75,4.85-13.75,4.45-22.24-24.26-8.09-28.71-24.67-85.73-33.16-117.28-8.49-31.54-8.9-37.61-7.68-40.44,1.21-2.83,4.04-2.43,6.47-2.43s4.85.4,6.47,2.02c1.21,2.02,2.43,5.26,10.11,30.73Z"/>
        <path class="cls-10" d="m406.24,123.05c6.87-4.04,21.03-8.09,34.78-19.41,13.35-11.32,25.88-29.93,35.18-46.91,9.71-16.98,16.58-31.54,21.43-37.2,4.85-5.66,7.68-1.62,11.73,9.71,4.04,11.32,8.9,30.33,8.09,53.79-.81,23.05-6.87,50.55-20.22,72.39-13.35,21.84-33.97,38.01-44.48,46.1q-10.51,8.09-13.75,3.64c-3.24-4.85-9.71-14.15-16.58-26.29-6.87-12.54-14.15-27.5-18.2-37.2-4.04-10.51-4.85-14.56,2.02-18.6Z"/>
        <path class="cls-10" d="m123.16,106.07c-6.87-4.04-21.03-8.09-34.78-19.41-13.35-11.32-25.88-29.93-35.18-46.91C43.49,22.76,36.62,8.2,31.76,2.54c-4.85-5.66-7.68-1.62-11.73,9.71-4.04,11.32-8.9,30.33-8.09,53.79.81,23.05,6.87,50.55,20.22,72.39s33.97,38.01,44.48,46.1q10.51,8.09,13.75,3.64c3.24-4.85,9.71-14.15,16.58-26.29,6.87-12.54,14.15-27.5,18.2-37.2,4.04-10.51,4.85-14.56-2.02-18.6Z"/>
      </g>
      <path class="cls-3" d="m96.47,573.96c-2.02,16.18-4.45,32.35-8.9,48.93-4.45,16.58-11.32,33.16-16.58,43.27-5.26,10.51-8.49,14.56-10.11,16.98l-1.62,2.02"/>
      <path class="cls-4" d="m39.04,727.23c3.64-11.73,7.68-23.86,10.11-29.52,2.43-5.66,3.24-5.26,4.85-6.47,1.62-1.21,4.04-4.04,6.47-6.87"/>
      <path class="cls-3" d="m58.86,683.96c-2.02-1.21-4.45-2.02-7.28-2.83-3.24-.4-7.28-.4-13.75.4-6.47.81-16.58,2.83-23.05,7.68-6.47,4.85-10.11,12.13-13.75,19.41"/>
      <path class="cls-8" d="m72.61,216.47c-7.28,32.35-21.03,88.97-23.86,114.85-2.83,25.88,4.85,20.62,9.3,14.96,4.85-5.66,6.47-11.32,6.07-5.26-.4,6.47-2.83,25.07-3.24,43.68-.4,18.6,1.21,36.8,4.85,39.23,3.64,2.43,9.3-11.32,10.92-12.54,1.62-1.21-.4,9.71-3.24,33.97-2.83,24.26-6.87,61.87-6.07,83.31.81,21.43,5.26,27.9,9.3,23.86,4.04-3.64,6.87-17.39,8.49-17.39,1.62.4,1.62,14.15,5.66,41.65,4.45,27.09,12.94,67.53,35.99,92.61,23.05,25.07,61.06,34.78,82.5,39.23,21.43,4.45,26.69,2.83,36.4,4.04,9.71,1.21,24.26,4.45,39.63,8.49,15.37,4.04,31.14,8.49,48.93,7.68,17.39-.81,36.4-6.47,54.59-11.73,18.2-5.26,36.4-9.71,48.53-22.24,12.13-12.13,18.6-32.35,23.05-50.55,4.45-18.2,6.87-34.78,10.11-39.63,3.24-4.85,6.87,2.43,8.9,7.68,2.02,5.26,2.02,8.9,3.64-3.24,1.62-12.13,5.26-39.23.81-72.39-4.45-33.57-16.18-72.79-18.2-88.97-2.02-15.77,5.66-8.49,12.13.4,6.47,8.9,12.13,18.6,14.15,11.73,2.02-6.87.81-29.52-5.26-56.21-6.07-26.69-17.39-57.42-19.41-68.34-2.43-10.92,4.04-2.43,5.66-3.64s-1.21-12.54-6.87-31.54c-5.66-19.01-14.15-46.51-12.94-53.38,1.21-6.87,12.54,6.07,19.41,15.37,6.87,9.3,10.11,14.15,2.43-3.24-7.68-17.79-25.88-58.23-44.48-93.42-18.6-35.59-38.01-66.32-44.08-84.52-6.07-18.2.81-24.26,5.26-29.93,4.45-5.66,6.47-11.32,3.64-14.96-2.83-3.64-10.92-6.07-25.48-5.26-14.56.81-35.18,4.04-42.87,4.45-7.28.4-1.62-2.02,4.45-5.26,5.66-2.83,11.32-6.47,6.07-10.51-5.26-4.45-21.03-9.3-38.82-6.87-17.79,2.43-38.01,12.13-46.51,14.56-8.49,2.43-5.66-2.02-.4-5.66,5.26-3.64,12.54-6.07,6.07-6.87-6.07-.81-25.88.81-50.55,13.75-25.07,13.35-55,38.42-76.84,63.49-21.84,25.07-34.78,50.15-42.06,67.13-7.68,16.18-8.49,24.67-15.77,57.43Z"/>
      <path class="cls-11" d="m209.3,195.84c24.26,0,44.08-19.82,44.08-44.08s-19.82-44.08-44.08-44.08-44.08,19.82-44.08,44.08c0,24.26,19.82,44.08,44.08,44.08Z"/>
      <path class="cls-11" d="m299.88,217.28c24.26,0,44.08-19.82,44.08-44.08s-19.82-44.08-44.08-44.08-44.08,19.82-44.08,44.08,19.82,44.08,44.08,44.08Z"/>
      <path class="cls-5" d="m197.57,109.3c-1.21-9.3-2.43-18.6-3.64-27.9"/>
      <path class="cls-5" d="m220.62,109.3c1.62-9.3,3.24-18.6,5.26-27.9"/>
      <path class="cls-5" d="m240.84,121.03c8.09-7.28,16.58-14.56,24.67-21.84"/>
      <path class="cls-5" d="m293.41,127.1c-.81-11.32-1.62-23.05-2.43-34.37"/>
      <path class="cls-5" d="m320.1,134.38c6.07-10.51,12.13-21.03,17.79-31.14"/>
      <path class="cls-5" d="m337.9,150.96c8.9-7.68,18.2-14.96,27.09-22.65"/>
      <path class="cls-3" d="m54.82,693.66c2.83,2.02,6.07,3.64,7.68,10.11,1.62,6.47,1.62,16.98,1.62,23.46s-.4,8.9-.4,11.32"/>
      <path class="cls-3" d="m302.31,475.69c2.43,1.21,5.26,2.43,9.3,6.07,4.04,3.24,9.71,8.9,12.13,14.96s1.62,12.13-2.43,16.58-12.13,7.28-19.01,8.49c-6.87,1.21-12.94,1.21-19.01,1.21"/>
      <g>
        <path class="cls-7" d="m308.78,214.04c16.18,0,29.52-13.35,29.52-29.52s-13.35-29.52-29.52-29.52-29.52,13.35-29.52,29.52c0,16.18,12.94,29.52,29.52,29.52Z"/>
        <path class="cls-7" d="m216.58,193.01c16.18,0,29.52-13.35,29.52-29.52s-13.35-29.52-29.52-29.52-29.52,13.35-29.52,29.52,13.35,29.52,29.52,29.52Z"/>
        <path class="cls-3" d="m168.45,231.84c3.24,15.37,6.87,30.73,15.77,42.06,9.3,11.32,23.86,18.6,38.82,19.82,14.56,1.62,29.12-2.83,40.04-10.11,10.92-6.87,18.2-16.58,25.48-26.29"/>
        <path class="cls-3" d="m396.94,466.79c-1.62,26.69-3.24,53.79-8.9,72.79-5.26,19.01-14.15,30.73-21.84,34.37-7.28,3.64-13.35-.81-18.6-11.32-5.26-10.51-10.11-27.5-16.58-38.82-6.47-10.92-14.56-16.18-22.24-18.6-7.68-2.43-14.96-2.02-22.24-1.62"/>
        <path class="cls-7" d="m317.68,437.27c-19.01,65.11-38.42,130.22-47.31,163.78-9.3,33.57-8.49,35.18-6.47,36.4,1.62,1.21,4.45,2.02,15.37-31.14,10.92-33.57,30.73-101.1,39.63-134.67,8.9-33.57,7.68-33.97,6.07-33.97-2.02-.4-4.85-.4-7.28-.4Z"/>
      </g>
      <circle class="cls-12" cx="344.37" cy="366.5" r="76.43"/>
      <path class="cls-2" d="m339.51,380.66c1.62-6.47,3.24-12.94,1.62-17.79-1.62-4.85-6.87-8.49-11.32-8.9-4.85-.4-8.9,2.02-11.73,6.47-2.83,4.45-4.85,10.92-3.24,16.98,1.21,6.07,5.66,11.32,12.54,15.77,6.87,4.45,16.18,7.68,26.29,6.07,10.11-1.62,21.43-8.49,27.09-19.41,6.07-10.92,6.87-25.88,2.83-37.61-4.04-11.73-12.94-20.22-24.26-23.46-11.32-3.24-25.48-1.62-38.01,5.26-12.54,6.87-23.05,18.6-27.5,31.54-4.45,12.94-2.83,26.29,2.83,37.61,5.66,10.92,14.96,19.41,26.69,24.26,11.73,4.85,26.29,5.66,39.63.81,13.35-4.85,25.07-14.96,32.35-26.29,7.28-11.32,9.71-23.46,9.3-35.99-.4-12.54-3.64-25.07-9.71-34.78-6.07-9.71-14.56-16.58-29.12-19.82-14.56-3.24-34.78-2.83-49.34.81-14.56,3.64-22.65,10.92-29.93,22.65-6.87,11.73-12.54,27.9-13.75,41.65-1.21,13.75,2.43,24.67,9.3,35.18,6.87,10.11,16.98,19.82,29.93,25.48,12.94,6.07,27.9,8.49,43.68,6.47,15.77-2.02,31.14-8.49,41.25-16.18,10.11-7.68,14.56-16.58,19.01-25.48"/>
      <circle class="cls-1" cx="344.37" cy="366.5" r="76.43"/>
      <g>
        <path class="cls-9" d="m441.02,103.64c13.35,8.9,27.09,17.79,33.97,29.52,6.87,11.73,7.28,26.69,8.09,33.97.4,7.28,1.21,6.47,4.85.81,3.64-5.66,10.51-16.58,17.39-27.9-2.43-4.45-4.85-8.9-10.92-16.98-6.07-8.09-15.77-19.41-22.65-25.88-6.87-6.47-10.51-7.68-14.56-8.9-5.26,5.26-10.92,10.11-16.18,15.37Z"/>
        <path class="cls-9" d="m88.38,86.66c-10.51,8.9-21.43,17.79-28.31,29.52-6.87,11.73-10.11,26.69-12.13,33.97-2.02,7.28-2.43,6.47-6.47.81-3.64-5.66-10.51-16.58-17.39-27.9,2.43-4.45,4.85-8.9,10.92-16.98,6.07-8.09,15.77-19.41,22.65-25.88,6.87-6.47,10.51-7.68,14.56-8.9,5.26,4.85,10.92,10.11,16.18,15.37Z"/>
        <path class="cls-6" d="m106.98,372.57c2.43,12.94,4.85,25.48,8.9,32.35,4.45,6.87,10.51,7.28,16.18,3.64,5.66-3.64,10.51-11.32,15.37-19.01"/>
        <path class="cls-6" d="m136.91,518.96c3.64,12.94,6.87,25.88,13.35,33.16,6.47,7.28,16.18,8.09,22.24,3.64,6.47-4.85,9.71-14.96,12.94-25.48"/>
        <path class="cls-6" d="m340.73,624.91c5.66,6.47,11.32,12.94,17.39,15.77,6.07,2.83,12.94,2.43,17.79-2.02,4.85-4.45,8.09-12.94,11.32-21.43"/>
        <path class="cls-6" d="m398.96,198.68c6.87,7.68,14.15,15.37,16.18,22.24,2.02,6.87-.81,12.54-5.66,15.37-4.85,2.83-11.73,2.83-18.6,2.83"/>
        <path class="cls-6" d="m106.98,229.01c-6.07,12.54-12.13,24.67-12.13,33.16s6.07,12.13,10.51,14.15c4.45,2.02,7.28,1.62,10.11,1.62"/>
        <path class="cls-6" d="m439.81,432.82c3.64,7.68,6.87,15.37,6.07,20.22-.81,4.85-6.47,6.87-10.11,6.87s-5.66-1.62-7.68-3.24"/>
      </g>
    </g>
  </g>
</svg>