<?xml version="1.0" encoding="UTF-8"?>
<svg id="Layer_2" data-name="Layer 2" xmlns="http://www.w3.org/2000/svg" viewBox="0 0 886.99 509.23">
  <defs>
    <style>
      .cls-1, .cls-2 {
        fill: none;
      }

      .cls-1, .cls-3, .cls-4, .cls-5, .cls-6, .cls-7 {
        stroke-width: 0px;
      }

      .cls-2 {
        stroke: #010101;
        stroke-miterlimit: 2.61;
        stroke-width: 2.3px;
      }

      .cls-3 {
        fill: #1c0f16;
      }

      .cls-3, .cls-4, .cls-5, .cls-6, .cls-7 {
        fill-rule: evenodd;
      }

      .cls-4 {
        fill: #add7e5;
      }

      .cls-5 {
        fill: #b092c3;
      }

      .cls-6 {
        fill: #f0a1c3;
      }

      .cls-7 {
        fill: #fdebd8;
      }
    </style>
  </defs>
  <g id="Layer_1-2" data-name="Layer 1">
    <g id="Layer_1-3" data-name="Layer 1">
      <path class="cls-6" d="m446.9,57.34c-8.35-16.3-35.38-45.31-59.22-54.06-23.85-9.14-44.92,1.99-54.85,19.08-9.94,17.09-8.74,39.75-8.74,50.88s-1.19,10.73-15.5,6.76c-14.31-3.97-41.74-11.13-57.24-12.72-15.5-1.59-19.08,2.38-19.08,16.3s4.37,37.76,5.96,49.68c1.59,11.92.79,12.32-17.89,6.76-18.68-5.56-54.85-17.49-75.12-13.12-20.27,4.37-24.25,25.44-19.08,47.7,5.17,22.66,19.87,46.51,25.44,58.83,5.17,11.92,1.19,11.92-19.87,6.76s-59.22-15.9-77.11-15.1c-18.28.79-16.69,13.12-13.12,32.2,3.18,19.08,8.35,44.92,7.15,56.44-1.19,11.92-7.95,9.94-18.28,8.74-10.33-1.19-23.85-1.59-28.22,6.36-4.77,7.95-.79,24.25,5.17,38.56,5.96,14.31,13.12,26.63,17.89,31.4,4.37,4.77,5.96,2.38,28.22-21.46,22.26-23.85,65.98-68.37,103.34-106.92,37.36-38.56,68.76-70.35,101.75-99.37,32.99-29.02,66.78-55.65,96.19-70.35,29.41-14.31,54.45-17.09,72.34-19.87,17.09-3.18,27.82-7.15,19.87-23.45Z"/>
      <path class="cls-2" d="m671.07,213.94c31-4.37,61.61-8.74,83.47-23.85,21.86-15.1,34.98-41.34,43.33-63.99,8.35-22.66,11.53-41.74,14.71-61.21"/>
      <path class="cls-2" d="m778.39,62.5c-.79,10.33-1.59,20.27-1.59,35.38s.79,34.58,1.59,45.71c.79,11.53,1.99,14.71,12.32,13.12,10.73-1.59,31-7.55,48.49-19.08,17.49-11.92,32.2-29.41,46.9-46.9"/>
      <path class="cls-5" d="m33.91,395.59c10.73-16.3,29.02-38.56,46.11-54.45,17.09-16.3,32.59-26.23,58.03-57.24,25.84-31,61.61-82.28,103.34-123.62,41.34-41.34,88.64-72.34,143.49-84.27,54.85-11.92,118.05-5.17,161.38,7.95,43.33,13.12,67.17,31.8,79.5,44.52,12.32,12.72,13.51,19.08,19.87,27.43,5.96,8.35,17.09,18.68,25.84,32.99,8.74,14.31,14.71,33.39,19.48,48.09,4.77,14.71,7.95,25.44,12.72,30.21,4.77,4.77,10.73,3.97,30.21-1.99,19.08-5.96,51.67-17.49,68.37-19.87,16.69-2.38,17.89,3.97,15.9,17.89-2.38,13.51-7.95,34.58-10.33,50.48-2.38,16.3-1.19,27.43.4,38.95,1.59,11.13,3.18,22.26,1.99,32.99-1.19,10.73-4.77,20.67-19.08,30.61-14.31,9.94-39.75,19.08-166.94,22.66-127.19,3.18-356.54.4-474.19-1.59-118.05-1.99-124.41-2.78-126.4-8.35-1.99-5.56,0-17.09,10.33-33.39Z"/>
      <path class="cls-4" d="m331.63,105.43c7.15,3.97,10.73,17.89,8.35,30.61-2.38,12.72-11.13,24.25-26.23,36.17-15.5,11.92-37.36,24.25-57.24,30.61-19.87,6.36-36.97,7.15-44.12,4.37-6.76-2.78-3.58-9.14,5.56-19.08,9.14-9.94,23.45-23.05,38.56-36.17,15.5-13.12,31.4-25.84,44.52-35.38,13.51-9.54,23.45-15.1,30.61-11.13Z"/>
      <path class="cls-1" d="m33.91,395.59c10.73-16.3,29.02-38.56,46.11-54.45,17.09-16.3,32.59-26.23,58.03-57.24,25.84-31,61.61-82.28,103.34-123.62,41.34-41.34,88.64-72.34,143.49-84.27,54.85-11.92,118.05-5.17,161.38,7.95,43.33,13.12,67.17,31.8,79.5,44.52,12.32,12.72,13.51,19.08,19.87,27.43,5.96,8.35,17.09,18.68,25.84,32.99,8.74,14.31,14.71,33.39,19.48,48.09,4.77,14.71,7.95,25.44,12.72,30.21,4.77,4.77,10.73,3.97,30.21-1.99,19.08-5.96,51.67-17.49,68.37-19.87,16.69-2.38,17.89,3.97,15.9,17.89-2.38,13.51-7.95,34.58-10.33,50.48-2.38,16.3-1.19,27.43.4,38.95,1.59,11.13,3.18,22.26,1.99,32.99-1.19,10.73-4.77,20.67-19.08,30.61-14.31,9.94-39.75,19.08-166.94,22.66-127.19,3.18-356.54.4-474.19-1.59-118.05-1.99-124.41-2.78-126.4-8.35-1.99-5.56,0-17.09,10.33-33.39Z"/>
      <path class="cls-7" d="m660.74,271.58c-1.59-8.35-4.77-23.05-3.18-30.61,1.59-7.55,7.95-8.74,19.08-10.73,11.13-2.38,27.43-5.96,35.77-6.76,8.35-1.19,8.74.79,11.53,7.95,2.78,7.15,7.15,19.87,9.14,26.23,1.99,6.36.79,6.76-9.54,9.54-10.33,2.78-29.81,7.95-41.34,11.13-11.53,3.18-14.71,3.97-16.3,4.37s-1.99.4-2.38-.4c-.4-1.19-1.19-2.78-2.78-10.73Z"/>
      <path class="cls-7" d="m739.04,257.27c-1.99-6.76-5.17-17.49-3.58-24.25,1.59-6.76,7.15-9.54,16.69-11.13,9.54-1.59,23.05-1.99,29.81-1.99q6.76-.4,7.55,5.56c.79,5.96,2.38,17.89,1.19,23.85-1.19,5.96-5.17,5.96-13.51,8.35-8.35,2.38-21.07,6.76-27.82,7.95-7.15.8-8.35-1.59-10.33-8.35Z"/>
      <path class="cls-2" d="m579.26,306.95c73.14-20.27,146.27-40.15,186.02-49.68,39.75-9.54,45.71-7.95,51.67-6.76"/>
      <path class="cls-4" d="m373.36,182.54c-6.36-4.37-19.87-5.56-30.21-1.59-10.33,4.37-17.89,13.91-15.5,21.07,2.38,7.15,13.91,11.53,24.25,11.13,9.94-.4,18.28-5.56,22.66-12.32,4.37-6.76,5.17-13.91-1.19-18.28Z"/>
      <path class="cls-4" d="m272.4,220.7c-5.96,1.19-10.33,4.37-7.95,8.35,2.38,3.97,10.73,8.35,17.09,7.15,5.96-1.19,9.94-7.55,7.55-11.53-2.38-3.58-10.73-4.77-16.69-3.97Z"/>
      <path class="cls-4" d="m217.55,248.52c-10.73,7.15-26.23,18.68-30.61,29.81s2.78,21.46,17.09,22.66c14.31.79,35.77-8.35,47.7-17.89,11.53-9.94,13.12-20.27,9.54-28.22s-12.72-13.12-19.87-14.31c-7.55-1.99-13.12.8-23.85,7.95Z"/>
      <path class="cls-4" d="m130.5,325.64c-6.36,2.78-16.3,10.73-21.46,18.28-5.56,7.55-6.76,14.31.79,17.49,7.55,3.18,23.85,2.38,34.18-1.59,10.33-3.58,14.31-10.33,13.12-15.9-1.19-5.56-7.95-10.73-12.32-14.31-4.37-3.58-7.95-6.36-14.31-3.97Z"/>
      <path class="cls-4" d="m406.75,84.76c-10.33,3.58-21.07,12.32-20.67,20.67.4,8.35,12.32,16.69,26.23,15.1,13.91-1.59,30.61-12.32,34.58-20.27,4.37-7.95-3.58-12.32-11.92-15.1-8.74-2.78-18.28-3.97-28.22-.4Z"/>
      <path class="cls-2" d="m452.86,221.1c2.78-11.92,5.56-23.85,12.32-33.39,6.76-9.54,17.49-17.09,27.43-18.28,10.33-1.59,19.87,3.18,29.81,7.55"/>
      <path class="cls-2" d="m549.84,164.66c1.59-9.14,3.18-17.89,8.74-25.84,5.56-7.95,15.1-14.31,26.63-15.9,11.92-1.59,26.23,1.59,34.58,4.77,8.35,3.18,11.53,6.36,14.31,9.94"/>
      <path class="cls-2" d="m454.05,298.21c21.86,46.9,43.33,94.2,68.76,124.41,25.44,30.61,54.85,44.12,82.68,51.27,27.82,7.15,54.06,7.55,79.89,7.95"/>
      <path class="cls-2" d="m584.03,467.14c19.87-8.74,39.75-17.89,56.84-19.48,17.09-1.59,31.4,4.77,45.71,10.73"/>
      <path class="cls-2" d="m580.05,465.55c7.95,10.33,15.9,21.07,25.04,27.82,9.14,6.76,19.08,9.94,28.62,11.92,9.54,1.99,17.89,2.38,26.63,2.78"/>
      <path class="cls-7" d="m517.25,299.8c23.05,0,41.74-18.68,41.74-41.74s-18.68-41.74-41.74-41.74-41.74,18.68-41.74,41.74c-.4,23.05,18.68,41.74,41.74,41.74Z"/>
      <path class="cls-3" d="m527.19,274.36c15.5,0,28.22-12.72,28.22-28.22s-12.72-28.22-28.22-28.22-28.22,12.72-28.22,28.22,12.72,28.22,28.22,28.22Z"/>
      <path class="cls-7" d="m608.27,262.44c24.25,0,44.12-19.87,44.12-44.12s-19.87-44.12-44.12-44.12-44.12,19.87-44.12,44.12,19.87,44.12,44.12,44.12Z"/>
      <path class="cls-3" d="m619,235.01c16.3,0,29.81-13.51,29.81-29.81s-13.51-29.81-29.81-29.81-29.81,13.51-29.81,29.81,13.51,29.81,29.81,29.81Z"/>
    </g>
  </g>
</svg>