<?xml version="1.0" encoding="UTF-8"?>
<svg id="Layer_2" data-name="Layer 2" xmlns="http://www.w3.org/2000/svg" viewBox="0 0 826.87 894.51">
  <defs>
    <style>
      .cls-1, .cls-2, .cls-3 {
        fill: none;
      }

      .cls-1, .cls-4, .cls-5, .cls-6, .cls-7, .cls-8 {
        stroke-width: 0px;
      }

      .cls-2 {
        stroke: #010101;
        stroke-width: 1.44px;
      }

      .cls-2, .cls-3 {
        stroke-miterlimit: 2.61;
      }

      .cls-3 {
        stroke: #1c0f16;
        stroke-width: 2.3px;
      }

      .cls-4 {
        fill: #1c0f16;
      }

      .cls-4, .cls-5, .cls-6, .cls-7, .cls-8 {
        fill-rule: evenodd;
      }

      .cls-5 {
        fill: #b092c3;
      }

      .cls-6 {
        fill: #f0a1c3;
      }

      .cls-7 {
        fill: #fddc51;
      }

      .cls-8 {
        fill: #fdebd8;
      }
    </style>
  </defs>
  <g id="Layer_1-2" data-name="Layer 1">
    <g id="Layer_1-3" data-name="Layer 1">
      <path class="cls-5" d="m247.57,752.8c0,31.72.43,63.45.87,79.09.43,15.64.87,15.21-11.3,20.86-12.17,5.65-36.5,17.82-43.02,25.21-6.08,7.39,6.08,10,25.64,10.86,19.56,1.3,46.5.43,59.1,0,12.6-.87,10.86-1.74,9.13-23.9-1.74-22.16-3.04-66.05-5.21-88.22-2.17-22.16-5.21-21.73-8.26-23.47-3.04-1.3-6.08-3.91-10.86-4.35-4.35,0-10.43,2.17-16.08,3.91Z"/>
      <path class="cls-6" d="m485.71,315.62c10.43-14.34,30.85-28.68,54.32-32.59,23.47-3.91,49.98,2.61,66.92,22.16,16.51,19.56,23.47,51.71,6.95,75.18-16.08,23.47-55.19,37.37-78.66,44.33-23.47,6.95-31.29,6.95-35.63,3.04-4.35-3.48-5.65-10.43-9.56-22.6-3.91-12.17-9.56-29.12-12.6-45.2-2.61-15.64-2.17-29.99,8.26-44.33Z"/>
      <path class="cls-6" d="m134.58,320.83c-11.73-13.47-33.03-26.07-56.93-28.25-23.9-2.17-49.54,6.95-64.75,27.81-14.78,20.86-19.12,53.45-.87,75.62,17.82,21.73,58.23,33.03,81.7,37.81,23.9,5.21,31.72,4.35,35.63.43,3.91-3.91,4.78-10.86,7.39-23.47,2.61-12.17,7.39-29.99,9.13-46.06,1.74-16.08.43-30.42-11.3-43.89Z"/>
      <path class="cls-5" d="m413.14,726.72c2.61,34.77,4.78,69.97,5.65,86.91.87,16.95.43,16.95,13.04,23.03,12.6,6.52,38.24,19.56,45.2,26.94,6.95,7.39-5.21,9.13-25.21,11.3-19.56,1.74-46.5,3.91-59.1,4.35-12.6.43-10.86-.87-11.3-25.64-.43-24.77-2.61-73.01-2.17-97.34.43-24.34,3.48-24.77,6.52-26.51,3.04-1.74,5.65-4.78,10.43-5.65,4.78-.43,10.86.87,16.95,2.61Z"/>
      <path class="cls-5" d="m507.01,478.15c12.6,13.47,36.07,48.67,62.14,79.53,26.07,30.85,54.32,56.93,79.53,72.57,25.21,15.64,46.93,20.42,63.01,20.86,16.08.43,26.94-3.48,32.16-10.43,5.65-6.95,6.08-16.51,12.6-23.47,6.52-6.95,18.69-10.86,28.25-7.82,9.56,3.04,16.08,13.47,16.08,23.47s-7.39,20.42-12.17,26.51c-4.78,6.08-7.39,7.82-3.04,9.56,4.35,2.17,16.08,4.35,25.21,10.43s15.64,16.51,16.08,25.64c.43,9.13-5.21,17.82-13.04,22.16-7.82,4.35-17.38,4.78-27.38,1.74-10-3.04-19.99-9.56-24.77-9.56-4.35.43-3.04,7.39-5.21,14.78-2.17,7.39-7.39,15.64-13.91,18.25-6.52,3.04-13.91.87-18.25-5.65s-5.65-16.51-6.08-24.34c-.43-7.82,0-13.04-2.17-17.38-2.17-4.35-6.52-7.39-22.6-12.17-16.08-4.78-43.46-10.86-74.75-29.99-31.29-19.12-66.05-51.71-83.87-73.01-17.82-21.29-18.69-30.85-23.03-46.93-4.35-16.08-12.17-38.68-15.21-54.32-3.04-14.78-2.17-23.47,10.43-10.43Z"/>
      <path class="cls-5" d="m129.36,450.77c-17.38,25.64-51.28,83-71.7,141.24-20.42,58.23-26.94,117.33-29.99,153.84-3.04,36.5-2.17,50.41-6.08,61.71-3.91,11.3-12.6,19.99-16.95,29.12-4.35,9.13-4.78,18.25.43,25.64,5.21,7.39,16.08,12.6,23.03,9.13,6.95-3.48,10.86-15.64,13.91-19.56,3.04-3.91,5.21,0,7.39,7.82,2.17,7.82,3.91,19.12,9.13,26.07,5.21,6.95,13.91,10,21.73,8.26,7.82-1.74,15.21-8.26,18.69-16.51,3.48-7.82,3.48-17.38.87-24.77-2.17-7.39-6.95-12.6-6.08-12.6s6.95,5.65,13.47,6.52c6.08.87,12.17-2.61,16.51-10s6.08-18.25,2.61-24.77c-3.48-6.52-12.6-9.13-21.29-11.73-8.69-2.61-16.51-4.78-22.16-11.73-5.65-6.95-10-19.12-10-44.33s3.91-64.75,14.78-107.77c10.86-43.02,29.12-89.96,40.42-118.2,10.86-28.25,14.78-37.81,17.38-48.24,2.17-10.43,3.04-21.29,3.04-29.99-.43-9.13-1.74-14.78-19.12,10.86Z"/>
      <path class="cls-5" d="m455.29,123.97c10.43-7.82,26.94-19.56,42.59-41.28,15.64-21.73,29.55-54.32,41.28-70.4,11.73-16.08,20.42-16.08,27.38-1.74,6.95,14.78,11.73,43.89,6.95,76.92-4.78,33.03-18.69,70.4-36.5,97.34-17.82,26.94-39.11,43.02-50.84,51.71-11.73,8.69-14.78,10.43-16.95,6.52-2.61-3.91-4.78-13.04-8.69-29.55-3.91-16.51-9.56-39.98-13.91-53.45-4.35-13.47-6.95-16.95-6.08-20.86.43-3.91,4.35-7.82,14.78-15.21Z"/>
      <path class="cls-1" d="m455.29,123.97c10.43-7.82,26.94-19.56,42.59-41.28,15.64-21.73,29.55-54.32,41.28-70.4,11.73-16.08,20.42-16.08,27.38-1.74,6.95,14.78,11.73,43.89,6.95,76.92-4.78,33.03-18.69,70.4-36.5,97.34-17.82,26.94-39.11,43.02-50.84,51.71-11.73,8.69-14.78,10.43-16.95,6.52-2.61-3.91-4.78-13.04-8.69-29.55-3.91-16.51-9.56-39.98-13.91-53.45-4.35-13.47-6.95-16.95-6.08-20.86.43-3.91,4.35-7.82,14.78-15.21Z"/>
      <path class="cls-5" d="m159.35,137.88c-10.43-7.82-26.94-19.56-42.59-41.28-15.64-22.16-29.55-54.32-41.28-70.4-11.73-16.08-20.42-16.08-27.38-1.74-6.95,14.78-11.73,43.89-6.95,76.92,4.78,33.03,18.69,70.4,36.5,97.34,17.82,26.94,39.11,43.02,50.84,51.71,12.17,8.69,14.78,10.43,16.95,6.52,2.61-3.91,4.78-13.04,8.69-29.55,3.91-16.51,9.56-39.98,13.91-53.45,4.35-13.47,6.95-16.95,6.08-20.86-.43-3.48-4.35-7.39-14.78-15.21Z"/>
      <path class="cls-1" d="m159.35,137.88c-10.43-7.82-26.94-19.56-42.59-41.28-15.64-22.16-29.55-54.32-41.28-70.4-11.73-16.08-20.42-16.08-27.38-1.74-6.95,14.78-11.73,43.89-6.95,76.92,4.78,33.03,18.69,70.4,36.5,97.34,17.82,26.94,39.11,43.02,50.84,51.71,12.17,8.69,14.78,10.43,16.95,6.52,2.61-3.91,4.78-13.04,8.69-29.55,3.91-16.51,9.56-39.98,13.91-53.45,4.35-13.47,6.95-16.95,6.08-20.86-.43-3.48-4.35-7.39-14.78-15.21Z"/>
      <path class="cls-7" d="m111.11,681.96c4.35-111.69,15.21-324.63,26.07-439.79,10.43-115.16,20.86-132.11,69.97-141.24,49.11-9.13,137.32-10,185.13-8.69,47.8,1.3,54.76,4.78,78.66,122.11,23.9,117.33,64.75,348.96,81.7,464.56,16.95,115.6,10.43,115.6.43,107.77-10-7.82-23.47-23.47-31.72-23.47-8.26-.43-12.17,14.78-21.29,26.51-9.56,11.73-25.21,19.56-41.72,9.13-16.51-10.43-35.2-39.11-46.93-47.8-11.73-8.26-16.95,3.48-32.16,19.12-15.21,15.64-40.42,35.2-62.14,35.63-21.29.43-39.11-18.25-49.54-29.12-10.43-10.86-13.04-13.91-19.99-3.91-6.95,10-18.69,33.9-30.85,41.28-12.17,7.39-25.21-.87-31.72-13.47-6.52-12.6-6.95-29.55-18.25-27.81-10.86,1.74-32.59,22.16-44.76,26.94-12.17,5.21-14.78-6.08-10.86-117.77Z"/>
      <path class="cls-6" d="m122.84,546.81c10.86-26.94,48.67-44.76,73.44-43.46,24.77,1.3,41.28,24.77,60.41,34.77,18.69,9.56,39.55,5.65,62.14-5.21,22.16-10.86,46.5-29.12,65.62-30.85,19.56-1.74,34.77,13.04,56.93,15.64,22.6,2.61,52.15-6.52,68.66-10.86,16.51-4.35,14.34-4.35,18.25,19.99,3.91,24.34,13.04,70.4,15.21,91.69,2.17,23.9-14.78,18.25-36.07,6.08-21.29-12.17-53.89-31.72-95.61-26.51-41.72,5.21-93,35.63-119.51,41.72-26.51,6.08-28.68-11.73-35.63-21.29-6.95-9.56-18.25-11.73-36.94-6.08-18.69,5.65-44.33,18.25-65.19,28.25-20.86,10-31.29,26.94-38.68,24.34-7.39-2.61-3.04-22.6-2.17-42.59.43-20.86-2.17-46.93,9.13-75.62Z"/>
      <path class="cls-1" d="m111.11,681.96c4.35-111.69,15.21-324.63,26.07-439.79,10.43-115.16,20.86-132.11,69.97-141.24,49.11-9.13,137.32-10,185.13-8.69,47.8,1.3,54.76,4.78,78.66,122.11,23.9,117.33,64.75,348.96,81.7,464.56,16.95,115.6,10.43,115.6.43,107.77-10-7.82-23.47-23.47-31.72-23.47-8.26-.43-12.17,14.78-21.29,26.51-9.56,11.73-25.21,19.56-41.72,9.13-16.51-10.43-35.2-39.11-46.93-47.8-11.73-8.26-16.95,3.48-32.16,19.12-15.21,15.64-40.42,35.2-62.14,35.63-21.29.43-39.11-18.25-49.54-29.12-10.43-10.86-13.04-13.91-19.99-3.91-6.95,10-18.69,33.9-30.85,41.28-12.17,7.39-25.21-.87-31.72-13.47-6.52-12.6-6.95-29.55-18.25-27.81-10.86,1.74-32.59,22.16-44.76,26.94-12.17,5.21-14.78-6.08-10.86-117.77Z"/>
      <g>
        <path class="cls-8" d="m197.59,388.63c6.52,4.35,19.99,12.6,26.94,9.56,6.95-2.61,7.39-16.08,5.65-26.51-1.74-10.43-5.65-17.82-9.13-19.56-3.48-1.74-6.08,2.17-10.86,8.26-4.78,6.08-12.17,13.91-15.64,18.25-3.91,4.78-3.91,5.65,3.04,10Z"/>
        <path class="cls-8" d="m225.4,355.6c5.21,7.39,18.25,21.29,26.07,25.64,7.82,4.35,10-.43,11.73-12.6,1.74-12.17,2.61-31.72,0-40.42s-9.13-6.52-15.64-1.74c-6.95,4.78-13.91,12.17-19.12,16.51-5.21,4.35-8.26,5.65-3.04,12.6Z"/>
        <path class="cls-8" d="m374.03,326.92c-.43,9.13,2.17,27.81,5.21,36.07,3.04,8.26,6.95,6.08,12.17.43,4.78-5.65,10.86-15.21,12.6-20.42,1.74-5.21-.43-7.39-5.21-10.86-4.78-3.48-11.73-9.13-16.51-11.73-5.65-3.04-8.26-3.04-8.26,6.52Z"/>
        <path class="cls-3" d="m172.38,416c16.95-25.21,33.9-50.41,56.49-71.27,22.6-20.86,50.84-37.37,83.87-38.68,32.59-1.3,69.97,12.6,95.61,32.59,25.64,20.42,39.11,47.37,53.02,74.31"/>
      </g>
      <path class="cls-7" d="m260.6,84.86c.87-13.91,4.78-38.24,10-43.46,5.21-5.21,11.3,8.69,15.21,17.82,3.91,9.13,5.65,14.34,12.17,8.69,6.52-5.65,17.38-21.29,27.38-35.2,9.56-13.91,18.25-25.21,22.6-27.81,4.35-2.61,4.78,4.35,5.21,20.42.43,16.08.87,41.28-.87,55.19-1.74,13.91-4.78,15.64-12.17,16.95-7.39,1.3-18.25,1.74-31.29,3.04-13.04,1.3-28.25,3.48-36.94,2.61-9.56-.87-12.17-4.35-11.3-18.25Z"/>
      <path class="cls-2" d="m570.89,329.52c-9.13,8.26-18.69,16.95-24.34,26.07-5.65,9.56-7.82,19.56-10,29.99"/>
      <path class="cls-2" d="m527,336.04c11.73,8.69,23.03,17.82,29.99,25.21,6.95,7.39,9.56,13.91,12.6,19.99"/>
      <path class="cls-2" d="m53.75,337.78c10,7.82,19.99,15.21,26.51,24.34,6.52,8.69,9.13,19.12,12.17,29.12"/>
      <path class="cls-2" d="m97.64,340.82c-10.86,9.56-21.73,19.56-27.81,27.81-6.52,8.26-8.69,14.34-10.86,20.86"/>
      <path class="cls-8" d="m205.41,280.42c26.07,0,47.8-21.29,47.8-47.8s-21.29-47.8-47.8-47.8-47.8,21.29-47.8,47.8,21.73,47.8,47.8,47.8Z"/>
      <path class="cls-4" d="m200.63,264.77c13.47,0,24.34-10.86,24.34-24.34s-10.86-24.34-24.34-24.34-24.34,10.86-24.34,24.34,10.86,24.34,24.34,24.34Z"/>
      <path class="cls-8" d="m302.32,275.2c26.07,0,47.8-21.29,47.8-47.8s-21.29-47.8-47.8-47.8-47.8,21.29-47.8,47.8c.43,26.51,21.73,47.8,47.8,47.8Z"/>
      <path class="cls-4" d="m304.49,251.3c13.47,0,24.34-10.86,24.34-24.34s-10.86-24.34-24.34-24.34-24.34,10.86-24.34,24.34,10.86,24.34,24.34,24.34Z"/>
      <path class="cls-8" d="m395.32,273.03c26.07,0,47.8-21.29,47.8-47.8s-21.29-47.8-47.8-47.8-47.8,21.29-47.8,47.8,21.73,47.8,47.8,47.8Z"/>
      <path class="cls-4" d="m406.62,241.74c13.47,0,24.34-10.86,24.34-24.34s-10.86-24.34-24.34-24.34-24.34,10.86-24.34,24.34,10.86,24.34,24.34,24.34Z"/>
      <path class="cls-7" d="m484.84,98.77s23.47,23.03,44.76,44.76c21.29,22.16,18.69,22.16,18.69,22.16l13.47-30.85s-58.67-53.02-65.62-49.54l-11.3,13.47Z"/>
      <path class="cls-7" d="m57.66,161.34s26.94-21.73,58.23-33.46c22.6-8.69,23.03-5.21,23.03-5.21l-18.69-22.16s-69.53,35.2-68.66,43.02l6.08,17.82Z"/>
    </g>
  </g>
</svg>