<?xml version="1.0" encoding="UTF-8"?>
<svg id="Layer_2" data-name="Layer 2" xmlns="http://www.w3.org/2000/svg" viewBox="0 0 943.59 671.39">
  <defs>
    <style>
      .cls-1 {
        stroke: #56ae47;
        stroke-width: 1.44px;
      }

      .cls-1, .cls-2, .cls-3 {
        fill: none;
        stroke-miterlimit: 2.61;
      }

      .cls-2 {
        stroke: #cf3928;
      }

      .cls-2, .cls-3 {
        stroke-width: 2.3px;
      }

      .cls-3 {
        stroke: #010101;
      }

      .cls-4 {
        fill: #1c0f16;
      }

      .cls-4, .cls-5, .cls-6, .cls-7, .cls-8 {
        fill-rule: evenodd;
        stroke-width: 0px;
      }

      .cls-5 {
        fill: #56ae47;
      }

      .cls-6 {
        fill: #cf3928;
      }

      .cls-7 {
        fill: #ea634b;
      }

      .cls-8 {
        fill: #fdebd8;
      }
    </style>
  </defs>
  <g id="Layer_1-2" data-name="Layer 1">
    <g id="Layer_1-3" data-name="Layer 1">
      <g>
        <path class="cls-6" d="m608.77,246.61c6.01-6.38,24.41-15.39,49.94-37.17,25.53-21.4,58.95-55.57,81.85-87.11,22.9-31.54,36.05-60.83,44.31-73.59,8.26-12.77,12.77-10.14,40.93,14.64,28.16,24.78,80.35,71.34,103.26,93.12,22.9,21.78,16.52,19.15-3.75,16.52-20.28-2.63-54.07-5.26-73.22,5.26-19.15,10.51-23.28,33.79-27.41,43.18-4.51,9.39-9.01,4.51-16.9,1.13-7.89-3.38-19.15-4.88-30.04-1.88-10.89,3-21.03,10.14-27.41,23.66s-9.01,33.79-16.15,37.17c-7.13,3.75-18.4-9.39-32.29-12.39-13.89-3.38-30.04,3.38-40.55,9.76-10.51,6.76-15.77,13.52-21.03,12.77-5.26-.75-10.89-9.39-15.39-15.77-4.51-6.38-7.51-10.89-12.02-15.02-4.51-4.13-10.14-7.89-4.13-14.27Z"/>
        <g>
          <g>
            <path class="cls-3" d="m658.71,440.36c29.66-12.39,58.95-24.78,81.85-39.05,22.9-13.89,39.05-29.66,51.44-46.18,12.39-16.9,20.65-34.92,28.91-52.94"/>
            <path class="cls-3" d="m779.24,370.52c12.77,1.13,25.53,1.88,37.55-2.63,12.02-4.51,22.9-14.64,29.66-24.03,7.13-9.01,10.14-16.9,13.14-24.78"/>
            <path class="cls-3" d="m779.99,371.64c-3-4.51-6.01-9.39-6.38-19.52-.38-10.14,1.88-25.53,4.51-36.42,2.63-10.89,5.26-16.52,7.89-22.53"/>
          </g>
          <path class="cls-6" d="m331.67,216.2c-5.63-6.76-23.28-16.9-47.69-40.18-24.41-22.9-55.57-58.95-76.6-91.62-21.03-33.04-32.29-62.7-39.8-76.22-7.51-13.52-12.02-10.89-41.68,12.39-29.66,22.53-84.48,65.71-108.51,86.36-24.03,20.65-17.65,18.4,2.63,16.9,20.28-1.5,54.44-1.88,72.84,9.76,18.4,11.64,21.03,35.29,24.78,44.68,3.75,9.39,8.64,4.88,16.9,2.25,8.26-2.63,19.52-3.38,30.04,0,10.51,3.38,20.28,11.26,25.91,25.16,5.63,13.89,7.13,34.17,13.89,38.3,6.76,4.13,18.77-8.26,32.67-10.51,13.89-2.25,29.66,4.88,40.18,12.39,10.14,7.51,14.64,14.64,20.28,14.27,5.26-.38,11.64-8.64,16.15-15.02,4.88-6.38,8.26-10.51,12.77-14.27,4.88-4.51,10.89-7.88,5.26-14.64Z"/>
          <path class="cls-5" d="m230.67,578.91c-8.26,16.15-22.15,45.81-25.91,61.2-3.75,15.39,2.25,16.15,10.51,13.14,8.64-3,19.52-9.76,24.41-12.02,5.26-2.25,4.51.75,5.26,5.63.75,5.26,3,12.77,6.76,16.52,3.75,4.13,8.64,4.51,18.02-12.77,9.39-16.9,23.28-51.44,30.79-69.09,7.51-17.65,7.51-18.77-.75-19.52-8.26-.75-25.16-.75-36.05-1.13-10.89-.38-15.39-1.88-18.77-1.13-3.75.75-6.38,3-14.27,19.15Z"/>
          <path class="cls-5" d="m637.68,584.54c8.26,16.15,22.15,45.81,25.91,61.2,3.75,15.39-2.25,16.15-10.51,13.14-8.64-3-19.52-9.76-24.41-12.02-5.26-2.25-4.51.75-5.26,5.63-.75,5.26-3,12.77-6.76,16.52-3.75,4.13-8.64,4.51-18.02-12.77-9.39-17.27-23.28-51.44-30.79-69.09-7.13-17.65-7.51-18.77.75-19.52,8.26-.75,25.16-.75,36.05-1.13,10.89-.75,15.39-1.88,18.77-1.13,3.75.75,6.01,3,14.27,19.15Z"/>
          <path class="cls-5" d="m205.89,486.16c-6.01,3.75-15.02,11.64-29.66,22.9-14.27,11.26-34.17,25.53-50.31,32.67-16.15,7.13-29.29,6.76-36.05,6.38-6.76,0-7.51,0-8.64,6.01-1.13,6.01-2.25,18.02.75,24.41,3,6.38,9.76,6.76,22.9,4.13,13.14-2.63,33.42-7.89,50.69-15.02,17.27-7.51,31.54-16.9,40.93-27.79,9.39-10.89,13.89-23.28,16.52-33.04,2.63-9.76,3.38-16.52,2.25-19.9-1.13-3.38-3.38-4.51-9.39-.75Z"/>
          <path class="cls-5" d="m78.6,508.32c15.77-2.63,16.15,1.13,14.27,20.65-1.88,19.9-6.01,55.95-10.14,74.34-4.13,18.4-8.26,18.02-23.28,4.51-15.02-13.89-40.55-41.3-52.19-57.07-11.64-15.77-9.39-19.52,7.51-25.53,16.9-6.01,48.06-14.27,63.83-16.9Z"/>
          <path class="cls-7" d="m434.93,132.47c-28.91,12.39-76.6,40.18-111.52,71.34-34.92,31.16-57.07,66.08-60.08,79.23-3,13.52,13.89,5.63,23.66.75,10.14-4.88,13.52-6.76,3.75.38-9.76,7.13-33.04,22.9-48.06,37.17-15.02,14.27-22.15,27.03-18.4,30.04,3.75,2.63,18.4-4.88,23.66-6.38,5.26-1.5,1.13,3-7.51,14.64-8.64,11.64-21.78,30.79-30.79,47.31-8.64,16.52-12.77,31.16-12.02,37.17.75,6.38,6.38,4.51,4.13,11.64-2.63,7.51-13.14,24.03-20.28,42.8-7.51,18.77-11.64,39.42-10.89,48.44.75,9.01,6.38,6.01,9.76,11.64,3.38,6.01,4.51,20.65,89.74,28.16,84.86,7.51,253.82,7.89,339.81,6.01,85.98-2.25,88.99-6.76,90.87-14.64,1.88-8.26,2.25-19.9,0-37.55-1.88-17.65-6.01-41.68-13.14-58.95-7.13-17.27-16.9-28.16-13.89-28.16,3,.38,18.77,11.64,27.03,10.89,8.26-.75,8.64-13.52,1.5-33.04-7.13-19.52-21.4-45.43-31.92-62.7-10.51-17.27-17.27-25.53-14.27-25.53,3.38,0,16.52,8.26,22.15,6.01,6.01-2.25,4.51-15.02-9.01-37.55-13.52-22.53-38.3-54.44-46.56-68.34-8.26-13.89,0-9.39,4.51-10.89,4.51-1.88,4.88-9.76-18.02-25.91-22.9-16.15-69.09-40.93-93.87-55.57-24.78-14.64-28.16-19.52-34.92-23.28-6.38-4.88-16.52-7.51-45.43,4.88Z"/>
          <path class="cls-8" d="m290.74,442.23c-1.13-7.89.38-24.03,5.63-31.54,5.26-7.51,15.02-6.38,27.79-4.88,13.14,1.5,29.66,3.38,37.55,5.63,7.88,2.25,7.13,4.51,6.76,11.26-.38,6.76-.38,18.02-3,24.41-2.63,6.38-7.51,7.51-19.15,7.13-11.64-.38-30.41-1.88-40.93-2.63s-13.52-1.5-14.64-9.39Z"/>
          <path class="cls-8" d="m501.01,451.62c-.38-5.63-1.13-15.77,0-20.65,1.13-4.88,3.75-4.51,12.39-4.51s23.28-.38,30.79.38c7.13.75,6.76,2.63,7.51,8.26.75,5.63,2.63,14.64,1.88,19.15-.75,4.51-4.88,4.51-13.14,4.51h-28.16c-7.13,0-8.64,0-9.39-.38-1.5-.75-1.5-1.5-1.88-6.76Z"/>
          <path class="cls-2" d="m258.83,449.37c123.16,2.25,246.31,4.51,369.47,6.76"/>
          <g>
            <path class="cls-3" d="m236.68,395.3c-29.29-12.39-58.95-24.78-81.85-39.05-22.9-13.89-39.05-29.66-51.44-46.18-12.39-16.9-20.65-34.92-28.91-52.94"/>
            <path class="cls-3" d="m116.15,325.46c-12.77,1.13-25.53,1.88-37.55-2.63-12.02-4.51-22.9-14.64-29.66-24.03-7.13-9.01-10.14-16.9-13.14-24.78"/>
            <path class="cls-3" d="m115.77,326.21c3-4.51,6.01-9.39,6.38-19.52.38-10.14-1.88-25.53-4.51-36.42-2.63-10.89-5.26-16.52-7.88-22.53"/>
          </g>
          <path class="cls-8" d="m460.83,382.16c48.06,0,87.49-39.05,87.49-87.49s-39.05-87.49-87.49-87.49-87.49,39.05-87.49,87.49,39.42,87.49,87.49,87.49Z"/>
          <path class="cls-4" d="m460.83,345.74c27.79,0,50.69-22.9,50.69-50.69s-22.9-50.69-50.69-50.69-50.69,22.9-50.69,50.69,22.9,50.69,50.69,50.69Z"/>
          <path class="cls-1" d="m191.62,88.91c-7.13,17.27-13.89,34.17-23.66,48.06-9.39,13.52-21.78,24.03-33.79,34.17"/>
          <path class="cls-1" d="m259.2,173.39c-2.63,8.26-4.88,16.15-8.64,24.03-3.75,7.88-8.64,15.77-13.52,23.28"/>
          <path class="cls-1" d="m705.27,220.33c3,12.02,5.63,23.66,10.51,32.29,4.88,8.64,11.64,13.89,18.4,19.52"/>
          <path class="cls-1" d="m768.35,149.74c5.26,10.51,10.51,20.65,19.9,31.16,9.39,10.51,22.9,21.03,36.8,31.54"/>
        </g>
      </g>
    </g>
  </g>
</svg>